G04 PROTEUS GERBER X2 FILE*
%TF.GenerationSoftware,Labcenter,Proteus,8.12-SP0-Build30713*%
%TF.CreationDate,2023-07-17T11:58:22+00:00*%
%TF.FileFunction,Copper,L2,Bot*%
%TF.FilePolarity,Positive*%
%TF.Part,Single*%
%TF.SameCoordinates,{929d0d33-b1dc-492e-9cfe-804fc5f4831e}*%
%FSLAX45Y45*%
%MOMM*%
G01*
%TA.AperFunction,Conductor*%
%ADD10C,0.508000*%
%ADD11C,0.762000*%
%ADD12C,0.254000*%
%TA.AperFunction,ComponentPad*%
%ADD13C,2.286000*%
%ADD14C,1.524000*%
%TA.AperFunction,ComponentPad*%
%ADD15R,2.032000X2.032000*%
%TA.AperFunction,ComponentPad*%
%ADD16C,2.032000*%
%TA.AperFunction,ComponentPad*%
%ADD17C,1.778000*%
%TA.AperFunction,ComponentPad*%
%ADD18R,1.500000X1.500000*%
%ADD19C,1.500000*%
%TA.AperFunction,Profile*%
%ADD20C,0.203200*%
%TA.AperFunction,NonMaterial*%
%ADD21C,0.203200*%
%TD.AperFunction*%
G36*
X+3509501Y+6098907D02*
X+3509501Y+5941093D01*
X+3621093Y+5829501D01*
X+3778907Y+5829501D01*
X+3813640Y+5864234D01*
X+3813640Y+5464230D01*
X+3864230Y+5413640D01*
X+4313640Y+5413640D01*
X+4313640Y+5175766D01*
X+4288907Y+5200499D01*
X+4131093Y+5200499D01*
X+4019501Y+5088907D01*
X+4019501Y+4931093D01*
X+4094534Y+4856060D01*
X+4057601Y+4819126D01*
X+4057601Y+4692874D01*
X+4121475Y+4629000D01*
X+4057601Y+4565126D01*
X+4057601Y+4438874D01*
X+4121475Y+4375000D01*
X+4057601Y+4311126D01*
X+4057601Y+4184874D01*
X+4121475Y+4121000D01*
X+4057601Y+4057126D01*
X+4057601Y+3930874D01*
X+4121475Y+3867000D01*
X+4057601Y+3803126D01*
X+4057601Y+3676874D01*
X+4121475Y+3613000D01*
X+4057601Y+3549126D01*
X+4057601Y+3422874D01*
X+4121475Y+3359000D01*
X+4057601Y+3295126D01*
X+4057601Y+3168874D01*
X+4121475Y+3105000D01*
X+4057601Y+3041126D01*
X+4057601Y+2914874D01*
X+4121475Y+2851000D01*
X+4057601Y+2787126D01*
X+4057601Y+2660874D01*
X+4121475Y+2597000D01*
X+4057601Y+2533126D01*
X+4057601Y+2406874D01*
X+4121475Y+2343000D01*
X+4057601Y+2279126D01*
X+4057601Y+2152874D01*
X+4121475Y+2089000D01*
X+4094074Y+2061599D01*
X+4011886Y+2061599D01*
X+3948386Y+2125099D01*
X+3811614Y+2125099D01*
X+3714901Y+2028386D01*
X+3714901Y+1929202D01*
X+3574592Y+1788893D01*
X+3538386Y+1825099D01*
X+3401614Y+1825099D01*
X+3304901Y+1728386D01*
X+3304901Y+1708020D01*
X+3168203Y+1844718D01*
X+3215099Y+1891614D01*
X+3215099Y+2028386D01*
X+3118386Y+2125099D01*
X+2981614Y+2125099D01*
X+2884901Y+2028386D01*
X+2884901Y+1978583D01*
X+2731417Y+1825099D01*
X+2641614Y+1825099D01*
X+2544901Y+1728386D01*
X+2544901Y+1591614D01*
X+2641614Y+1494901D01*
X+2778386Y+1494901D01*
X+2875099Y+1591614D01*
X+2875099Y+1681417D01*
X+2959620Y+1765938D01*
X+2978159Y+1747398D01*
X+3373156Y+1352401D01*
X+4096074Y+1352401D01*
X+4121475Y+1327000D01*
X+4057601Y+1263126D01*
X+4057601Y+1136874D01*
X+4121475Y+1073000D01*
X+4057601Y+1009126D01*
X+4057601Y+882874D01*
X+4121475Y+819000D01*
X+4057601Y+755126D01*
X+4057601Y+628874D01*
X+4121475Y+565000D01*
X+4057601Y+501126D01*
X+4057601Y+374874D01*
X+4146874Y+285601D01*
X+4273126Y+285601D01*
X+4313640Y+326115D01*
X+4313640Y+86360D01*
X+3937285Y+86360D01*
X+3937799Y+86874D01*
X+3937799Y+213126D01*
X+3848526Y+302399D01*
X+3722274Y+302399D01*
X+3655400Y+235525D01*
X+3588526Y+302399D01*
X+3462274Y+302399D01*
X+3400400Y+240525D01*
X+3338526Y+302399D01*
X+3212274Y+302399D01*
X+3150400Y+240525D01*
X+3088526Y+302399D01*
X+2962274Y+302399D01*
X+2895400Y+235525D01*
X+2828526Y+302399D01*
X+2702274Y+302399D01*
X+2640400Y+240525D01*
X+2578526Y+302399D01*
X+2452274Y+302399D01*
X+2390400Y+240525D01*
X+2328526Y+302399D01*
X+2202274Y+302399D01*
X+2153360Y+253486D01*
X+2079047Y+327799D01*
X+1931753Y+327799D01*
X+1827601Y+223647D01*
X+1827601Y+86360D01*
X+86359Y+86360D01*
X+86359Y+3730156D01*
X+101614Y+3714901D01*
X+191417Y+3714901D01*
X+553456Y+3352862D01*
X+500000Y+3299406D01*
X+428907Y+3370499D01*
X+271093Y+3370499D01*
X+159501Y+3258907D01*
X+159501Y+3101093D01*
X+230594Y+3030000D01*
X+159501Y+2958907D01*
X+159501Y+2801093D01*
X+271093Y+2689501D01*
X+428907Y+2689501D01*
X+500000Y+2760594D01*
X+571093Y+2689501D01*
X+728907Y+2689501D01*
X+800000Y+2760594D01*
X+871093Y+2689501D01*
X+1028907Y+2689501D01*
X+1100000Y+2760594D01*
X+1171093Y+2689501D01*
X+1328907Y+2689501D01*
X+1440499Y+2801093D01*
X+1440499Y+2958907D01*
X+1397205Y+3002201D01*
X+1427799Y+3002201D01*
X+1427799Y+3321538D01*
X+1443895Y+3321538D01*
X+1557601Y+3207832D01*
X+1557601Y+3168874D01*
X+1621475Y+3105000D01*
X+1557601Y+3041126D01*
X+1557601Y+2914874D01*
X+1621475Y+2851000D01*
X+1557601Y+2787126D01*
X+1557601Y+2660874D01*
X+1621475Y+2597000D01*
X+1596074Y+2571599D01*
X+1367917Y+2571599D01*
X+1222517Y+2426199D01*
X+1063801Y+2426199D01*
X+1063801Y+2123801D01*
X+1366199Y+2123801D01*
X+1366199Y+2282517D01*
X+1452083Y+2368401D01*
X+1596074Y+2368401D01*
X+1621475Y+2343000D01*
X+1557601Y+2279126D01*
X+1557601Y+2152874D01*
X+1621475Y+2089000D01*
X+1557601Y+2025126D01*
X+1557601Y+1898874D01*
X+1621475Y+1835000D01*
X+1557601Y+1771126D01*
X+1557601Y+1644874D01*
X+1621475Y+1581000D01*
X+1557601Y+1517126D01*
X+1557601Y+1390874D01*
X+1621475Y+1327000D01*
X+1557601Y+1263126D01*
X+1557601Y+1136874D01*
X+1621475Y+1073000D01*
X+1557601Y+1009126D01*
X+1557601Y+882874D01*
X+1621475Y+819000D01*
X+1557601Y+755126D01*
X+1557601Y+752041D01*
X+1545278Y+764364D01*
X+1545278Y+1164930D01*
X+1236407Y+1473801D01*
X+1277629Y+1473801D01*
X+1366199Y+1562371D01*
X+1366199Y+1687629D01*
X+1277629Y+1776199D01*
X+1152371Y+1776199D01*
X+1063801Y+1687629D01*
X+1063801Y+1646407D01*
X+970909Y+1739299D01*
X+864529Y+1739299D01*
X+827629Y+1776199D01*
X+702371Y+1776199D01*
X+613801Y+1687629D01*
X+613801Y+1562371D01*
X+702371Y+1473801D01*
X+827629Y+1473801D01*
X+864529Y+1510701D01*
X+876223Y+1510701D01*
X+1316680Y+1070244D01*
X+1316680Y+669678D01*
X+1519501Y+466857D01*
X+1519501Y+359093D01*
X+1631093Y+247501D01*
X+1788907Y+247501D01*
X+1900499Y+359093D01*
X+1900499Y+457379D01*
X+2154299Y+711179D01*
X+2154299Y+1312657D01*
X+2336543Y+1494901D01*
X+2398386Y+1494901D01*
X+2495099Y+1591614D01*
X+2495099Y+1728386D01*
X+2398386Y+1825099D01*
X+2261614Y+1825099D01*
X+2164901Y+1728386D01*
X+2164901Y+1646543D01*
X+1925701Y+1407343D01*
X+1925701Y+805865D01*
X+1862399Y+742563D01*
X+1862399Y+755126D01*
X+1798525Y+819000D01*
X+1862399Y+882874D01*
X+1862399Y+1009126D01*
X+1798525Y+1073000D01*
X+1862399Y+1136874D01*
X+1862399Y+1263126D01*
X+1798525Y+1327000D01*
X+1862399Y+1390874D01*
X+1862399Y+1517126D01*
X+1798525Y+1581000D01*
X+1862399Y+1644874D01*
X+1862399Y+1771126D01*
X+1798525Y+1835000D01*
X+1862399Y+1898874D01*
X+1862399Y+2025126D01*
X+1798525Y+2089000D01*
X+1862399Y+2152874D01*
X+1862399Y+2279126D01*
X+1798525Y+2343000D01*
X+1829740Y+2374214D01*
X+1931753Y+2272201D01*
X+2079047Y+2272201D01*
X+2135400Y+2328554D01*
X+2191753Y+2272201D01*
X+2339047Y+2272201D01*
X+2408360Y+2341514D01*
X+2452274Y+2297601D01*
X+2578526Y+2297601D01*
X+2640400Y+2359475D01*
X+2702274Y+2297601D01*
X+2828526Y+2297601D01*
X+2895400Y+2364475D01*
X+2962274Y+2297601D01*
X+3088526Y+2297601D01*
X+3150400Y+2359475D01*
X+3212274Y+2297601D01*
X+3338526Y+2297601D01*
X+3400400Y+2359475D01*
X+3462274Y+2297601D01*
X+3588526Y+2297601D01*
X+3655400Y+2364475D01*
X+3722274Y+2297601D01*
X+3848526Y+2297601D01*
X+3937799Y+2386874D01*
X+3937799Y+2513126D01*
X+3848526Y+2602399D01*
X+3722274Y+2602399D01*
X+3655400Y+2535525D01*
X+3588526Y+2602399D01*
X+3462274Y+2602399D01*
X+3400400Y+2540525D01*
X+3338526Y+2602399D01*
X+3212274Y+2602399D01*
X+3150400Y+2540525D01*
X+3088526Y+2602399D01*
X+2962274Y+2602399D01*
X+2895400Y+2535525D01*
X+2828526Y+2602399D01*
X+2702274Y+2602399D01*
X+2640400Y+2540525D01*
X+2578526Y+2602399D01*
X+2452274Y+2602399D01*
X+2408360Y+2558486D01*
X+2339047Y+2627799D01*
X+2191753Y+2627799D01*
X+2135400Y+2571446D01*
X+2079047Y+2627799D01*
X+1931753Y+2627799D01*
X+1849740Y+2545786D01*
X+1798525Y+2597000D01*
X+1862399Y+2660874D01*
X+1862399Y+2787126D01*
X+1798525Y+2851000D01*
X+1862399Y+2914874D01*
X+1862399Y+3041126D01*
X+1798525Y+3105000D01*
X+1862399Y+3168874D01*
X+1862399Y+3295126D01*
X+1798525Y+3359000D01*
X+1862399Y+3422874D01*
X+1862399Y+3549126D01*
X+1798525Y+3613000D01*
X+1862399Y+3676874D01*
X+1862399Y+3803126D01*
X+1798525Y+3867000D01*
X+1862399Y+3930874D01*
X+1862399Y+4057126D01*
X+1798525Y+4121000D01*
X+1862399Y+4184874D01*
X+1862399Y+4311126D01*
X+1798525Y+4375000D01*
X+1862399Y+4438874D01*
X+1862399Y+4565126D01*
X+1798525Y+4629000D01*
X+1862399Y+4692874D01*
X+1862399Y+4819126D01*
X+1825466Y+4856060D01*
X+1865107Y+4895701D01*
X+1912657Y+4895701D01*
X+2549501Y+4258857D01*
X+2549501Y+4219905D01*
X+2468907Y+4300499D01*
X+2311093Y+4300499D01*
X+2199501Y+4188907D01*
X+2199501Y+4031093D01*
X+2311093Y+3919501D01*
X+2468907Y+3919501D01*
X+2580499Y+4031093D01*
X+2580499Y+4120095D01*
X+2661093Y+4039501D01*
X+2818907Y+4039501D01*
X+2930499Y+4151093D01*
X+2930499Y+4308907D01*
X+2850446Y+4388960D01*
X+2945099Y+4483614D01*
X+2945099Y+4620386D01*
X+2848386Y+4717099D01*
X+2711614Y+4717099D01*
X+2614901Y+4620386D01*
X+2614901Y+4516741D01*
X+2007343Y+5124299D01*
X+1865107Y+5124299D01*
X+1788907Y+5200499D01*
X+1631093Y+5200499D01*
X+1519501Y+5088907D01*
X+1519501Y+4931093D01*
X+1594534Y+4856060D01*
X+1557601Y+4819126D01*
X+1557601Y+4692874D01*
X+1621475Y+4629000D01*
X+1557601Y+4565126D01*
X+1557601Y+4438874D01*
X+1621475Y+4375000D01*
X+1557601Y+4311126D01*
X+1557601Y+4184874D01*
X+1621475Y+4121000D01*
X+1596074Y+4095599D01*
X+1301917Y+4095599D01*
X+1251417Y+4045099D01*
X+1161614Y+4045099D01*
X+1064901Y+3948386D01*
X+1064901Y+3828781D01*
X+1035099Y+3858583D01*
X+1035099Y+3948386D01*
X+938386Y+4045099D01*
X+801614Y+4045099D01*
X+704901Y+3948386D01*
X+704901Y+3828781D01*
X+675099Y+3858583D01*
X+675099Y+3948386D01*
X+578386Y+4045099D01*
X+441614Y+4045099D01*
X+344901Y+3948386D01*
X+344901Y+3848781D01*
X+335099Y+3858583D01*
X+335099Y+3948386D01*
X+238386Y+4045099D01*
X+101614Y+4045099D01*
X+86359Y+4029844D01*
X+86359Y+4746156D01*
X+101614Y+4730901D01*
X+238386Y+4730901D01*
X+335099Y+4827614D01*
X+335099Y+4964386D01*
X+238386Y+5061099D01*
X+101614Y+5061099D01*
X+86359Y+5045844D01*
X+86359Y+6113640D01*
X+1993801Y+6113640D01*
X+1993801Y+6047727D01*
X+2067727Y+5973801D01*
X+2172273Y+5973801D01*
X+2246199Y+6047727D01*
X+2246199Y+6113640D01*
X+2533801Y+6113640D01*
X+2533801Y+6037727D01*
X+2607727Y+5963801D01*
X+2712273Y+5963801D01*
X+2786199Y+6037727D01*
X+2786199Y+6113640D01*
X+3024234Y+6113640D01*
X+3009501Y+6098907D01*
X+3009501Y+5941093D01*
X+3121093Y+5829501D01*
X+3278907Y+5829501D01*
X+3390499Y+5941093D01*
X+3390499Y+6098907D01*
X+3375766Y+6113640D01*
X+3524234Y+6113640D01*
X+3509501Y+6098907D01*
G37*
%LPC*%
G36*
X+2932201Y+3327205D02*
X+2932201Y+3357799D01*
X+3287799Y+3357799D01*
X+3287799Y+3002201D01*
X+3257205Y+3002201D01*
X+3300499Y+2958907D01*
X+3300499Y+2801093D01*
X+3188907Y+2689501D01*
X+3031093Y+2689501D01*
X+2960000Y+2760594D01*
X+2888907Y+2689501D01*
X+2731093Y+2689501D01*
X+2660000Y+2760594D01*
X+2588907Y+2689501D01*
X+2431093Y+2689501D01*
X+2360000Y+2760594D01*
X+2288907Y+2689501D01*
X+2131093Y+2689501D01*
X+2019501Y+2801093D01*
X+2019501Y+2958907D01*
X+2090594Y+3030000D01*
X+2019501Y+3101093D01*
X+2019501Y+3258907D01*
X+2131093Y+3370499D01*
X+2288907Y+3370499D01*
X+2360000Y+3299406D01*
X+2431093Y+3370499D01*
X+2588907Y+3370499D01*
X+2660000Y+3299406D01*
X+2731093Y+3370499D01*
X+2888907Y+3370499D01*
X+2932201Y+3327205D01*
G37*
G36*
X+2850499Y+5658907D02*
X+2850499Y+5501093D01*
X+2738907Y+5389501D01*
X+2581093Y+5389501D01*
X+2525000Y+5445594D01*
X+2474406Y+5395000D01*
X+2580499Y+5288907D01*
X+2580499Y+5131093D01*
X+2468907Y+5019501D01*
X+2311093Y+5019501D01*
X+2199501Y+5131093D01*
X+2199501Y+5288907D01*
X+2305594Y+5395000D01*
X+2255000Y+5445594D01*
X+2198907Y+5389501D01*
X+2041093Y+5389501D01*
X+1929501Y+5501093D01*
X+1929501Y+5658907D01*
X+2041093Y+5770499D01*
X+2198907Y+5770499D01*
X+2255000Y+5714406D01*
X+2311093Y+5770499D01*
X+2468907Y+5770499D01*
X+2525000Y+5714406D01*
X+2581093Y+5770499D01*
X+2738907Y+5770499D01*
X+2850499Y+5658907D01*
G37*
G36*
X+675099Y+4827614D02*
X+675099Y+4964386D01*
X+578386Y+5061099D01*
X+441614Y+5061099D01*
X+344901Y+4964386D01*
X+344901Y+4827614D01*
X+441614Y+4730901D01*
X+578386Y+4730901D01*
X+675099Y+4827614D01*
G37*
G36*
X+1035099Y+4827614D02*
X+1035099Y+4964386D01*
X+938386Y+5061099D01*
X+801614Y+5061099D01*
X+704901Y+4964386D01*
X+704901Y+4827614D01*
X+801614Y+4730901D01*
X+938386Y+4730901D01*
X+1035099Y+4827614D01*
G37*
G36*
X+1395099Y+4827614D02*
X+1395099Y+4964386D01*
X+1298386Y+5061099D01*
X+1161614Y+5061099D01*
X+1064901Y+4964386D01*
X+1064901Y+4827614D01*
X+1161614Y+4730901D01*
X+1298386Y+4730901D01*
X+1395099Y+4827614D01*
G37*
G36*
X+475099Y+5371614D02*
X+475099Y+5508386D01*
X+378386Y+5605099D01*
X+241614Y+5605099D01*
X+144901Y+5508386D01*
X+144901Y+5371614D01*
X+241614Y+5274901D01*
X+378386Y+5274901D01*
X+475099Y+5371614D01*
G37*
G36*
X+475099Y+5879614D02*
X+475099Y+6016386D01*
X+378386Y+6113099D01*
X+241614Y+6113099D01*
X+144901Y+6016386D01*
X+144901Y+5879614D01*
X+241614Y+5782901D01*
X+378386Y+5782901D01*
X+475099Y+5879614D01*
G37*
G36*
X+865099Y+5361614D02*
X+865099Y+5498386D01*
X+768386Y+5595099D01*
X+631614Y+5595099D01*
X+534901Y+5498386D01*
X+534901Y+5361614D01*
X+631614Y+5264901D01*
X+768386Y+5264901D01*
X+865099Y+5361614D01*
G37*
G36*
X+865099Y+5869614D02*
X+865099Y+6006386D01*
X+768386Y+6103099D01*
X+631614Y+6103099D01*
X+534901Y+6006386D01*
X+534901Y+5869614D01*
X+631614Y+5772901D01*
X+768386Y+5772901D01*
X+865099Y+5869614D01*
G37*
G36*
X+1225099Y+5361614D02*
X+1225099Y+5498386D01*
X+1128386Y+5595099D01*
X+991614Y+5595099D01*
X+894901Y+5498386D01*
X+894901Y+5361614D01*
X+991614Y+5264901D01*
X+1128386Y+5264901D01*
X+1225099Y+5361614D01*
G37*
G36*
X+1225099Y+5869614D02*
X+1225099Y+6006386D01*
X+1128386Y+6103099D01*
X+991614Y+6103099D01*
X+894901Y+6006386D01*
X+894901Y+5869614D01*
X+991614Y+5772901D01*
X+1128386Y+5772901D01*
X+1225099Y+5869614D01*
G37*
G36*
X+1575099Y+5361614D02*
X+1575099Y+5498386D01*
X+1478386Y+5595099D01*
X+1341614Y+5595099D01*
X+1244901Y+5498386D01*
X+1244901Y+5361614D01*
X+1341614Y+5264901D01*
X+1478386Y+5264901D01*
X+1575099Y+5361614D01*
G37*
G36*
X+1575099Y+5869614D02*
X+1575099Y+6006386D01*
X+1478386Y+6103099D01*
X+1341614Y+6103099D01*
X+1244901Y+6006386D01*
X+1244901Y+5869614D01*
X+1341614Y+5772901D01*
X+1478386Y+5772901D01*
X+1575099Y+5869614D01*
G37*
G36*
X+2164901Y+1220386D02*
X+2164901Y+1083614D01*
X+2261614Y+986901D01*
X+2398386Y+986901D01*
X+2495099Y+1083614D01*
X+2495099Y+1220386D01*
X+2398386Y+1317099D01*
X+2261614Y+1317099D01*
X+2164901Y+1220386D01*
G37*
G36*
X+3714901Y+1012386D02*
X+3714901Y+875614D01*
X+3811614Y+778901D01*
X+3948386Y+778901D01*
X+4045099Y+875614D01*
X+4045099Y+1012386D01*
X+3948386Y+1109099D01*
X+3811614Y+1109099D01*
X+3714901Y+1012386D01*
G37*
G36*
X+3304901Y+1220386D02*
X+3304901Y+1083614D01*
X+3401614Y+986901D01*
X+3538386Y+986901D01*
X+3635099Y+1083614D01*
X+3635099Y+1220386D01*
X+3538386Y+1317099D01*
X+3401614Y+1317099D01*
X+3304901Y+1220386D01*
G37*
G36*
X+2884901Y+1012386D02*
X+2884901Y+875614D01*
X+2981614Y+778901D01*
X+3118386Y+778901D01*
X+3215099Y+875614D01*
X+3215099Y+1012386D01*
X+3118386Y+1109099D01*
X+2981614Y+1109099D01*
X+2884901Y+1012386D01*
G37*
G36*
X+2544901Y+1220386D02*
X+2544901Y+1083614D01*
X+2641614Y+986901D01*
X+2778386Y+986901D01*
X+2875099Y+1083614D01*
X+2875099Y+1220386D01*
X+2778386Y+1317099D01*
X+2641614Y+1317099D01*
X+2544901Y+1220386D01*
G37*
G36*
X+4030499Y+4308907D02*
X+4030499Y+4151093D01*
X+3996446Y+4117040D01*
X+4005099Y+4108386D01*
X+4005099Y+3971614D01*
X+3908386Y+3874901D01*
X+3771614Y+3874901D01*
X+3674901Y+3971614D01*
X+3674901Y+4108386D01*
X+3683554Y+4117040D01*
X+3649501Y+4151093D01*
X+3649501Y+4308907D01*
X+3761093Y+4420499D01*
X+3918907Y+4420499D01*
X+4030499Y+4308907D01*
G37*
G36*
X+3857799Y+5183647D02*
X+3857799Y+5036353D01*
X+3804946Y+4983500D01*
X+3857799Y+4930647D01*
X+3857799Y+4783353D01*
X+3807946Y+4733500D01*
X+3857799Y+4683647D01*
X+3857799Y+4536353D01*
X+3753647Y+4432201D01*
X+3606353Y+4432201D01*
X+3502201Y+4536353D01*
X+3502201Y+4683647D01*
X+3552054Y+4733500D01*
X+3502201Y+4783353D01*
X+3502201Y+4930647D01*
X+3555054Y+4983500D01*
X+3502201Y+5036353D01*
X+3502201Y+5183647D01*
X+3606353Y+5287799D01*
X+3753647Y+5287799D01*
X+3857799Y+5183647D01*
G37*
G36*
X+3674901Y+3600386D02*
X+3674901Y+3463614D01*
X+3771614Y+3366901D01*
X+3908386Y+3366901D01*
X+4005099Y+3463614D01*
X+4005099Y+3600386D01*
X+3908386Y+3697099D01*
X+3771614Y+3697099D01*
X+3674901Y+3600386D01*
G37*
G36*
X+2614901Y+5128386D02*
X+2614901Y+4991614D01*
X+2711614Y+4894901D01*
X+2848386Y+4894901D01*
X+2945099Y+4991614D01*
X+2945099Y+5128386D01*
X+2848386Y+5225099D01*
X+2711614Y+5225099D01*
X+2614901Y+5128386D01*
G37*
G36*
X+555099Y+2508386D02*
X+555099Y+2418583D01*
X+597083Y+2376599D01*
X+652771Y+2376599D01*
X+702371Y+2426199D01*
X+827629Y+2426199D01*
X+916199Y+2337629D01*
X+916199Y+2212371D01*
X+827629Y+2123801D01*
X+702371Y+2123801D01*
X+652771Y+2173401D01*
X+512917Y+2173401D01*
X+411417Y+2274901D01*
X+321614Y+2274901D01*
X+224901Y+2371614D01*
X+224901Y+2508386D01*
X+321614Y+2605099D01*
X+458386Y+2605099D01*
X+555099Y+2508386D01*
G37*
G36*
X+224901Y+1492386D02*
X+224901Y+1355614D01*
X+321614Y+1258901D01*
X+458386Y+1258901D01*
X+555099Y+1355614D01*
X+555099Y+1492386D01*
X+458386Y+1589099D01*
X+321614Y+1589099D01*
X+224901Y+1492386D01*
G37*
%LPD*%
D10*
X+3889381Y+1960000D02*
X+3889381Y+1973234D01*
X+3880000Y+1960000D01*
X+3889381Y+1960000D01*
X+4208000Y+1960000D01*
X+4210000Y+1962000D01*
X+390000Y+2440000D02*
X+555000Y+2275000D01*
X+765000Y+2275000D01*
X+1215000Y+2275000D02*
X+1410000Y+2470000D01*
X+1710000Y+2470000D01*
D11*
X+1710000Y+5010000D02*
X+1960000Y+5010000D01*
X+2740000Y+4230000D01*
X+3840000Y+4230000D02*
X+3840000Y+4040000D01*
D10*
X+1710000Y+3994000D02*
X+1344000Y+3994000D01*
X+1230000Y+3880000D01*
X+870000Y+3880000D02*
X+1047704Y+3702296D01*
X+1672296Y+3702296D01*
X+1710000Y+3740000D01*
X+510000Y+3880000D02*
X+803412Y+3586588D01*
X+1572618Y+3586588D01*
X+1609412Y+3586588D01*
X+1710000Y+3486000D01*
X+170000Y+3880000D02*
X+626863Y+3423137D01*
X+1485978Y+3423137D01*
X+1677115Y+3232000D01*
X+1710000Y+3232000D01*
X+3470000Y+1660000D02*
X+3589381Y+1660000D01*
X+3800481Y+1871100D01*
X+3880000Y+1960000D01*
X+3050000Y+1960000D02*
X+3050000Y+1819239D01*
X+3415239Y+1454000D01*
X+4210000Y+1454000D01*
X+2710000Y+1660000D02*
X+3010000Y+1960000D01*
X+3050000Y+1960000D01*
D11*
X+1699000Y+449000D02*
X+1730478Y+449000D01*
X+2040000Y+758522D01*
X+2040000Y+1360000D01*
X+2330000Y+1650000D01*
X+2330000Y+1660000D01*
X+765000Y+1625000D02*
X+923566Y+1625000D01*
X+1430979Y+1117587D01*
X+1430979Y+717021D01*
X+1699000Y+449000D01*
X+1710000Y+438000D01*
D12*
X+3509501Y+6098907D02*
X+3509501Y+5941093D01*
X+3621093Y+5829501D01*
X+3778907Y+5829501D01*
X+3813640Y+5864234D01*
X+3813640Y+5464230D01*
X+3864230Y+5413640D01*
X+4313640Y+5413640D01*
X+4313640Y+5175766D01*
X+4288907Y+5200499D01*
X+4131093Y+5200499D01*
X+4019501Y+5088907D01*
X+4019501Y+4931093D01*
X+4094534Y+4856060D01*
X+4057601Y+4819126D01*
X+4057601Y+4692874D01*
X+4121475Y+4629000D01*
X+4057601Y+4565126D01*
X+4057601Y+4438874D01*
X+4121475Y+4375000D01*
X+4057601Y+4311126D01*
X+4057601Y+4184874D01*
X+4121475Y+4121000D01*
X+4057601Y+4057126D01*
X+4057601Y+3930874D01*
X+4121475Y+3867000D01*
X+4057601Y+3803126D01*
X+4057601Y+3676874D01*
X+4121475Y+3613000D01*
X+4057601Y+3549126D01*
X+4057601Y+3422874D01*
X+4121475Y+3359000D01*
X+4057601Y+3295126D01*
X+4057601Y+3168874D01*
X+4121475Y+3105000D01*
X+4057601Y+3041126D01*
X+4057601Y+2914874D01*
X+4121475Y+2851000D01*
X+4057601Y+2787126D01*
X+4057601Y+2660874D01*
X+4121475Y+2597000D01*
X+4057601Y+2533126D01*
X+4057601Y+2406874D01*
X+4121475Y+2343000D01*
X+4057601Y+2279126D01*
X+4057601Y+2152874D01*
X+4121475Y+2089000D01*
X+4094074Y+2061599D01*
X+4011886Y+2061599D01*
X+3948386Y+2125099D01*
X+3811614Y+2125099D01*
X+3714901Y+2028386D01*
X+3714901Y+1929202D01*
X+3574592Y+1788893D01*
X+3538386Y+1825099D01*
X+3401614Y+1825099D01*
X+3304901Y+1728386D01*
X+3304901Y+1708020D01*
X+3168203Y+1844718D01*
X+3215099Y+1891614D01*
X+3215099Y+2028386D01*
X+3118386Y+2125099D01*
X+2981614Y+2125099D01*
X+2884901Y+2028386D01*
X+2884901Y+1978583D01*
X+2731417Y+1825099D01*
X+2641614Y+1825099D01*
X+2544901Y+1728386D01*
X+2544901Y+1591614D01*
X+2641614Y+1494901D01*
X+2778386Y+1494901D01*
X+2875099Y+1591614D01*
X+2875099Y+1681417D01*
X+2959620Y+1765938D01*
X+2978159Y+1747398D01*
X+3373156Y+1352401D01*
X+4096074Y+1352401D01*
X+4121475Y+1327000D01*
X+4057601Y+1263126D01*
X+4057601Y+1136874D01*
X+4121475Y+1073000D01*
X+4057601Y+1009126D01*
X+4057601Y+882874D01*
X+4121475Y+819000D01*
X+4057601Y+755126D01*
X+4057601Y+628874D01*
X+4121475Y+565000D01*
X+4057601Y+501126D01*
X+4057601Y+374874D01*
X+4146874Y+285601D01*
X+4273126Y+285601D01*
X+4313640Y+326115D01*
X+4313640Y+86360D01*
X+3937285Y+86360D01*
X+3937799Y+86874D01*
X+3937799Y+213126D01*
X+3848526Y+302399D01*
X+3722274Y+302399D01*
X+3655400Y+235525D01*
X+3588526Y+302399D01*
X+3462274Y+302399D01*
X+3400400Y+240525D01*
X+3338526Y+302399D01*
X+3212274Y+302399D01*
X+3150400Y+240525D01*
X+3088526Y+302399D01*
X+2962274Y+302399D01*
X+2895400Y+235525D01*
X+2828526Y+302399D01*
X+2702274Y+302399D01*
X+2640400Y+240525D01*
X+2578526Y+302399D01*
X+2452274Y+302399D01*
X+2390400Y+240525D01*
X+2328526Y+302399D01*
X+2202274Y+302399D01*
X+2153360Y+253486D01*
X+2079047Y+327799D01*
X+1931753Y+327799D01*
X+1827601Y+223647D01*
X+1827601Y+86360D01*
X+86359Y+86360D01*
X+86359Y+3730156D01*
X+101614Y+3714901D01*
X+191417Y+3714901D01*
X+553456Y+3352862D01*
X+500000Y+3299406D01*
X+428907Y+3370499D01*
X+271093Y+3370499D01*
X+159501Y+3258907D01*
X+159501Y+3101093D01*
X+230594Y+3030000D01*
X+159501Y+2958907D01*
X+159501Y+2801093D01*
X+271093Y+2689501D01*
X+428907Y+2689501D01*
X+500000Y+2760594D01*
X+571093Y+2689501D01*
X+728907Y+2689501D01*
X+800000Y+2760594D01*
X+871093Y+2689501D01*
X+1028907Y+2689501D01*
X+1100000Y+2760594D01*
X+1171093Y+2689501D01*
X+1328907Y+2689501D01*
X+1440499Y+2801093D01*
X+1440499Y+2958907D01*
X+1397205Y+3002201D01*
X+1427799Y+3002201D01*
X+1427799Y+3321538D01*
X+1443895Y+3321538D01*
X+1557601Y+3207832D01*
X+1557601Y+3168874D01*
X+1621475Y+3105000D01*
X+1557601Y+3041126D01*
X+1557601Y+2914874D01*
X+1621475Y+2851000D01*
X+1557601Y+2787126D01*
X+1557601Y+2660874D01*
X+1621475Y+2597000D01*
X+1596074Y+2571599D01*
X+1367917Y+2571599D01*
X+1222517Y+2426199D01*
X+1063801Y+2426199D01*
X+1063801Y+2123801D01*
X+1366199Y+2123801D01*
X+1366199Y+2282517D01*
X+1452083Y+2368401D01*
X+1596074Y+2368401D01*
X+1621475Y+2343000D01*
X+1557601Y+2279126D01*
X+1557601Y+2152874D01*
X+1621475Y+2089000D01*
X+1557601Y+2025126D01*
X+1557601Y+1898874D01*
X+1621475Y+1835000D01*
X+1557601Y+1771126D01*
X+1557601Y+1644874D01*
X+1621475Y+1581000D01*
X+1557601Y+1517126D01*
X+1557601Y+1390874D01*
X+1621475Y+1327000D01*
X+1557601Y+1263126D01*
X+1557601Y+1136874D01*
X+1621475Y+1073000D01*
X+1557601Y+1009126D01*
X+1557601Y+882874D01*
X+1621475Y+819000D01*
X+1557601Y+755126D01*
X+1557601Y+752041D01*
X+1545278Y+764364D01*
X+1545278Y+1164930D01*
X+1236407Y+1473801D01*
X+1277629Y+1473801D01*
X+1366199Y+1562371D01*
X+1366199Y+1687629D01*
X+1277629Y+1776199D01*
X+1152371Y+1776199D01*
X+1063801Y+1687629D01*
X+1063801Y+1646407D01*
X+970909Y+1739299D01*
X+864529Y+1739299D01*
X+827629Y+1776199D01*
X+702371Y+1776199D01*
X+613801Y+1687629D01*
X+613801Y+1562371D01*
X+702371Y+1473801D01*
X+827629Y+1473801D01*
X+864529Y+1510701D01*
X+876223Y+1510701D01*
X+1316680Y+1070244D01*
X+1316680Y+669678D01*
X+1519501Y+466857D01*
X+1519501Y+359093D01*
X+1631093Y+247501D01*
X+1788907Y+247501D01*
X+1900499Y+359093D01*
X+1900499Y+457379D01*
X+2154299Y+711179D01*
X+2154299Y+1312657D01*
X+2336543Y+1494901D01*
X+2398386Y+1494901D01*
X+2495099Y+1591614D01*
X+2495099Y+1728386D01*
X+2398386Y+1825099D01*
X+2261614Y+1825099D01*
X+2164901Y+1728386D01*
X+2164901Y+1646543D01*
X+1925701Y+1407343D01*
X+1925701Y+805865D01*
X+1862399Y+742563D01*
X+1862399Y+755126D01*
X+1798525Y+819000D01*
X+1862399Y+882874D01*
X+1862399Y+1009126D01*
X+1798525Y+1073000D01*
X+1862399Y+1136874D01*
X+1862399Y+1263126D01*
X+1798525Y+1327000D01*
X+1862399Y+1390874D01*
X+1862399Y+1517126D01*
X+1798525Y+1581000D01*
X+1862399Y+1644874D01*
X+1862399Y+1771126D01*
X+1798525Y+1835000D01*
X+1862399Y+1898874D01*
X+1862399Y+2025126D01*
X+1798525Y+2089000D01*
X+1862399Y+2152874D01*
X+1862399Y+2279126D01*
X+1798525Y+2343000D01*
X+1829740Y+2374214D01*
X+1931753Y+2272201D01*
X+2079047Y+2272201D01*
X+2135400Y+2328554D01*
X+2191753Y+2272201D01*
X+2339047Y+2272201D01*
X+2408360Y+2341514D01*
X+2452274Y+2297601D01*
X+2578526Y+2297601D01*
X+2640400Y+2359475D01*
X+2702274Y+2297601D01*
X+2828526Y+2297601D01*
X+2895400Y+2364475D01*
X+2962274Y+2297601D01*
X+3088526Y+2297601D01*
X+3150400Y+2359475D01*
X+3212274Y+2297601D01*
X+3338526Y+2297601D01*
X+3400400Y+2359475D01*
X+3462274Y+2297601D01*
X+3588526Y+2297601D01*
X+3655400Y+2364475D01*
X+3722274Y+2297601D01*
X+3848526Y+2297601D01*
X+3937799Y+2386874D01*
X+3937799Y+2513126D01*
X+3848526Y+2602399D01*
X+3722274Y+2602399D01*
X+3655400Y+2535525D01*
X+3588526Y+2602399D01*
X+3462274Y+2602399D01*
X+3400400Y+2540525D01*
X+3338526Y+2602399D01*
X+3212274Y+2602399D01*
X+3150400Y+2540525D01*
X+3088526Y+2602399D01*
X+2962274Y+2602399D01*
X+2895400Y+2535525D01*
X+2828526Y+2602399D01*
X+2702274Y+2602399D01*
X+2640400Y+2540525D01*
X+2578526Y+2602399D01*
X+2452274Y+2602399D01*
X+2408360Y+2558486D01*
X+2339047Y+2627799D01*
X+2191753Y+2627799D01*
X+2135400Y+2571446D01*
X+2079047Y+2627799D01*
X+1931753Y+2627799D01*
X+1849740Y+2545786D01*
X+1798525Y+2597000D01*
X+1862399Y+2660874D01*
X+1862399Y+2787126D01*
X+1798525Y+2851000D01*
X+1862399Y+2914874D01*
X+1862399Y+3041126D01*
X+1798525Y+3105000D01*
X+1862399Y+3168874D01*
X+1862399Y+3295126D01*
X+1798525Y+3359000D01*
X+1862399Y+3422874D01*
X+1862399Y+3549126D01*
X+1798525Y+3613000D01*
X+1862399Y+3676874D01*
X+1862399Y+3803126D01*
X+1798525Y+3867000D01*
X+1862399Y+3930874D01*
X+1862399Y+4057126D01*
X+1798525Y+4121000D01*
X+1862399Y+4184874D01*
X+1862399Y+4311126D01*
X+1798525Y+4375000D01*
X+1862399Y+4438874D01*
X+1862399Y+4565126D01*
X+1798525Y+4629000D01*
X+1862399Y+4692874D01*
X+1862399Y+4819126D01*
X+1825466Y+4856060D01*
X+1865107Y+4895701D01*
X+1912657Y+4895701D01*
X+2549501Y+4258857D01*
X+2549501Y+4219905D01*
X+2468907Y+4300499D01*
X+2311093Y+4300499D01*
X+2199501Y+4188907D01*
X+2199501Y+4031093D01*
X+2311093Y+3919501D01*
X+2468907Y+3919501D01*
X+2580499Y+4031093D01*
X+2580499Y+4120095D01*
X+2661093Y+4039501D01*
X+2818907Y+4039501D01*
X+2930499Y+4151093D01*
X+2930499Y+4308907D01*
X+2850446Y+4388960D01*
X+2945099Y+4483614D01*
X+2945099Y+4620386D01*
X+2848386Y+4717099D01*
X+2711614Y+4717099D01*
X+2614901Y+4620386D01*
X+2614901Y+4516741D01*
X+2007343Y+5124299D01*
X+1865107Y+5124299D01*
X+1788907Y+5200499D01*
X+1631093Y+5200499D01*
X+1519501Y+5088907D01*
X+1519501Y+4931093D01*
X+1594534Y+4856060D01*
X+1557601Y+4819126D01*
X+1557601Y+4692874D01*
X+1621475Y+4629000D01*
X+1557601Y+4565126D01*
X+1557601Y+4438874D01*
X+1621475Y+4375000D01*
X+1557601Y+4311126D01*
X+1557601Y+4184874D01*
X+1621475Y+4121000D01*
X+1596074Y+4095599D01*
X+1301917Y+4095599D01*
X+1251417Y+4045099D01*
X+1161614Y+4045099D01*
X+1064901Y+3948386D01*
X+1064901Y+3828781D01*
X+1035099Y+3858583D01*
X+1035099Y+3948386D01*
X+938386Y+4045099D01*
X+801614Y+4045099D01*
X+704901Y+3948386D01*
X+704901Y+3828781D01*
X+675099Y+3858583D01*
X+675099Y+3948386D01*
X+578386Y+4045099D01*
X+441614Y+4045099D01*
X+344901Y+3948386D01*
X+344901Y+3848781D01*
X+335099Y+3858583D01*
X+335099Y+3948386D01*
X+238386Y+4045099D01*
X+101614Y+4045099D01*
X+86359Y+4029844D01*
X+86359Y+4746156D01*
X+101614Y+4730901D01*
X+238386Y+4730901D01*
X+335099Y+4827614D01*
X+335099Y+4964386D01*
X+238386Y+5061099D01*
X+101614Y+5061099D01*
X+86359Y+5045844D01*
X+86359Y+6113640D01*
X+1993801Y+6113640D01*
X+1993801Y+6047727D01*
X+2067727Y+5973801D01*
X+2172273Y+5973801D01*
X+2246199Y+6047727D01*
X+2246199Y+6113640D01*
X+2533801Y+6113640D01*
X+2533801Y+6037727D01*
X+2607727Y+5963801D01*
X+2712273Y+5963801D01*
X+2786199Y+6037727D01*
X+2786199Y+6113640D01*
X+3024234Y+6113640D01*
X+3009501Y+6098907D01*
X+3009501Y+5941093D01*
X+3121093Y+5829501D01*
X+3278907Y+5829501D01*
X+3390499Y+5941093D01*
X+3390499Y+6098907D01*
X+3375766Y+6113640D01*
X+3524234Y+6113640D01*
X+3509501Y+6098907D01*
X+2932201Y+3327205D02*
X+2932201Y+3357799D01*
X+3287799Y+3357799D01*
X+3287799Y+3002201D01*
X+3257205Y+3002201D01*
X+3300499Y+2958907D01*
X+3300499Y+2801093D01*
X+3188907Y+2689501D01*
X+3031093Y+2689501D01*
X+2960000Y+2760594D01*
X+2888907Y+2689501D01*
X+2731093Y+2689501D01*
X+2660000Y+2760594D01*
X+2588907Y+2689501D01*
X+2431093Y+2689501D01*
X+2360000Y+2760594D01*
X+2288907Y+2689501D01*
X+2131093Y+2689501D01*
X+2019501Y+2801093D01*
X+2019501Y+2958907D01*
X+2090594Y+3030000D01*
X+2019501Y+3101093D01*
X+2019501Y+3258907D01*
X+2131093Y+3370499D01*
X+2288907Y+3370499D01*
X+2360000Y+3299406D01*
X+2431093Y+3370499D01*
X+2588907Y+3370499D01*
X+2660000Y+3299406D01*
X+2731093Y+3370499D01*
X+2888907Y+3370499D01*
X+2932201Y+3327205D01*
X+2850499Y+5658907D02*
X+2850499Y+5501093D01*
X+2738907Y+5389501D01*
X+2581093Y+5389501D01*
X+2525000Y+5445594D01*
X+2474406Y+5395000D01*
X+2580499Y+5288907D01*
X+2580499Y+5131093D01*
X+2468907Y+5019501D01*
X+2311093Y+5019501D01*
X+2199501Y+5131093D01*
X+2199501Y+5288907D01*
X+2305594Y+5395000D01*
X+2255000Y+5445594D01*
X+2198907Y+5389501D01*
X+2041093Y+5389501D01*
X+1929501Y+5501093D01*
X+1929501Y+5658907D01*
X+2041093Y+5770499D01*
X+2198907Y+5770499D01*
X+2255000Y+5714406D01*
X+2311093Y+5770499D01*
X+2468907Y+5770499D01*
X+2525000Y+5714406D01*
X+2581093Y+5770499D01*
X+2738907Y+5770499D01*
X+2850499Y+5658907D01*
X+675099Y+4827614D02*
X+675099Y+4964386D01*
X+578386Y+5061099D01*
X+441614Y+5061099D01*
X+344901Y+4964386D01*
X+344901Y+4827614D01*
X+441614Y+4730901D01*
X+578386Y+4730901D01*
X+675099Y+4827614D01*
X+1035099Y+4827614D02*
X+1035099Y+4964386D01*
X+938386Y+5061099D01*
X+801614Y+5061099D01*
X+704901Y+4964386D01*
X+704901Y+4827614D01*
X+801614Y+4730901D01*
X+938386Y+4730901D01*
X+1035099Y+4827614D01*
X+1395099Y+4827614D02*
X+1395099Y+4964386D01*
X+1298386Y+5061099D01*
X+1161614Y+5061099D01*
X+1064901Y+4964386D01*
X+1064901Y+4827614D01*
X+1161614Y+4730901D01*
X+1298386Y+4730901D01*
X+1395099Y+4827614D01*
X+475099Y+5371614D02*
X+475099Y+5508386D01*
X+378386Y+5605099D01*
X+241614Y+5605099D01*
X+144901Y+5508386D01*
X+144901Y+5371614D01*
X+241614Y+5274901D01*
X+378386Y+5274901D01*
X+475099Y+5371614D01*
X+475099Y+5879614D02*
X+475099Y+6016386D01*
X+378386Y+6113099D01*
X+241614Y+6113099D01*
X+144901Y+6016386D01*
X+144901Y+5879614D01*
X+241614Y+5782901D01*
X+378386Y+5782901D01*
X+475099Y+5879614D01*
X+865099Y+5361614D02*
X+865099Y+5498386D01*
X+768386Y+5595099D01*
X+631614Y+5595099D01*
X+534901Y+5498386D01*
X+534901Y+5361614D01*
X+631614Y+5264901D01*
X+768386Y+5264901D01*
X+865099Y+5361614D01*
X+865099Y+5869614D02*
X+865099Y+6006386D01*
X+768386Y+6103099D01*
X+631614Y+6103099D01*
X+534901Y+6006386D01*
X+534901Y+5869614D01*
X+631614Y+5772901D01*
X+768386Y+5772901D01*
X+865099Y+5869614D01*
X+1225099Y+5361614D02*
X+1225099Y+5498386D01*
X+1128386Y+5595099D01*
X+991614Y+5595099D01*
X+894901Y+5498386D01*
X+894901Y+5361614D01*
X+991614Y+5264901D01*
X+1128386Y+5264901D01*
X+1225099Y+5361614D01*
X+1225099Y+5869614D02*
X+1225099Y+6006386D01*
X+1128386Y+6103099D01*
X+991614Y+6103099D01*
X+894901Y+6006386D01*
X+894901Y+5869614D01*
X+991614Y+5772901D01*
X+1128386Y+5772901D01*
X+1225099Y+5869614D01*
X+1575099Y+5361614D02*
X+1575099Y+5498386D01*
X+1478386Y+5595099D01*
X+1341614Y+5595099D01*
X+1244901Y+5498386D01*
X+1244901Y+5361614D01*
X+1341614Y+5264901D01*
X+1478386Y+5264901D01*
X+1575099Y+5361614D01*
X+1575099Y+5869614D02*
X+1575099Y+6006386D01*
X+1478386Y+6103099D01*
X+1341614Y+6103099D01*
X+1244901Y+6006386D01*
X+1244901Y+5869614D01*
X+1341614Y+5772901D01*
X+1478386Y+5772901D01*
X+1575099Y+5869614D01*
X+2164901Y+1220386D02*
X+2164901Y+1083614D01*
X+2261614Y+986901D01*
X+2398386Y+986901D01*
X+2495099Y+1083614D01*
X+2495099Y+1220386D01*
X+2398386Y+1317099D01*
X+2261614Y+1317099D01*
X+2164901Y+1220386D01*
X+3714901Y+1012386D02*
X+3714901Y+875614D01*
X+3811614Y+778901D01*
X+3948386Y+778901D01*
X+4045099Y+875614D01*
X+4045099Y+1012386D01*
X+3948386Y+1109099D01*
X+3811614Y+1109099D01*
X+3714901Y+1012386D01*
X+3304901Y+1220386D02*
X+3304901Y+1083614D01*
X+3401614Y+986901D01*
X+3538386Y+986901D01*
X+3635099Y+1083614D01*
X+3635099Y+1220386D01*
X+3538386Y+1317099D01*
X+3401614Y+1317099D01*
X+3304901Y+1220386D01*
X+2884901Y+1012386D02*
X+2884901Y+875614D01*
X+2981614Y+778901D01*
X+3118386Y+778901D01*
X+3215099Y+875614D01*
X+3215099Y+1012386D01*
X+3118386Y+1109099D01*
X+2981614Y+1109099D01*
X+2884901Y+1012386D01*
X+2544901Y+1220386D02*
X+2544901Y+1083614D01*
X+2641614Y+986901D01*
X+2778386Y+986901D01*
X+2875099Y+1083614D01*
X+2875099Y+1220386D01*
X+2778386Y+1317099D01*
X+2641614Y+1317099D01*
X+2544901Y+1220386D01*
X+4030499Y+4308907D02*
X+4030499Y+4151093D01*
X+3996446Y+4117040D01*
X+4005099Y+4108386D01*
X+4005099Y+3971614D01*
X+3908386Y+3874901D01*
X+3771614Y+3874901D01*
X+3674901Y+3971614D01*
X+3674901Y+4108386D01*
X+3683554Y+4117040D01*
X+3649501Y+4151093D01*
X+3649501Y+4308907D01*
X+3761093Y+4420499D01*
X+3918907Y+4420499D01*
X+4030499Y+4308907D01*
X+3857799Y+5183647D02*
X+3857799Y+5036353D01*
X+3804946Y+4983500D01*
X+3857799Y+4930647D01*
X+3857799Y+4783353D01*
X+3807946Y+4733500D01*
X+3857799Y+4683647D01*
X+3857799Y+4536353D01*
X+3753647Y+4432201D01*
X+3606353Y+4432201D01*
X+3502201Y+4536353D01*
X+3502201Y+4683647D01*
X+3552054Y+4733500D01*
X+3502201Y+4783353D01*
X+3502201Y+4930647D01*
X+3555054Y+4983500D01*
X+3502201Y+5036353D01*
X+3502201Y+5183647D01*
X+3606353Y+5287799D01*
X+3753647Y+5287799D01*
X+3857799Y+5183647D01*
X+3674901Y+3600386D02*
X+3674901Y+3463614D01*
X+3771614Y+3366901D01*
X+3908386Y+3366901D01*
X+4005099Y+3463614D01*
X+4005099Y+3600386D01*
X+3908386Y+3697099D01*
X+3771614Y+3697099D01*
X+3674901Y+3600386D01*
X+2614901Y+5128386D02*
X+2614901Y+4991614D01*
X+2711614Y+4894901D01*
X+2848386Y+4894901D01*
X+2945099Y+4991614D01*
X+2945099Y+5128386D01*
X+2848386Y+5225099D01*
X+2711614Y+5225099D01*
X+2614901Y+5128386D01*
X+555099Y+2508386D02*
X+555099Y+2418583D01*
X+597083Y+2376599D01*
X+652771Y+2376599D01*
X+702371Y+2426199D01*
X+827629Y+2426199D01*
X+916199Y+2337629D01*
X+916199Y+2212371D01*
X+827629Y+2123801D01*
X+702371Y+2123801D01*
X+652771Y+2173401D01*
X+512917Y+2173401D01*
X+411417Y+2274901D01*
X+321614Y+2274901D01*
X+224901Y+2371614D01*
X+224901Y+2508386D01*
X+321614Y+2605099D01*
X+458386Y+2605099D01*
X+555099Y+2508386D01*
X+224901Y+1492386D02*
X+224901Y+1355614D01*
X+321614Y+1258901D01*
X+458386Y+1258901D01*
X+555099Y+1355614D01*
X+555099Y+1492386D01*
X+458386Y+1589099D01*
X+321614Y+1589099D01*
X+224901Y+1492386D01*
X+4019501Y+5010000D02*
X+4210000Y+5010000D01*
X+4210000Y+5200499D02*
X+4210000Y+5010000D01*
X+2510000Y+2689501D02*
X+2510000Y+2880000D01*
X+2019501Y+2880000D02*
X+2210000Y+2880000D01*
X+2210000Y+2689501D02*
X+2210000Y+2880000D01*
X+2005400Y+327799D02*
X+2005400Y+150000D01*
X+1827601Y+150000D02*
X+2005400Y+150000D01*
X+170000Y+4730901D02*
X+170000Y+4896000D01*
X+170000Y+5061099D02*
X+170000Y+4896000D01*
X+335099Y+4896000D02*
X+170000Y+4896000D01*
X+510000Y+4730901D02*
X+510000Y+4896000D01*
X+510000Y+5061099D02*
X+510000Y+4896000D01*
X+675099Y+4896000D02*
X+510000Y+4896000D01*
X+344901Y+4896000D02*
X+510000Y+4896000D01*
X+870000Y+4730901D02*
X+870000Y+4896000D01*
X+870000Y+5061099D02*
X+870000Y+4896000D01*
X+1035099Y+4896000D02*
X+870000Y+4896000D01*
X+704901Y+4896000D02*
X+870000Y+4896000D01*
X+1230000Y+4730901D02*
X+1230000Y+4896000D01*
X+1230000Y+5061099D02*
X+1230000Y+4896000D01*
X+1395099Y+4896000D02*
X+1230000Y+4896000D01*
X+1064901Y+4896000D02*
X+1230000Y+4896000D01*
X+310000Y+5782901D02*
X+310000Y+5948000D01*
X+310000Y+6113099D02*
X+310000Y+5948000D01*
X+475099Y+5948000D02*
X+310000Y+5948000D01*
X+144901Y+5948000D02*
X+310000Y+5948000D01*
X+700000Y+5772901D02*
X+700000Y+5938000D01*
X+700000Y+6103099D02*
X+700000Y+5938000D01*
X+865099Y+5938000D02*
X+700000Y+5938000D01*
X+534901Y+5938000D02*
X+700000Y+5938000D01*
X+1060000Y+5772901D02*
X+1060000Y+5938000D01*
X+1060000Y+6103099D02*
X+1060000Y+5938000D01*
X+1225099Y+5938000D02*
X+1060000Y+5938000D01*
X+894901Y+5938000D02*
X+1060000Y+5938000D01*
X+1410000Y+5772901D02*
X+1410000Y+5938000D01*
X+1410000Y+6103099D02*
X+1410000Y+5938000D01*
X+1575099Y+5938000D02*
X+1410000Y+5938000D01*
X+1244901Y+5938000D02*
X+1410000Y+5938000D01*
X+2330000Y+1317099D02*
X+2330000Y+1152000D01*
X+2330000Y+986901D02*
X+2330000Y+1152000D01*
X+2164901Y+1152000D02*
X+2330000Y+1152000D01*
X+2495099Y+1152000D02*
X+2330000Y+1152000D01*
X+3880000Y+1109099D02*
X+3880000Y+944000D01*
X+3880000Y+778901D02*
X+3880000Y+944000D01*
X+3714901Y+944000D02*
X+3880000Y+944000D01*
X+4045099Y+944000D02*
X+3880000Y+944000D01*
X+3470000Y+1317099D02*
X+3470000Y+1152000D01*
X+3470000Y+986901D02*
X+3470000Y+1152000D01*
X+3304901Y+1152000D02*
X+3470000Y+1152000D01*
X+3635099Y+1152000D02*
X+3470000Y+1152000D01*
X+3050000Y+1109099D02*
X+3050000Y+944000D01*
X+3050000Y+778901D02*
X+3050000Y+944000D01*
X+2884901Y+944000D02*
X+3050000Y+944000D01*
X+3215099Y+944000D02*
X+3050000Y+944000D01*
X+2710000Y+1317099D02*
X+2710000Y+1152000D01*
X+2710000Y+986901D02*
X+2710000Y+1152000D01*
X+2544901Y+1152000D02*
X+2710000Y+1152000D01*
X+2875099Y+1152000D02*
X+2710000Y+1152000D01*
X+3509501Y+6020000D02*
X+3700000Y+6020000D01*
X+3700000Y+5829501D02*
X+3700000Y+6020000D01*
X+3680000Y+5287799D02*
X+3680000Y+5110000D01*
X+3857799Y+5110000D02*
X+3680000Y+5110000D01*
X+3502201Y+5110000D02*
X+3680000Y+5110000D01*
X+3840000Y+3697099D02*
X+3840000Y+3532000D01*
X+3840000Y+3366901D02*
X+3840000Y+3532000D01*
X+3674901Y+3532000D02*
X+3840000Y+3532000D01*
X+4005099Y+3532000D02*
X+3840000Y+3532000D01*
X+2780000Y+4717099D02*
X+2780000Y+4552000D01*
X+2614901Y+4552000D02*
X+2780000Y+4552000D01*
X+2945099Y+4552000D02*
X+2780000Y+4552000D01*
X+390000Y+1589099D02*
X+390000Y+1424000D01*
X+390000Y+1258901D02*
X+390000Y+1424000D01*
X+224901Y+1424000D02*
X+390000Y+1424000D01*
X+555099Y+1424000D02*
X+390000Y+1424000D01*
D13*
X+4210000Y+5010000D03*
D14*
X+4210000Y+4756000D03*
X+4210000Y+4502000D03*
X+4210000Y+4248000D03*
X+4210000Y+3994000D03*
X+4210000Y+3740000D03*
X+4210000Y+3486000D03*
X+4210000Y+3232000D03*
X+4210000Y+2978000D03*
X+4210000Y+2724000D03*
X+4210000Y+2470000D03*
X+4210000Y+2216000D03*
X+4210000Y+1962000D03*
X+4210000Y+1708000D03*
X+4210000Y+1454000D03*
X+4210000Y+1200000D03*
X+4210000Y+946000D03*
X+4210000Y+692000D03*
X+4210000Y+438000D03*
D13*
X+1710000Y+438000D03*
D14*
X+1710000Y+692000D03*
X+1710000Y+946000D03*
X+1710000Y+1200000D03*
X+1710000Y+1454000D03*
X+1710000Y+1708000D03*
X+1710000Y+1962000D03*
X+1710000Y+2216000D03*
X+1710000Y+2470000D03*
X+1710000Y+2724000D03*
X+1710000Y+2978000D03*
X+1710000Y+3232000D03*
X+1710000Y+3486000D03*
X+1710000Y+3740000D03*
X+1710000Y+3994000D03*
X+1710000Y+4248000D03*
X+1710000Y+4502000D03*
X+1710000Y+4756000D03*
D13*
X+1710000Y+5010000D03*
D15*
X+1250000Y+3180000D03*
D13*
X+950000Y+3180000D03*
X+650000Y+3180000D03*
X+350000Y+3180000D03*
X+1250000Y+2880000D03*
X+950000Y+2880000D03*
X+650000Y+2880000D03*
X+350000Y+2880000D03*
D15*
X+3110000Y+3180000D03*
D13*
X+2810000Y+3180000D03*
X+2510000Y+3180000D03*
X+2210000Y+3180000D03*
X+3110000Y+2880000D03*
X+2810000Y+2880000D03*
X+2510000Y+2880000D03*
X+2210000Y+2880000D03*
D16*
X+2005400Y+150000D03*
D14*
X+2265400Y+150000D03*
X+2515400Y+150000D03*
X+2765400Y+150000D03*
X+3025400Y+150000D03*
X+3275400Y+150000D03*
X+3525400Y+150000D03*
X+3785400Y+150000D03*
D16*
X+2005400Y+2450000D03*
X+2265400Y+2450000D03*
D14*
X+2515400Y+2450000D03*
X+2765400Y+2450000D03*
X+3025400Y+2450000D03*
X+3275400Y+2450000D03*
X+3525400Y+2450000D03*
X+3785400Y+2450000D03*
D13*
X+2120000Y+5580000D03*
X+2390000Y+5580000D03*
X+2660000Y+5580000D03*
D17*
X+170000Y+3880000D03*
X+170000Y+4896000D03*
X+510000Y+3880000D03*
X+510000Y+4896000D03*
X+870000Y+3880000D03*
X+870000Y+4896000D03*
X+1230000Y+3880000D03*
X+1230000Y+4896000D03*
X+310000Y+5440000D03*
X+310000Y+5948000D03*
X+700000Y+5430000D03*
X+700000Y+5938000D03*
X+1060000Y+5430000D03*
X+1060000Y+5938000D03*
X+1410000Y+5430000D03*
X+1410000Y+5938000D03*
X+2330000Y+1660000D03*
X+2330000Y+1152000D03*
X+3880000Y+1960000D03*
X+3880000Y+944000D03*
X+3470000Y+1660000D03*
X+3470000Y+1152000D03*
X+3050000Y+1960000D03*
X+3050000Y+944000D03*
X+2710000Y+1660000D03*
X+2710000Y+1152000D03*
D13*
X+3200000Y+6020000D03*
X+3700000Y+6020000D03*
X+2390000Y+4110000D03*
X+2390000Y+5210000D03*
X+3840000Y+4230000D03*
X+2740000Y+4230000D03*
D16*
X+3680000Y+5110000D03*
X+3680000Y+4857000D03*
X+3680000Y+4610000D03*
D17*
X+3840000Y+4040000D03*
X+3840000Y+3532000D03*
X+2780000Y+5060000D03*
X+2780000Y+4552000D03*
D18*
X+1215000Y+2275000D03*
D19*
X+1215000Y+1625000D03*
X+765000Y+2275000D03*
X+765000Y+1625000D03*
D17*
X+390000Y+2440000D03*
X+390000Y+1424000D03*
D20*
X+0Y+0D02*
X+0Y+6200000D01*
X+3900000Y+6200000D01*
X+3900000Y+5500000D01*
X+4400000Y+5500000D01*
X+4400000Y+0D01*
D21*
X+0Y-320000D02*
X+4400000Y-320000D01*
X+0Y-320000D02*
X+127000Y-447000D01*
X+0Y-320000D02*
X+127000Y-193000D01*
X+4400000Y-320000D02*
X+4273000Y-193000D01*
X+4400000Y-320000D02*
X+4273000Y-447000D01*
X+2231750Y-320000D02*
X+2231641Y-317366D01*
X+2230751Y-312097D01*
X+2228889Y-306828D01*
X+2225846Y-301559D01*
X+2221191Y-296357D01*
X+2215922Y-292531D01*
X+2210653Y-290091D01*
X+2205384Y-288710D01*
X+2200115Y-288250D01*
X+2200000Y-288250D01*
X+2168250Y-320000D02*
X+2168359Y-317366D01*
X+2169249Y-312097D01*
X+2171111Y-306828D01*
X+2174154Y-301559D01*
X+2178809Y-296357D01*
X+2184078Y-292531D01*
X+2189347Y-290091D01*
X+2194616Y-288710D01*
X+2199885Y-288250D01*
X+2200000Y-288250D01*
X+2168250Y-320000D02*
X+2168359Y-322634D01*
X+2169249Y-327903D01*
X+2171111Y-333172D01*
X+2174154Y-338441D01*
X+2178809Y-343643D01*
X+2184078Y-347469D01*
X+2189347Y-349909D01*
X+2194616Y-351290D01*
X+2199885Y-351750D01*
X+2200000Y-351750D01*
X+2231750Y-320000D02*
X+2231641Y-322634D01*
X+2230751Y-327903D01*
X+2228889Y-333172D01*
X+2225846Y-338441D01*
X+2221191Y-343643D01*
X+2215922Y-347469D01*
X+2210653Y-349909D01*
X+2205384Y-351290D01*
X+2200115Y-351750D01*
X+2200000Y-351750D01*
X+2041250Y-248880D02*
X+1946000Y-248880D01*
X+2009500Y-187920D01*
X+2009500Y-279360D01*
X+2168250Y-248880D02*
X+2073000Y-248880D01*
X+2136500Y-187920D01*
X+2136500Y-279360D01*
X+2200000Y-279360D02*
X+2200000Y-218400D01*
X+2200000Y-233640D02*
X+2215875Y-218400D01*
X+2247625Y-248880D01*
X+2279375Y-218400D01*
X+2295250Y-233640D01*
X+2295250Y-279360D01*
X+2327000Y-279360D02*
X+2327000Y-218400D01*
X+2327000Y-233640D02*
X+2342875Y-218400D01*
X+2374625Y-248880D01*
X+2406375Y-218400D01*
X+2422250Y-233640D01*
X+2422250Y-279360D01*
D20*
X+0Y+0D02*
X+4400000Y+0D01*
D21*
X-300000Y+0D02*
X-300000Y+6200000D01*
X-300000Y+0D02*
X-173000Y+127000D01*
X-300000Y+0D02*
X-427000Y+127000D01*
X-300000Y+6200000D02*
X-427000Y+6073000D01*
X-300000Y+6200000D02*
X-173000Y+6073000D01*
X-268250Y+3100000D02*
X-268359Y+3102634D01*
X-269249Y+3107903D01*
X-271111Y+3113172D01*
X-274154Y+3118441D01*
X-278809Y+3123643D01*
X-284078Y+3127469D01*
X-289347Y+3129909D01*
X-294616Y+3131290D01*
X-299885Y+3131750D01*
X-300000Y+3131750D01*
X-331750Y+3100000D02*
X-331641Y+3102634D01*
X-330751Y+3107903D01*
X-328889Y+3113172D01*
X-325846Y+3118441D01*
X-321191Y+3123643D01*
X-315922Y+3127469D01*
X-310653Y+3129909D01*
X-305384Y+3131290D01*
X-300115Y+3131750D01*
X-300000Y+3131750D01*
X-331750Y+3100000D02*
X-331641Y+3097366D01*
X-330751Y+3092097D01*
X-328889Y+3086828D01*
X-325846Y+3081559D01*
X-321191Y+3076357D01*
X-315922Y+3072531D01*
X-310653Y+3070091D01*
X-305384Y+3068710D01*
X-300115Y+3068250D01*
X-300000Y+3068250D01*
X-268250Y+3100000D02*
X-268359Y+3097366D01*
X-269249Y+3092097D01*
X-271111Y+3086828D01*
X-274154Y+3081559D01*
X-278809Y+3076357D01*
X-284078Y+3072531D01*
X-289347Y+3070091D01*
X-294616Y+3068710D01*
X-299885Y+3068250D01*
X-300000Y+3068250D01*
X-416840Y+2941250D02*
X-432080Y+2925375D01*
X-432080Y+2877750D01*
X-416840Y+2861875D01*
X-355880Y+2861875D01*
X-340640Y+2877750D01*
X-340640Y+2925375D01*
X-355880Y+2941250D01*
X-371120Y+2941250D01*
X-386360Y+2925375D01*
X-386360Y+2861875D01*
X-416840Y+2988875D02*
X-432080Y+3004750D01*
X-432080Y+3052375D01*
X-416840Y+3068250D01*
X-401600Y+3068250D01*
X-386360Y+3052375D01*
X-386360Y+3004750D01*
X-371120Y+2988875D01*
X-340640Y+2988875D01*
X-340640Y+3068250D01*
X-340640Y+3100000D02*
X-401600Y+3100000D01*
X-386360Y+3100000D02*
X-401600Y+3115875D01*
X-371120Y+3147625D01*
X-401600Y+3179375D01*
X-386360Y+3195250D01*
X-340640Y+3195250D01*
X-340640Y+3227000D02*
X-401600Y+3227000D01*
X-386360Y+3227000D02*
X-401600Y+3242875D01*
X-371120Y+3274625D01*
X-401600Y+3306375D01*
X-386360Y+3322250D01*
X-340640Y+3322250D01*
X+4600000Y+5500000D02*
X+4600000Y+0D01*
X+4600000Y+5500000D02*
X+4473000Y+5373000D01*
X+4600000Y+5500000D02*
X+4727000Y+5373000D01*
X+4600000Y+0D02*
X+4727000Y+127000D01*
X+4600000Y+0D02*
X+4473000Y+127000D01*
X+4631750Y+2750000D02*
X+4631641Y+2752634D01*
X+4630751Y+2757903D01*
X+4628889Y+2763172D01*
X+4625846Y+2768441D01*
X+4621191Y+2773643D01*
X+4615922Y+2777469D01*
X+4610653Y+2779909D01*
X+4605384Y+2781290D01*
X+4600115Y+2781750D01*
X+4600000Y+2781750D01*
X+4568250Y+2750000D02*
X+4568359Y+2752634D01*
X+4569249Y+2757903D01*
X+4571111Y+2763172D01*
X+4574154Y+2768441D01*
X+4578809Y+2773643D01*
X+4584078Y+2777469D01*
X+4589347Y+2779909D01*
X+4594616Y+2781290D01*
X+4599885Y+2781750D01*
X+4600000Y+2781750D01*
X+4568250Y+2750000D02*
X+4568359Y+2747366D01*
X+4569249Y+2742097D01*
X+4571111Y+2736828D01*
X+4574154Y+2731559D01*
X+4578809Y+2726357D01*
X+4584078Y+2722531D01*
X+4589347Y+2720091D01*
X+4594616Y+2718710D01*
X+4599885Y+2718250D01*
X+4600000Y+2718250D01*
X+4631750Y+2750000D02*
X+4631641Y+2747366D01*
X+4630751Y+2742097D01*
X+4628889Y+2736828D01*
X+4625846Y+2731559D01*
X+4621191Y+2726357D01*
X+4615922Y+2722531D01*
X+4610653Y+2720091D01*
X+4605384Y+2718710D01*
X+4600115Y+2718250D01*
X+4600000Y+2718250D01*
X+4732080Y+2908750D02*
X+4732080Y+2988125D01*
X+4701600Y+2988125D01*
X+4701600Y+2924625D01*
X+4686360Y+2908750D01*
X+4655880Y+2908750D01*
X+4640640Y+2924625D01*
X+4640640Y+2972250D01*
X+4655880Y+2988125D01*
X+4732080Y+2781750D02*
X+4732080Y+2861125D01*
X+4701600Y+2861125D01*
X+4701600Y+2797625D01*
X+4686360Y+2781750D01*
X+4655880Y+2781750D01*
X+4640640Y+2797625D01*
X+4640640Y+2845250D01*
X+4655880Y+2861125D01*
X+4640640Y+2750000D02*
X+4701600Y+2750000D01*
X+4686360Y+2750000D02*
X+4701600Y+2734125D01*
X+4671120Y+2702375D01*
X+4701600Y+2670625D01*
X+4686360Y+2654750D01*
X+4640640Y+2654750D01*
X+4640640Y+2623000D02*
X+4701600Y+2623000D01*
X+4686360Y+2623000D02*
X+4701600Y+2607125D01*
X+4671120Y+2575375D01*
X+4701600Y+2543625D01*
X+4686360Y+2527750D01*
X+4640640Y+2527750D01*
M02*
