G04 PROTEUS GERBER X2 FILE*
%TF.GenerationSoftware,Labcenter,Proteus,8.12-SP0-Build30713*%
%TF.CreationDate,2023-07-17T11:58:22+00:00*%
%TF.FileFunction,Plated,1,2,PTH*%
%TF.FilePolarity,Positive*%
%TF.Part,Single*%
%TF.SameCoordinates,{929d0d33-b1dc-492e-9cfe-804fc5f4831e}*%
%FSLAX45Y45*%
%MOMM*%
G01*
%TA.AperFunction,ComponentDrill*%
%ADD49C,1.016000*%
%TA.AperFunction,MechanicalDrill*%
%ADD50C,1.000000*%
%TA.AperFunction,ComponentDrill*%
%ADD51C,0.762000*%
%ADD52C,0.838200*%
%TA.AperFunction,ComponentDrill*%
%ADD53C,0.965200*%
%TD.AperFunction*%
D49*
X+4210000Y+5010000D03*
X+4210000Y+4756000D03*
X+4210000Y+4502000D03*
X+4210000Y+4248000D03*
X+4210000Y+3994000D03*
X+4210000Y+3740000D03*
X+4210000Y+3486000D03*
X+4210000Y+3232000D03*
X+4210000Y+2978000D03*
X+4210000Y+2724000D03*
X+4210000Y+2470000D03*
X+4210000Y+2216000D03*
X+4210000Y+1962000D03*
X+4210000Y+1708000D03*
X+4210000Y+1454000D03*
X+4210000Y+1200000D03*
X+4210000Y+946000D03*
X+4210000Y+692000D03*
X+4210000Y+438000D03*
X+1710000Y+438000D03*
X+1710000Y+692000D03*
X+1710000Y+946000D03*
X+1710000Y+1200000D03*
X+1710000Y+1454000D03*
X+1710000Y+1708000D03*
X+1710000Y+1962000D03*
X+1710000Y+2216000D03*
X+1710000Y+2470000D03*
X+1710000Y+2724000D03*
X+1710000Y+2978000D03*
X+1710000Y+3232000D03*
X+1710000Y+3486000D03*
X+1710000Y+3740000D03*
X+1710000Y+3994000D03*
X+1710000Y+4248000D03*
X+1710000Y+4502000D03*
X+1710000Y+4756000D03*
X+1710000Y+5010000D03*
X+1250000Y+3180000D03*
X+950000Y+3180000D03*
X+650000Y+3180000D03*
X+350000Y+3180000D03*
X+1250000Y+2880000D03*
X+950000Y+2880000D03*
X+650000Y+2880000D03*
X+350000Y+2880000D03*
X+3110000Y+3180000D03*
X+2810000Y+3180000D03*
X+2510000Y+3180000D03*
X+2210000Y+3180000D03*
X+3110000Y+2880000D03*
X+2810000Y+2880000D03*
X+2510000Y+2880000D03*
X+2210000Y+2880000D03*
X+2005400Y+150000D03*
X+2265400Y+150000D03*
X+2515400Y+150000D03*
X+2765400Y+150000D03*
X+3025400Y+150000D03*
X+3275400Y+150000D03*
X+3525400Y+150000D03*
X+3785400Y+150000D03*
X+2005400Y+2450000D03*
X+2265400Y+2450000D03*
X+2515400Y+2450000D03*
X+2765400Y+2450000D03*
X+3025400Y+2450000D03*
X+3275400Y+2450000D03*
X+3525400Y+2450000D03*
X+3785400Y+2450000D03*
X+2120000Y+5580000D03*
X+2390000Y+5580000D03*
X+2660000Y+5580000D03*
D50*
X+2120000Y+6100000D03*
X+2660000Y+6090000D03*
D51*
X+170000Y+3880000D03*
X+170000Y+4896000D03*
X+510000Y+3880000D03*
X+510000Y+4896000D03*
X+870000Y+3880000D03*
X+870000Y+4896000D03*
X+1230000Y+3880000D03*
X+1230000Y+4896000D03*
X+310000Y+5440000D03*
X+310000Y+5948000D03*
X+700000Y+5430000D03*
X+700000Y+5938000D03*
X+1060000Y+5430000D03*
X+1060000Y+5938000D03*
X+1410000Y+5430000D03*
X+1410000Y+5938000D03*
X+2330000Y+1660000D03*
X+2330000Y+1152000D03*
X+3880000Y+1960000D03*
X+3880000Y+944000D03*
X+3470000Y+1660000D03*
X+3470000Y+1152000D03*
X+3050000Y+1960000D03*
X+3050000Y+944000D03*
X+2710000Y+1660000D03*
X+2710000Y+1152000D03*
D52*
X+3200000Y+6020000D03*
X+3700000Y+6020000D03*
D49*
X+2390000Y+4110000D03*
X+2390000Y+5210000D03*
X+3840000Y+4230000D03*
X+2740000Y+4230000D03*
D51*
X+3680000Y+5110000D03*
X+3680000Y+4857000D03*
X+3680000Y+4610000D03*
X+3840000Y+4040000D03*
X+3840000Y+3532000D03*
X+2780000Y+5060000D03*
X+2780000Y+4552000D03*
D53*
X+1215000Y+2275000D03*
X+1215000Y+1625000D03*
X+765000Y+2275000D03*
X+765000Y+1625000D03*
D51*
X+390000Y+2440000D03*
X+390000Y+1424000D03*
M02*
