G04 PROTEUS GERBER X2 FILE*
%TF.GenerationSoftware,Labcenter,Proteus,8.12-SP0-Build30713*%
%TF.CreationDate,2023-07-17T11:58:22+00:00*%
%TF.FileFunction,Legend,Top*%
%TF.FilePolarity,Positive*%
%TF.Part,Single*%
%TF.SameCoordinates,{929d0d33-b1dc-492e-9cfe-804fc5f4831e}*%
%FSLAX45Y45*%
%MOMM*%
G01*
%TA.AperFunction,Material*%
%ADD22C,0.127000*%
%ADD23C,0.203200*%
%TA.AperFunction,Profile*%
%ADD20C,0.203200*%
%TA.AperFunction,NonMaterial*%
%ADD21C,0.203200*%
%TA.AperFunction,Material*%
%ADD24C,0.120000*%
%ADD25C,0.200000*%
%TD.AperFunction*%
D22*
X+1610000Y+5474000D02*
X+1610000Y-26000D01*
X+1610000Y+5474000D02*
X+4350000Y+5474000D01*
X+4350000Y-26000D01*
X+1610000Y-26000D02*
X+4350000Y-26000D01*
D23*
X+2848000Y+5602270D02*
X+2848000Y+5526070D01*
X+2863875Y+5510830D01*
X+2927375Y+5510830D01*
X+2943250Y+5526070D01*
X+2943250Y+5602270D01*
X+2990875Y+5587030D02*
X+3006750Y+5602270D01*
X+3054375Y+5602270D01*
X+3070250Y+5587030D01*
X+3070250Y+5571790D01*
X+3054375Y+5556550D01*
X+3070250Y+5541310D01*
X+3070250Y+5526070D01*
X+3054375Y+5510830D01*
X+3006750Y+5510830D01*
X+2990875Y+5526070D01*
X+3022625Y+5556550D02*
X+3054375Y+5556550D01*
D20*
X+0Y+0D02*
X+0Y+6200000D01*
X+3900000Y+6200000D01*
X+3900000Y+5500000D01*
X+4400000Y+5500000D01*
X+4400000Y+0D01*
D21*
X+0Y-320000D02*
X+4400000Y-320000D01*
X+0Y-320000D02*
X+127000Y-447000D01*
X+0Y-320000D02*
X+127000Y-193000D01*
X+4400000Y-320000D02*
X+4273000Y-193000D01*
X+4400000Y-320000D02*
X+4273000Y-447000D01*
X+2231750Y-320000D02*
X+2231641Y-317366D01*
X+2230751Y-312097D01*
X+2228889Y-306828D01*
X+2225846Y-301559D01*
X+2221191Y-296357D01*
X+2215922Y-292531D01*
X+2210653Y-290091D01*
X+2205384Y-288710D01*
X+2200115Y-288250D01*
X+2200000Y-288250D01*
X+2168250Y-320000D02*
X+2168359Y-317366D01*
X+2169249Y-312097D01*
X+2171111Y-306828D01*
X+2174154Y-301559D01*
X+2178809Y-296357D01*
X+2184078Y-292531D01*
X+2189347Y-290091D01*
X+2194616Y-288710D01*
X+2199885Y-288250D01*
X+2200000Y-288250D01*
X+2168250Y-320000D02*
X+2168359Y-322634D01*
X+2169249Y-327903D01*
X+2171111Y-333172D01*
X+2174154Y-338441D01*
X+2178809Y-343643D01*
X+2184078Y-347469D01*
X+2189347Y-349909D01*
X+2194616Y-351290D01*
X+2199885Y-351750D01*
X+2200000Y-351750D01*
X+2231750Y-320000D02*
X+2231641Y-322634D01*
X+2230751Y-327903D01*
X+2228889Y-333172D01*
X+2225846Y-338441D01*
X+2221191Y-343643D01*
X+2215922Y-347469D01*
X+2210653Y-349909D01*
X+2205384Y-351290D01*
X+2200115Y-351750D01*
X+2200000Y-351750D01*
X+2041250Y-248880D02*
X+1946000Y-248880D01*
X+2009500Y-187920D01*
X+2009500Y-279360D01*
X+2168250Y-248880D02*
X+2073000Y-248880D01*
X+2136500Y-187920D01*
X+2136500Y-279360D01*
X+2200000Y-279360D02*
X+2200000Y-218400D01*
X+2200000Y-233640D02*
X+2215875Y-218400D01*
X+2247625Y-248880D01*
X+2279375Y-218400D01*
X+2295250Y-233640D01*
X+2295250Y-279360D01*
X+2327000Y-279360D02*
X+2327000Y-218400D01*
X+2327000Y-233640D02*
X+2342875Y-218400D01*
X+2374625Y-248880D01*
X+2406375Y-218400D01*
X+2422250Y-233640D01*
X+2422250Y-279360D01*
D20*
X+0Y+0D02*
X+4400000Y+0D01*
D21*
X-300000Y+0D02*
X-300000Y+6200000D01*
X-300000Y+0D02*
X-173000Y+127000D01*
X-300000Y+0D02*
X-427000Y+127000D01*
X-300000Y+6200000D02*
X-427000Y+6073000D01*
X-300000Y+6200000D02*
X-173000Y+6073000D01*
X-268250Y+3100000D02*
X-268359Y+3102634D01*
X-269249Y+3107903D01*
X-271111Y+3113172D01*
X-274154Y+3118441D01*
X-278809Y+3123643D01*
X-284078Y+3127469D01*
X-289347Y+3129909D01*
X-294616Y+3131290D01*
X-299885Y+3131750D01*
X-300000Y+3131750D01*
X-331750Y+3100000D02*
X-331641Y+3102634D01*
X-330751Y+3107903D01*
X-328889Y+3113172D01*
X-325846Y+3118441D01*
X-321191Y+3123643D01*
X-315922Y+3127469D01*
X-310653Y+3129909D01*
X-305384Y+3131290D01*
X-300115Y+3131750D01*
X-300000Y+3131750D01*
X-331750Y+3100000D02*
X-331641Y+3097366D01*
X-330751Y+3092097D01*
X-328889Y+3086828D01*
X-325846Y+3081559D01*
X-321191Y+3076357D01*
X-315922Y+3072531D01*
X-310653Y+3070091D01*
X-305384Y+3068710D01*
X-300115Y+3068250D01*
X-300000Y+3068250D01*
X-268250Y+3100000D02*
X-268359Y+3097366D01*
X-269249Y+3092097D01*
X-271111Y+3086828D01*
X-274154Y+3081559D01*
X-278809Y+3076357D01*
X-284078Y+3072531D01*
X-289347Y+3070091D01*
X-294616Y+3068710D01*
X-299885Y+3068250D01*
X-300000Y+3068250D01*
X-416840Y+2941250D02*
X-432080Y+2925375D01*
X-432080Y+2877750D01*
X-416840Y+2861875D01*
X-355880Y+2861875D01*
X-340640Y+2877750D01*
X-340640Y+2925375D01*
X-355880Y+2941250D01*
X-371120Y+2941250D01*
X-386360Y+2925375D01*
X-386360Y+2861875D01*
X-416840Y+2988875D02*
X-432080Y+3004750D01*
X-432080Y+3052375D01*
X-416840Y+3068250D01*
X-401600Y+3068250D01*
X-386360Y+3052375D01*
X-386360Y+3004750D01*
X-371120Y+2988875D01*
X-340640Y+2988875D01*
X-340640Y+3068250D01*
X-340640Y+3100000D02*
X-401600Y+3100000D01*
X-386360Y+3100000D02*
X-401600Y+3115875D01*
X-371120Y+3147625D01*
X-401600Y+3179375D01*
X-386360Y+3195250D01*
X-340640Y+3195250D01*
X-340640Y+3227000D02*
X-401600Y+3227000D01*
X-386360Y+3227000D02*
X-401600Y+3242875D01*
X-371120Y+3274625D01*
X-401600Y+3306375D01*
X-386360Y+3322250D01*
X-340640Y+3322250D01*
X+4600000Y+5500000D02*
X+4600000Y+0D01*
X+4600000Y+5500000D02*
X+4473000Y+5373000D01*
X+4600000Y+5500000D02*
X+4727000Y+5373000D01*
X+4600000Y+0D02*
X+4727000Y+127000D01*
X+4600000Y+0D02*
X+4473000Y+127000D01*
X+4631750Y+2750000D02*
X+4631641Y+2752634D01*
X+4630751Y+2757903D01*
X+4628889Y+2763172D01*
X+4625846Y+2768441D01*
X+4621191Y+2773643D01*
X+4615922Y+2777469D01*
X+4610653Y+2779909D01*
X+4605384Y+2781290D01*
X+4600115Y+2781750D01*
X+4600000Y+2781750D01*
X+4568250Y+2750000D02*
X+4568359Y+2752634D01*
X+4569249Y+2757903D01*
X+4571111Y+2763172D01*
X+4574154Y+2768441D01*
X+4578809Y+2773643D01*
X+4584078Y+2777469D01*
X+4589347Y+2779909D01*
X+4594616Y+2781290D01*
X+4599885Y+2781750D01*
X+4600000Y+2781750D01*
X+4568250Y+2750000D02*
X+4568359Y+2747366D01*
X+4569249Y+2742097D01*
X+4571111Y+2736828D01*
X+4574154Y+2731559D01*
X+4578809Y+2726357D01*
X+4584078Y+2722531D01*
X+4589347Y+2720091D01*
X+4594616Y+2718710D01*
X+4599885Y+2718250D01*
X+4600000Y+2718250D01*
X+4631750Y+2750000D02*
X+4631641Y+2747366D01*
X+4630751Y+2742097D01*
X+4628889Y+2736828D01*
X+4625846Y+2731559D01*
X+4621191Y+2726357D01*
X+4615922Y+2722531D01*
X+4610653Y+2720091D01*
X+4605384Y+2718710D01*
X+4600115Y+2718250D01*
X+4600000Y+2718250D01*
X+4732080Y+2908750D02*
X+4732080Y+2988125D01*
X+4701600Y+2988125D01*
X+4701600Y+2924625D01*
X+4686360Y+2908750D01*
X+4655880Y+2908750D01*
X+4640640Y+2924625D01*
X+4640640Y+2972250D01*
X+4655880Y+2988125D01*
X+4732080Y+2781750D02*
X+4732080Y+2861125D01*
X+4701600Y+2861125D01*
X+4701600Y+2797625D01*
X+4686360Y+2781750D01*
X+4655880Y+2781750D01*
X+4640640Y+2797625D01*
X+4640640Y+2845250D01*
X+4655880Y+2861125D01*
X+4640640Y+2750000D02*
X+4701600Y+2750000D01*
X+4686360Y+2750000D02*
X+4701600Y+2734125D01*
X+4671120Y+2702375D01*
X+4701600Y+2670625D01*
X+4686360Y+2654750D01*
X+4640640Y+2654750D01*
X+4640640Y+2623000D02*
X+4701600Y+2623000D01*
X+4686360Y+2623000D02*
X+4701600Y+2607125D01*
X+4671120Y+2575375D01*
X+4701600Y+2543625D01*
X+4686360Y+2527750D01*
X+4640640Y+2527750D01*
X+3900000Y+6400000D02*
X+2360000Y+6400000D01*
X+3900000Y+6400000D02*
X+3773000Y+6527000D01*
X+3900000Y+6400000D02*
X+3773000Y+6273000D01*
X+2360000Y+6400000D02*
X+2487000Y+6273000D01*
X+2360000Y+6400000D02*
X+2487000Y+6527000D01*
X+3161750Y+6400000D02*
X+3161641Y+6402634D01*
X+3160751Y+6407903D01*
X+3158889Y+6413172D01*
X+3155846Y+6418441D01*
X+3151191Y+6423643D01*
X+3145922Y+6427469D01*
X+3140653Y+6429909D01*
X+3135384Y+6431290D01*
X+3130115Y+6431750D01*
X+3130000Y+6431750D01*
X+3098250Y+6400000D02*
X+3098359Y+6402634D01*
X+3099249Y+6407903D01*
X+3101111Y+6413172D01*
X+3104154Y+6418441D01*
X+3108809Y+6423643D01*
X+3114078Y+6427469D01*
X+3119347Y+6429909D01*
X+3124616Y+6431290D01*
X+3129885Y+6431750D01*
X+3130000Y+6431750D01*
X+3098250Y+6400000D02*
X+3098359Y+6397366D01*
X+3099249Y+6392097D01*
X+3101111Y+6386828D01*
X+3104154Y+6381559D01*
X+3108809Y+6376357D01*
X+3114078Y+6372531D01*
X+3119347Y+6370091D01*
X+3124616Y+6368710D01*
X+3129885Y+6368250D01*
X+3130000Y+6368250D01*
X+3161750Y+6400000D02*
X+3161641Y+6397366D01*
X+3160751Y+6392097D01*
X+3158889Y+6386828D01*
X+3155846Y+6381559D01*
X+3151191Y+6376357D01*
X+3145922Y+6372531D01*
X+3140653Y+6370091D01*
X+3135384Y+6368710D01*
X+3130115Y+6368250D01*
X+3130000Y+6368250D01*
X+2780750Y+6501600D02*
X+2812500Y+6532080D01*
X+2812500Y+6440640D01*
X+2971250Y+6532080D02*
X+2891875Y+6532080D01*
X+2891875Y+6501600D01*
X+2955375Y+6501600D01*
X+2971250Y+6486360D01*
X+2971250Y+6455880D01*
X+2955375Y+6440640D01*
X+2907750Y+6440640D01*
X+2891875Y+6455880D01*
X+3050625Y+6455880D02*
X+3066500Y+6455880D01*
X+3066500Y+6440640D01*
X+3050625Y+6440640D01*
X+3050625Y+6455880D01*
X+3225250Y+6471120D02*
X+3130000Y+6471120D01*
X+3193500Y+6532080D01*
X+3193500Y+6440640D01*
X+3257000Y+6440640D02*
X+3257000Y+6501600D01*
X+3257000Y+6486360D02*
X+3272875Y+6501600D01*
X+3304625Y+6471120D01*
X+3336375Y+6501600D01*
X+3352250Y+6486360D01*
X+3352250Y+6440640D01*
X+3384000Y+6440640D02*
X+3384000Y+6501600D01*
X+3384000Y+6486360D02*
X+3399875Y+6501600D01*
X+3431625Y+6471120D01*
X+3463375Y+6501600D01*
X+3479250Y+6486360D01*
X+3479250Y+6440640D01*
D23*
X+170000Y+4007000D02*
X+170000Y+4134000D01*
X+106500Y+4134000D02*
X+233500Y+4134000D01*
X+233500Y+4642000D01*
X+106500Y+4642000D01*
X+106500Y+4134000D01*
X+170000Y+4642000D02*
X+170000Y+4769000D01*
X+65860Y+4261000D02*
X-25580Y+4261000D01*
X-25580Y+4340375D01*
X-10340Y+4356250D01*
X+4900Y+4356250D01*
X+20140Y+4340375D01*
X+20140Y+4261000D01*
X+20140Y+4340375D02*
X+35380Y+4356250D01*
X+65860Y+4356250D01*
X+20140Y+4419750D02*
X+4900Y+4403875D01*
X-10340Y+4403875D01*
X-25580Y+4419750D01*
X-25580Y+4467375D01*
X-10340Y+4483250D01*
X+4900Y+4483250D01*
X+20140Y+4467375D01*
X+20140Y+4419750D01*
X+35380Y+4403875D01*
X+50620Y+4403875D01*
X+65860Y+4419750D01*
X+65860Y+4467375D01*
X+50620Y+4483250D01*
X+35380Y+4483250D01*
X+20140Y+4467375D01*
X+510000Y+4007000D02*
X+510000Y+4134000D01*
X+446500Y+4134000D02*
X+573500Y+4134000D01*
X+573500Y+4642000D01*
X+446500Y+4642000D01*
X+446500Y+4134000D01*
X+510000Y+4642000D02*
X+510000Y+4769000D01*
X+405860Y+4261000D02*
X+314420Y+4261000D01*
X+314420Y+4340375D01*
X+329660Y+4356250D01*
X+344900Y+4356250D01*
X+360140Y+4340375D01*
X+360140Y+4261000D01*
X+360140Y+4340375D02*
X+375380Y+4356250D01*
X+405860Y+4356250D01*
X+314420Y+4403875D02*
X+314420Y+4483250D01*
X+329660Y+4483250D01*
X+405860Y+4403875D01*
X+870000Y+4007000D02*
X+870000Y+4134000D01*
X+806500Y+4134000D02*
X+933500Y+4134000D01*
X+933500Y+4642000D01*
X+806500Y+4642000D01*
X+806500Y+4134000D01*
X+870000Y+4642000D02*
X+870000Y+4769000D01*
X+755860Y+4261000D02*
X+664420Y+4261000D01*
X+664420Y+4340375D01*
X+679660Y+4356250D01*
X+694900Y+4356250D01*
X+710140Y+4340375D01*
X+710140Y+4261000D01*
X+710140Y+4340375D02*
X+725380Y+4356250D01*
X+755860Y+4356250D01*
X+679660Y+4483250D02*
X+664420Y+4467375D01*
X+664420Y+4419750D01*
X+679660Y+4403875D01*
X+740620Y+4403875D01*
X+755860Y+4419750D01*
X+755860Y+4467375D01*
X+740620Y+4483250D01*
X+725380Y+4483250D01*
X+710140Y+4467375D01*
X+710140Y+4403875D01*
X+1230000Y+4007000D02*
X+1230000Y+4134000D01*
X+1166500Y+4134000D02*
X+1293500Y+4134000D01*
X+1293500Y+4642000D01*
X+1166500Y+4642000D01*
X+1166500Y+4134000D01*
X+1230000Y+4642000D02*
X+1230000Y+4769000D01*
X+1125860Y+4261000D02*
X+1034420Y+4261000D01*
X+1034420Y+4340375D01*
X+1049660Y+4356250D01*
X+1064900Y+4356250D01*
X+1080140Y+4340375D01*
X+1080140Y+4261000D01*
X+1080140Y+4340375D02*
X+1095380Y+4356250D01*
X+1125860Y+4356250D01*
X+1034420Y+4483250D02*
X+1034420Y+4403875D01*
X+1064900Y+4403875D01*
X+1064900Y+4467375D01*
X+1080140Y+4483250D01*
X+1110620Y+4483250D01*
X+1125860Y+4467375D01*
X+1125860Y+4419750D01*
X+1110620Y+4403875D01*
X+310000Y+5313000D02*
X+284124Y+5320516D01*
X+260152Y+5342170D01*
X+238562Y+5376624D01*
X+219830Y+5422538D01*
X+204431Y+5478571D01*
X+192842Y+5543386D01*
X+185540Y+5615642D01*
X+183000Y+5694000D01*
X+310000Y+6075000D02*
X+284124Y+6067380D01*
X+260152Y+6045472D01*
X+238562Y+6010706D01*
X+219830Y+5964510D01*
X+204431Y+5908312D01*
X+192842Y+5843542D01*
X+185540Y+5771629D01*
X+183000Y+5694000D01*
X+310000Y+6075000D02*
X+335876Y+6067380D01*
X+359848Y+6045472D01*
X+381438Y+6010706D01*
X+400170Y+5964510D01*
X+415569Y+5908312D01*
X+427158Y+5843542D01*
X+434460Y+5771629D01*
X+437000Y+5694000D01*
X+310000Y+5313000D02*
X+335876Y+5320516D01*
X+359848Y+5342170D01*
X+381438Y+5376624D01*
X+400170Y+5422538D01*
X+415569Y+5478571D01*
X+427158Y+5543386D01*
X+434460Y+5615642D01*
X+437000Y+5694000D01*
X+127120Y+5662250D02*
X+142360Y+5646375D01*
X+142360Y+5598750D01*
X+111880Y+5567000D01*
X+81400Y+5567000D01*
X+50920Y+5598750D01*
X+50920Y+5646375D01*
X+66160Y+5662250D01*
X+96640Y+5725750D02*
X+81400Y+5709875D01*
X+66160Y+5709875D01*
X+50920Y+5725750D01*
X+50920Y+5773375D01*
X+66160Y+5789250D01*
X+81400Y+5789250D01*
X+96640Y+5773375D01*
X+96640Y+5725750D01*
X+111880Y+5709875D01*
X+127120Y+5709875D01*
X+142360Y+5725750D01*
X+142360Y+5773375D01*
X+127120Y+5789250D01*
X+111880Y+5789250D01*
X+96640Y+5773375D01*
X+700000Y+5303000D02*
X+674124Y+5310516D01*
X+650152Y+5332170D01*
X+628562Y+5366624D01*
X+609830Y+5412538D01*
X+594431Y+5468571D01*
X+582842Y+5533386D01*
X+575540Y+5605642D01*
X+573000Y+5684000D01*
X+700000Y+6065000D02*
X+674124Y+6057380D01*
X+650152Y+6035472D01*
X+628562Y+6000706D01*
X+609830Y+5954510D01*
X+594431Y+5898312D01*
X+582842Y+5833542D01*
X+575540Y+5761629D01*
X+573000Y+5684000D01*
X+700000Y+6065000D02*
X+725876Y+6057380D01*
X+749848Y+6035472D01*
X+771438Y+6000706D01*
X+790170Y+5954510D01*
X+805569Y+5898312D01*
X+817158Y+5833542D01*
X+824460Y+5761629D01*
X+827000Y+5684000D01*
X+700000Y+5303000D02*
X+725876Y+5310516D01*
X+749848Y+5332170D01*
X+771438Y+5366624D01*
X+790170Y+5412538D01*
X+805569Y+5468571D01*
X+817158Y+5533386D01*
X+824460Y+5605642D01*
X+827000Y+5684000D01*
X+517120Y+5652250D02*
X+532360Y+5636375D01*
X+532360Y+5588750D01*
X+501880Y+5557000D01*
X+471400Y+5557000D01*
X+440920Y+5588750D01*
X+440920Y+5636375D01*
X+456160Y+5652250D01*
X+440920Y+5699875D02*
X+440920Y+5779250D01*
X+456160Y+5779250D01*
X+532360Y+5699875D01*
X+1060000Y+5303000D02*
X+1034124Y+5310516D01*
X+1010152Y+5332170D01*
X+988562Y+5366624D01*
X+969830Y+5412538D01*
X+954431Y+5468571D01*
X+942842Y+5533386D01*
X+935540Y+5605642D01*
X+933000Y+5684000D01*
X+1060000Y+6065000D02*
X+1034124Y+6057380D01*
X+1010152Y+6035472D01*
X+988562Y+6000706D01*
X+969830Y+5954510D01*
X+954431Y+5898312D01*
X+942842Y+5833542D01*
X+935540Y+5761629D01*
X+933000Y+5684000D01*
X+1060000Y+6065000D02*
X+1085876Y+6057380D01*
X+1109848Y+6035472D01*
X+1131438Y+6000706D01*
X+1150170Y+5954510D01*
X+1165569Y+5898312D01*
X+1177158Y+5833542D01*
X+1184460Y+5761629D01*
X+1187000Y+5684000D01*
X+1060000Y+5303000D02*
X+1085876Y+5310516D01*
X+1109848Y+5332170D01*
X+1131438Y+5366624D01*
X+1150170Y+5412538D01*
X+1165569Y+5468571D01*
X+1177158Y+5533386D01*
X+1184460Y+5605642D01*
X+1187000Y+5684000D01*
X+877120Y+5652250D02*
X+892360Y+5636375D01*
X+892360Y+5588750D01*
X+861880Y+5557000D01*
X+831400Y+5557000D01*
X+800920Y+5588750D01*
X+800920Y+5636375D01*
X+816160Y+5652250D01*
X+816160Y+5779250D02*
X+800920Y+5763375D01*
X+800920Y+5715750D01*
X+816160Y+5699875D01*
X+877120Y+5699875D01*
X+892360Y+5715750D01*
X+892360Y+5763375D01*
X+877120Y+5779250D01*
X+861880Y+5779250D01*
X+846640Y+5763375D01*
X+846640Y+5699875D01*
X+1410000Y+5303000D02*
X+1384124Y+5310516D01*
X+1360152Y+5332170D01*
X+1338562Y+5366624D01*
X+1319830Y+5412538D01*
X+1304431Y+5468571D01*
X+1292842Y+5533386D01*
X+1285540Y+5605642D01*
X+1283000Y+5684000D01*
X+1410000Y+6065000D02*
X+1384124Y+6057380D01*
X+1360152Y+6035472D01*
X+1338562Y+6000706D01*
X+1319830Y+5954510D01*
X+1304431Y+5898312D01*
X+1292842Y+5833542D01*
X+1285540Y+5761629D01*
X+1283000Y+5684000D01*
X+1410000Y+6065000D02*
X+1435876Y+6057380D01*
X+1459848Y+6035472D01*
X+1481438Y+6000706D01*
X+1500170Y+5954510D01*
X+1515569Y+5898312D01*
X+1527158Y+5833542D01*
X+1534460Y+5761629D01*
X+1537000Y+5684000D01*
X+1410000Y+5303000D02*
X+1435876Y+5310516D01*
X+1459848Y+5332170D01*
X+1481438Y+5366624D01*
X+1500170Y+5412538D01*
X+1515569Y+5468571D01*
X+1527158Y+5533386D01*
X+1534460Y+5605642D01*
X+1537000Y+5684000D01*
X+1227120Y+5652250D02*
X+1242360Y+5636375D01*
X+1242360Y+5588750D01*
X+1211880Y+5557000D01*
X+1181400Y+5557000D01*
X+1150920Y+5588750D01*
X+1150920Y+5636375D01*
X+1166160Y+5652250D01*
X+1150920Y+5779250D02*
X+1150920Y+5699875D01*
X+1181400Y+5699875D01*
X+1181400Y+5763375D01*
X+1196640Y+5779250D01*
X+1227120Y+5779250D01*
X+1242360Y+5763375D01*
X+1242360Y+5715750D01*
X+1227120Y+5699875D01*
X+2330000Y+1787000D02*
X+2355876Y+1779484D01*
X+2379848Y+1757830D01*
X+2401438Y+1723376D01*
X+2420170Y+1677462D01*
X+2435569Y+1621429D01*
X+2447158Y+1556614D01*
X+2454460Y+1484358D01*
X+2457000Y+1406000D01*
X+2330000Y+1025000D02*
X+2355876Y+1032620D01*
X+2379848Y+1054528D01*
X+2401438Y+1089294D01*
X+2420170Y+1135490D01*
X+2435569Y+1191688D01*
X+2447158Y+1256458D01*
X+2454460Y+1328371D01*
X+2457000Y+1406000D01*
X+2330000Y+1025000D02*
X+2304124Y+1032620D01*
X+2280152Y+1054528D01*
X+2258562Y+1089294D01*
X+2239830Y+1135490D01*
X+2224431Y+1191688D01*
X+2212842Y+1256458D01*
X+2205540Y+1328371D01*
X+2203000Y+1406000D01*
X+2330000Y+1787000D02*
X+2304124Y+1779484D01*
X+2280152Y+1757830D01*
X+2258562Y+1723376D01*
X+2239830Y+1677462D01*
X+2224431Y+1621429D01*
X+2212842Y+1556614D01*
X+2205540Y+1484358D01*
X+2203000Y+1406000D01*
X+2593840Y+1374250D02*
X+2609080Y+1358375D01*
X+2609080Y+1310750D01*
X+2578600Y+1279000D01*
X+2548120Y+1279000D01*
X+2517640Y+1310750D01*
X+2517640Y+1358375D01*
X+2532880Y+1374250D01*
X+2548120Y+1437750D02*
X+2517640Y+1469500D01*
X+2609080Y+1469500D01*
X+3880000Y+1833000D02*
X+3880000Y+1706000D01*
X+3816500Y+1198000D02*
X+3943500Y+1198000D01*
X+3943500Y+1706000D01*
X+3816500Y+1706000D01*
X+3816500Y+1198000D01*
X+3880000Y+1198000D02*
X+3880000Y+1071000D01*
X+4075580Y+1325000D02*
X+3984140Y+1325000D01*
X+3984140Y+1404375D01*
X+3999380Y+1420250D01*
X+4014620Y+1420250D01*
X+4029860Y+1404375D01*
X+4029860Y+1325000D01*
X+4029860Y+1404375D02*
X+4045100Y+1420250D01*
X+4075580Y+1420250D01*
X+3999380Y+1467875D02*
X+3984140Y+1483750D01*
X+3984140Y+1531375D01*
X+3999380Y+1547250D01*
X+4014620Y+1547250D01*
X+4029860Y+1531375D01*
X+4045100Y+1547250D01*
X+4060340Y+1547250D01*
X+4075580Y+1531375D01*
X+4075580Y+1483750D01*
X+4060340Y+1467875D01*
X+4029860Y+1499625D02*
X+4029860Y+1531375D01*
X+3470000Y+1787000D02*
X+3495876Y+1779484D01*
X+3519848Y+1757830D01*
X+3541438Y+1723376D01*
X+3560170Y+1677462D01*
X+3575569Y+1621429D01*
X+3587158Y+1556614D01*
X+3594460Y+1484358D01*
X+3597000Y+1406000D01*
X+3470000Y+1025000D02*
X+3495876Y+1032620D01*
X+3519848Y+1054528D01*
X+3541438Y+1089294D01*
X+3560170Y+1135490D01*
X+3575569Y+1191688D01*
X+3587158Y+1256458D01*
X+3594460Y+1328371D01*
X+3597000Y+1406000D01*
X+3470000Y+1025000D02*
X+3444124Y+1032620D01*
X+3420152Y+1054528D01*
X+3398562Y+1089294D01*
X+3379830Y+1135490D01*
X+3364431Y+1191688D01*
X+3352842Y+1256458D01*
X+3345540Y+1328371D01*
X+3343000Y+1406000D01*
X+3470000Y+1787000D02*
X+3444124Y+1779484D01*
X+3420152Y+1757830D01*
X+3398562Y+1723376D01*
X+3379830Y+1677462D01*
X+3364431Y+1621429D01*
X+3352842Y+1556614D01*
X+3345540Y+1484358D01*
X+3343000Y+1406000D01*
X+3713840Y+1374250D02*
X+3729080Y+1358375D01*
X+3729080Y+1310750D01*
X+3698600Y+1279000D01*
X+3668120Y+1279000D01*
X+3637640Y+1310750D01*
X+3637640Y+1358375D01*
X+3652880Y+1374250D01*
X+3652880Y+1421875D02*
X+3637640Y+1437750D01*
X+3637640Y+1485375D01*
X+3652880Y+1501250D01*
X+3668120Y+1501250D01*
X+3683360Y+1485375D01*
X+3698600Y+1501250D01*
X+3713840Y+1501250D01*
X+3729080Y+1485375D01*
X+3729080Y+1437750D01*
X+3713840Y+1421875D01*
X+3683360Y+1453625D02*
X+3683360Y+1485375D01*
X+3050000Y+1833000D02*
X+3050000Y+1706000D01*
X+2986500Y+1198000D02*
X+3113500Y+1198000D01*
X+3113500Y+1706000D01*
X+2986500Y+1706000D01*
X+2986500Y+1198000D01*
X+3050000Y+1198000D02*
X+3050000Y+1071000D01*
X+3245580Y+1325000D02*
X+3154140Y+1325000D01*
X+3154140Y+1404375D01*
X+3169380Y+1420250D01*
X+3184620Y+1420250D01*
X+3199860Y+1404375D01*
X+3199860Y+1325000D01*
X+3199860Y+1404375D02*
X+3215100Y+1420250D01*
X+3245580Y+1420250D01*
X+3215100Y+1547250D02*
X+3215100Y+1452000D01*
X+3154140Y+1515500D01*
X+3245580Y+1515500D01*
X+2710000Y+1787000D02*
X+2735876Y+1779484D01*
X+2759848Y+1757830D01*
X+2781438Y+1723376D01*
X+2800170Y+1677462D01*
X+2815569Y+1621429D01*
X+2827158Y+1556614D01*
X+2834460Y+1484358D01*
X+2837000Y+1406000D01*
X+2710000Y+1025000D02*
X+2735876Y+1032620D01*
X+2759848Y+1054528D01*
X+2781438Y+1089294D01*
X+2800170Y+1135490D01*
X+2815569Y+1191688D01*
X+2827158Y+1256458D01*
X+2834460Y+1328371D01*
X+2837000Y+1406000D01*
X+2710000Y+1025000D02*
X+2684124Y+1032620D01*
X+2660152Y+1054528D01*
X+2638562Y+1089294D01*
X+2619830Y+1135490D01*
X+2604431Y+1191688D01*
X+2592842Y+1256458D01*
X+2585540Y+1328371D01*
X+2583000Y+1406000D01*
X+2710000Y+1787000D02*
X+2684124Y+1779484D01*
X+2660152Y+1757830D01*
X+2638562Y+1723376D01*
X+2619830Y+1677462D01*
X+2604431Y+1621429D01*
X+2592842Y+1556614D01*
X+2585540Y+1484358D01*
X+2583000Y+1406000D01*
X+2953840Y+1374250D02*
X+2969080Y+1358375D01*
X+2969080Y+1310750D01*
X+2938600Y+1279000D01*
X+2908120Y+1279000D01*
X+2877640Y+1310750D01*
X+2877640Y+1358375D01*
X+2892880Y+1374250D01*
X+2938600Y+1501250D02*
X+2938600Y+1406000D01*
X+2877640Y+1469500D01*
X+2969080Y+1469500D01*
D24*
X+3950000Y+6020000D02*
X+3948469Y+6059100D01*
X+3936046Y+6137301D01*
X+3910194Y+6215502D01*
X+3868434Y+6293703D01*
X+3805195Y+6371904D01*
X+3727002Y+6436257D01*
X+3648801Y+6478779D01*
X+3570600Y+6505238D01*
X+3492399Y+6518199D01*
X+3450000Y+6520000D01*
X+2950000Y+6020000D02*
X+2951531Y+6059100D01*
X+2963954Y+6137301D01*
X+2989806Y+6215502D01*
X+3031566Y+6293703D01*
X+3094805Y+6371904D01*
X+3172998Y+6436257D01*
X+3251199Y+6478779D01*
X+3329400Y+6505238D01*
X+3407601Y+6518199D01*
X+3450000Y+6520000D01*
X+2950000Y+6020000D02*
X+2951531Y+5980900D01*
X+2963954Y+5902699D01*
X+2989806Y+5824498D01*
X+3031566Y+5746297D01*
X+3094805Y+5668096D01*
X+3172998Y+5603743D01*
X+3251199Y+5561221D01*
X+3329400Y+5534762D01*
X+3407601Y+5521801D01*
X+3450000Y+5520000D01*
X+3950000Y+6020000D02*
X+3948469Y+5980900D01*
X+3936046Y+5902699D01*
X+3910194Y+5824498D01*
X+3868434Y+5746297D01*
X+3805195Y+5668096D01*
X+3727002Y+5603743D01*
X+3648801Y+5561221D01*
X+3570600Y+5534762D01*
X+3492399Y+5521801D01*
X+3450000Y+5520000D01*
D25*
X+3084000Y+6396000D02*
X+3083965Y+6396831D01*
X+3083684Y+6398495D01*
X+3083094Y+6400159D01*
X+3082130Y+6401823D01*
X+3080655Y+6403464D01*
X+3078991Y+6404665D01*
X+3077327Y+6405430D01*
X+3075663Y+6405861D01*
X+3074000Y+6406000D01*
X+3064000Y+6396000D02*
X+3064035Y+6396831D01*
X+3064316Y+6398495D01*
X+3064906Y+6400159D01*
X+3065870Y+6401823D01*
X+3067345Y+6403464D01*
X+3069009Y+6404665D01*
X+3070673Y+6405430D01*
X+3072337Y+6405861D01*
X+3074000Y+6406000D01*
X+3064000Y+6396000D02*
X+3064035Y+6395169D01*
X+3064316Y+6393505D01*
X+3064906Y+6391841D01*
X+3065870Y+6390177D01*
X+3067345Y+6388536D01*
X+3069009Y+6387335D01*
X+3070673Y+6386570D01*
X+3072337Y+6386139D01*
X+3074000Y+6386000D01*
X+3084000Y+6396000D02*
X+3083965Y+6395169D01*
X+3083684Y+6393505D01*
X+3083094Y+6391841D01*
X+3082130Y+6390177D01*
X+3080655Y+6388536D01*
X+3078991Y+6387335D01*
X+3077327Y+6386570D01*
X+3075663Y+6386139D01*
X+3074000Y+6386000D01*
D23*
X+4062680Y+5670750D02*
X+4077920Y+5654875D01*
X+4077920Y+5607250D01*
X+4047440Y+5575500D01*
X+4016960Y+5575500D01*
X+3986480Y+5607250D01*
X+3986480Y+5654875D01*
X+4001720Y+5670750D01*
X+4093160Y+5702500D02*
X+4093160Y+5797750D01*
X+4077920Y+5924750D02*
X+4077920Y+5829500D01*
X+3986480Y+5829500D01*
X+3986480Y+5924750D01*
X+4032200Y+5829500D02*
X+4032200Y+5893000D01*
X+3986480Y+5956500D02*
X+4077920Y+5956500D01*
X+4077920Y+6051750D01*
X+4077920Y+6178750D02*
X+4077920Y+6083500D01*
X+3986480Y+6083500D01*
X+3986480Y+6178750D01*
X+4032200Y+6083500D02*
X+4032200Y+6147000D01*
X+4062680Y+6305750D02*
X+4077920Y+6289875D01*
X+4077920Y+6242250D01*
X+4047440Y+6210500D01*
X+4016960Y+6210500D01*
X+3986480Y+6242250D01*
X+3986480Y+6289875D01*
X+4001720Y+6305750D01*
X+3986480Y+6337500D02*
X+3986480Y+6432750D01*
X+3986480Y+6385125D02*
X+4077920Y+6385125D01*
X+2298560Y+4511500D02*
X+2481440Y+4511500D01*
X+2481440Y+4892500D01*
X+2298560Y+4892500D01*
X+2298560Y+4511500D01*
X+2478900Y+4829000D02*
X+2301100Y+4829000D01*
X+2390000Y+4511500D02*
X+2390000Y+4346400D01*
X+2390000Y+4892500D02*
X+2390000Y+5057600D01*
X+2613520Y+4533000D02*
X+2522080Y+4533000D01*
X+2522080Y+4596500D01*
X+2552560Y+4628250D01*
X+2583040Y+4628250D01*
X+2613520Y+4596500D01*
X+2613520Y+4533000D01*
X+2552560Y+4691750D02*
X+2522080Y+4723500D01*
X+2613520Y+4723500D01*
X+3057500Y+4138560D02*
X+3438500Y+4138560D01*
X+3438500Y+4321440D01*
X+3057500Y+4321440D01*
X+3057500Y+4138560D01*
X+3121000Y+4318900D02*
X+3121000Y+4141100D01*
X+3438500Y+4230000D02*
X+3603600Y+4230000D01*
X+3057500Y+4230000D02*
X+2892400Y+4230000D01*
X+3163000Y+4362080D02*
X+3163000Y+4453520D01*
X+3226500Y+4453520D01*
X+3258250Y+4423040D01*
X+3258250Y+4392560D01*
X+3226500Y+4362080D01*
X+3163000Y+4362080D01*
X+3305875Y+4438280D02*
X+3321750Y+4453520D01*
X+3369375Y+4453520D01*
X+3385250Y+4438280D01*
X+3385250Y+4423040D01*
X+3369375Y+4407800D01*
X+3321750Y+4407800D01*
X+3305875Y+4392560D01*
X+3305875Y+4362080D01*
X+3385250Y+4362080D01*
X+3840000Y+4167000D02*
X+3865876Y+4159484D01*
X+3889848Y+4137830D01*
X+3911438Y+4103376D01*
X+3930170Y+4057462D01*
X+3945569Y+4001429D01*
X+3957158Y+3936614D01*
X+3964460Y+3864358D01*
X+3967000Y+3786000D01*
X+3840000Y+3405000D02*
X+3865876Y+3412620D01*
X+3889848Y+3434528D01*
X+3911438Y+3469294D01*
X+3930170Y+3515490D01*
X+3945569Y+3571688D01*
X+3957158Y+3636458D01*
X+3964460Y+3708371D01*
X+3967000Y+3786000D01*
X+3840000Y+3405000D02*
X+3814124Y+3412620D01*
X+3790152Y+3434528D01*
X+3768562Y+3469294D01*
X+3749830Y+3515490D01*
X+3734431Y+3571688D01*
X+3722842Y+3636458D01*
X+3715540Y+3708371D01*
X+3713000Y+3786000D01*
X+3840000Y+4167000D02*
X+3814124Y+4159484D01*
X+3790152Y+4137830D01*
X+3768562Y+4103376D01*
X+3749830Y+4057462D01*
X+3734431Y+4001429D01*
X+3722842Y+3936614D01*
X+3715540Y+3864358D01*
X+3713000Y+3786000D01*
X+4083840Y+3563750D02*
X+4099080Y+3547875D01*
X+4099080Y+3500250D01*
X+4068600Y+3468500D01*
X+4038120Y+3468500D01*
X+4007640Y+3500250D01*
X+4007640Y+3547875D01*
X+4022880Y+3563750D01*
X+4114320Y+3595500D02*
X+4114320Y+3690750D01*
X+4038120Y+3722500D02*
X+4007640Y+3754250D01*
X+4007640Y+3786000D01*
X+4038120Y+3817750D01*
X+4068600Y+3817750D01*
X+4099080Y+3786000D01*
X+4099080Y+3754250D01*
X+4068600Y+3722500D01*
X+4038120Y+3722500D01*
X+4007640Y+3849500D02*
X+4083840Y+3849500D01*
X+4099080Y+3865375D01*
X+4099080Y+3928875D01*
X+4083840Y+3944750D01*
X+4007640Y+3944750D01*
X+4007640Y+3976500D02*
X+4007640Y+4071750D01*
X+4007640Y+4024125D02*
X+4099080Y+4024125D01*
X+2780000Y+5187000D02*
X+2805876Y+5179484D01*
X+2829848Y+5157830D01*
X+2851438Y+5123376D01*
X+2870170Y+5077462D01*
X+2885569Y+5021429D01*
X+2897158Y+4956614D01*
X+2904460Y+4884358D01*
X+2907000Y+4806000D01*
X+2780000Y+4425000D02*
X+2805876Y+4432620D01*
X+2829848Y+4454528D01*
X+2851438Y+4489294D01*
X+2870170Y+4535490D01*
X+2885569Y+4591688D01*
X+2897158Y+4656458D01*
X+2904460Y+4728371D01*
X+2907000Y+4806000D01*
X+2780000Y+4425000D02*
X+2754124Y+4432620D01*
X+2730152Y+4454528D01*
X+2708562Y+4489294D01*
X+2689830Y+4535490D01*
X+2674431Y+4591688D01*
X+2662842Y+4656458D01*
X+2655540Y+4728371D01*
X+2653000Y+4806000D01*
X+2780000Y+5187000D02*
X+2754124Y+5179484D01*
X+2730152Y+5157830D01*
X+2708562Y+5123376D01*
X+2689830Y+5077462D01*
X+2674431Y+5021429D01*
X+2662842Y+4956614D01*
X+2655540Y+4884358D01*
X+2653000Y+4806000D01*
X+3023840Y+4647250D02*
X+3039080Y+4631375D01*
X+3039080Y+4583750D01*
X+3008600Y+4552000D01*
X+2978120Y+4552000D01*
X+2947640Y+4583750D01*
X+2947640Y+4631375D01*
X+2962880Y+4647250D01*
X+3054320Y+4679000D02*
X+3054320Y+4774250D01*
X+2947640Y+4821875D02*
X+2947640Y+4885375D01*
X+2947640Y+4853625D02*
X+3039080Y+4853625D01*
X+3039080Y+4821875D02*
X+3039080Y+4885375D01*
X+3039080Y+4933000D02*
X+2947640Y+4933000D01*
X+3039080Y+5028250D01*
X+2947640Y+5028250D01*
D22*
X+1289000Y+2170000D02*
X+1289000Y+1720000D01*
X+1105000Y+1650000D02*
X+875000Y+1650000D01*
X+691000Y+1720000D02*
X+691000Y+2180000D01*
X+1105000Y+2249000D02*
X+875000Y+2249000D01*
X+1165000Y+1950000D02*
X+1164418Y+1964255D01*
X+1159694Y+1992766D01*
X+1149827Y+2021277D01*
X+1133761Y+2049788D01*
X+1109188Y+2078138D01*
X+1080677Y+2099675D01*
X+1052166Y+2113586D01*
X+1023655Y+2121733D01*
X+995144Y+2124924D01*
X+990000Y+2125000D01*
X+815000Y+1950000D02*
X+815582Y+1964255D01*
X+820306Y+1992766D01*
X+830173Y+2021277D01*
X+846239Y+2049788D01*
X+870812Y+2078138D01*
X+899323Y+2099675D01*
X+927834Y+2113586D01*
X+956345Y+2121733D01*
X+984856Y+2124924D01*
X+990000Y+2125000D01*
X+815000Y+1950000D02*
X+815582Y+1935745D01*
X+820306Y+1907234D01*
X+830173Y+1878723D01*
X+846239Y+1850212D01*
X+870812Y+1821862D01*
X+899323Y+1800325D01*
X+927834Y+1786414D01*
X+956345Y+1778267D01*
X+984856Y+1775076D01*
X+990000Y+1775000D01*
X+1165000Y+1950000D02*
X+1164418Y+1935745D01*
X+1159694Y+1907234D01*
X+1149827Y+1878723D01*
X+1133761Y+1850212D01*
X+1109188Y+1821862D01*
X+1080677Y+1800325D01*
X+1052166Y+1786414D01*
X+1023655Y+1778267D01*
X+995144Y+1775076D01*
X+990000Y+1775000D01*
D25*
X+1225500Y+2394500D02*
X+1225464Y+2395373D01*
X+1225168Y+2397120D01*
X+1224549Y+2398867D01*
X+1223536Y+2400614D01*
X+1221988Y+2402337D01*
X+1220241Y+2403598D01*
X+1218494Y+2404402D01*
X+1216747Y+2404854D01*
X+1215000Y+2405000D01*
X+1204500Y+2394500D02*
X+1204536Y+2395373D01*
X+1204832Y+2397120D01*
X+1205451Y+2398867D01*
X+1206464Y+2400614D01*
X+1208012Y+2402337D01*
X+1209759Y+2403598D01*
X+1211506Y+2404402D01*
X+1213253Y+2404854D01*
X+1215000Y+2405000D01*
X+1204500Y+2394500D02*
X+1204536Y+2393627D01*
X+1204832Y+2391880D01*
X+1205451Y+2390133D01*
X+1206464Y+2388386D01*
X+1208012Y+2386663D01*
X+1209759Y+2385402D01*
X+1211506Y+2384598D01*
X+1213253Y+2384146D01*
X+1215000Y+2384000D01*
X+1225500Y+2394500D02*
X+1225464Y+2393627D01*
X+1225168Y+2391880D01*
X+1224549Y+2390133D01*
X+1223536Y+2388386D01*
X+1221988Y+2386663D01*
X+1220241Y+2385402D01*
X+1218494Y+2384598D01*
X+1216747Y+2384146D01*
X+1215000Y+2384000D01*
D23*
X+1325830Y+1841750D02*
X+1402030Y+1841750D01*
X+1417270Y+1857625D01*
X+1417270Y+1921125D01*
X+1402030Y+1937000D01*
X+1325830Y+1937000D01*
X+1386790Y+2064000D02*
X+1386790Y+1968750D01*
X+1325830Y+2032250D01*
X+1417270Y+2032250D01*
X+390000Y+2313000D02*
X+390000Y+2186000D01*
X+326500Y+1678000D02*
X+453500Y+1678000D01*
X+453500Y+2186000D01*
X+326500Y+2186000D01*
X+326500Y+1678000D01*
X+390000Y+1678000D02*
X+390000Y+1551000D01*
X+655580Y+1611000D02*
X+564140Y+1611000D01*
X+564140Y+1690375D01*
X+579380Y+1706250D01*
X+594620Y+1706250D01*
X+609860Y+1690375D01*
X+609860Y+1611000D01*
X+609860Y+1690375D02*
X+625100Y+1706250D01*
X+655580Y+1706250D01*
X+670820Y+1738000D02*
X+670820Y+1833250D01*
X+655580Y+1865000D02*
X+564140Y+1865000D01*
X+564140Y+1944375D01*
X+579380Y+1960250D01*
X+594620Y+1960250D01*
X+609860Y+1944375D01*
X+609860Y+1865000D01*
X+564140Y+1992000D02*
X+640340Y+1992000D01*
X+655580Y+2007875D01*
X+655580Y+2071375D01*
X+640340Y+2087250D01*
X+564140Y+2087250D01*
X+640340Y+2119000D02*
X+655580Y+2134875D01*
X+655580Y+2198375D01*
X+640340Y+2214250D01*
X+625100Y+2214250D01*
X+609860Y+2198375D01*
X+609860Y+2134875D01*
X+594620Y+2119000D01*
X+579380Y+2119000D01*
X+564140Y+2134875D01*
X+564140Y+2198375D01*
X+579380Y+2214250D01*
X+655580Y+2246000D02*
X+564140Y+2246000D01*
X+564140Y+2341250D02*
X+655580Y+2341250D01*
X+609860Y+2246000D02*
X+609860Y+2341250D01*
M02*
