G04 PROTEUS GERBER X2 FILE*
%TF.GenerationSoftware,Labcenter,Proteus,8.12-SP0-Build30713*%
%TF.CreationDate,2023-07-17T11:58:22+00:00*%
%TF.FileFunction,Legend,Bot*%
%TF.FilePolarity,Positive*%
%TF.Part,Single*%
%TF.SameCoordinates,{929d0d33-b1dc-492e-9cfe-804fc5f4831e}*%
%FSLAX45Y45*%
%MOMM*%
G01*
%TA.AperFunction,Material*%
%ADD22C,0.127000*%
%ADD23C,0.203200*%
%TA.AperFunction,Profile*%
%ADD20C,0.203200*%
%TA.AperFunction,NonMaterial*%
%ADD21C,0.203200*%
%TA.AperFunction,Material*%
%ADD26C,0.100000*%
%TD.AperFunction*%
D22*
X+1582000Y+2828000D02*
X+1582000Y+4052000D01*
X+18000Y+4052000D01*
X+18000Y+2828000D01*
X+1750000Y+3130000D02*
X+1750000Y+3230000D01*
X+1650000Y+3180000D01*
X+1750000Y+3130000D01*
D23*
X-456970Y+3775000D02*
X-441730Y+3759125D01*
X-441730Y+3695625D01*
X-456970Y+3679750D01*
X-472210Y+3679750D01*
X-487450Y+3695625D01*
X-487450Y+3759125D01*
X-502690Y+3775000D01*
X-517930Y+3775000D01*
X-533170Y+3759125D01*
X-533170Y+3695625D01*
X-517930Y+3679750D01*
X-441730Y+3552750D02*
X-441730Y+3648000D01*
X-533170Y+3648000D01*
X-533170Y+3552750D01*
X-487450Y+3648000D02*
X-487450Y+3584500D01*
X-441730Y+3521000D02*
X-533170Y+3521000D01*
X-441730Y+3425750D01*
X-533170Y+3425750D01*
X-456970Y+3394000D02*
X-441730Y+3378125D01*
X-441730Y+3314625D01*
X-456970Y+3298750D01*
X-472210Y+3298750D01*
X-487450Y+3314625D01*
X-487450Y+3378125D01*
X-502690Y+3394000D01*
X-517930Y+3394000D01*
X-533170Y+3378125D01*
X-533170Y+3314625D01*
X-517930Y+3298750D01*
X-502690Y+3267000D02*
X-533170Y+3235250D01*
X-533170Y+3203500D01*
X-502690Y+3171750D01*
X-472210Y+3171750D01*
X-441730Y+3203500D01*
X-441730Y+3235250D01*
X-472210Y+3267000D01*
X-502690Y+3267000D01*
X-441730Y+3140000D02*
X-533170Y+3140000D01*
X-533170Y+3060625D01*
X-517930Y+3044750D01*
X-502690Y+3044750D01*
X-487450Y+3060625D01*
X-487450Y+3140000D01*
X-487450Y+3060625D02*
X-472210Y+3044750D01*
X-441730Y+3044750D01*
X-517930Y+2997125D02*
X-533170Y+2981250D01*
X-533170Y+2933625D01*
X-517930Y+2917750D01*
X-502690Y+2917750D01*
X-487450Y+2933625D01*
X-487450Y+2981250D01*
X-472210Y+2997125D01*
X-441730Y+2997125D01*
X-441730Y+2917750D01*
D22*
X+3442000Y+2828000D02*
X+3442000Y+4052000D01*
X+1878000Y+4052000D01*
X+1878000Y+2828000D01*
X+3610000Y+3130000D02*
X+3610000Y+3230000D01*
X+3510000Y+3180000D01*
X+3610000Y+3130000D01*
D23*
X+3723030Y+3875000D02*
X+3738270Y+3859125D01*
X+3738270Y+3795625D01*
X+3723030Y+3779750D01*
X+3707790Y+3779750D01*
X+3692550Y+3795625D01*
X+3692550Y+3859125D01*
X+3677310Y+3875000D01*
X+3662070Y+3875000D01*
X+3646830Y+3859125D01*
X+3646830Y+3795625D01*
X+3662070Y+3779750D01*
X+3738270Y+3652750D02*
X+3738270Y+3748000D01*
X+3646830Y+3748000D01*
X+3646830Y+3652750D01*
X+3692550Y+3748000D02*
X+3692550Y+3684500D01*
X+3738270Y+3621000D02*
X+3646830Y+3621000D01*
X+3738270Y+3525750D01*
X+3646830Y+3525750D01*
X+3723030Y+3494000D02*
X+3738270Y+3478125D01*
X+3738270Y+3414625D01*
X+3723030Y+3398750D01*
X+3707790Y+3398750D01*
X+3692550Y+3414625D01*
X+3692550Y+3478125D01*
X+3677310Y+3494000D01*
X+3662070Y+3494000D01*
X+3646830Y+3478125D01*
X+3646830Y+3414625D01*
X+3662070Y+3398750D01*
X+3677310Y+3367000D02*
X+3646830Y+3335250D01*
X+3646830Y+3303500D01*
X+3677310Y+3271750D01*
X+3707790Y+3271750D01*
X+3738270Y+3303500D01*
X+3738270Y+3335250D01*
X+3707790Y+3367000D01*
X+3677310Y+3367000D01*
X+3738270Y+3240000D02*
X+3646830Y+3240000D01*
X+3646830Y+3160625D01*
X+3662070Y+3144750D01*
X+3677310Y+3144750D01*
X+3692550Y+3160625D01*
X+3692550Y+3240000D01*
X+3692550Y+3160625D02*
X+3707790Y+3144750D01*
X+3738270Y+3144750D01*
X+3677310Y+3081250D02*
X+3646830Y+3049500D01*
X+3738270Y+3049500D01*
X+1535400Y+20000D02*
X+4395400Y+20000D01*
X+4395400Y+2580000D01*
X+1535400Y+2580000D01*
X+1535400Y+20000D01*
X+4512240Y+1585750D02*
X+4527480Y+1601625D01*
X+4527480Y+1649250D01*
X+4497000Y+1681000D01*
X+4466520Y+1681000D01*
X+4436040Y+1649250D01*
X+4436040Y+1601625D01*
X+4451280Y+1585750D01*
X+4436040Y+1554000D02*
X+4527480Y+1554000D01*
X+4527480Y+1458750D01*
X+4436040Y+1411125D02*
X+4436040Y+1347625D01*
X+4436040Y+1379375D02*
X+4527480Y+1379375D01*
X+4527480Y+1411125D02*
X+4527480Y+1347625D01*
X+4512240Y+1204750D02*
X+4527480Y+1220625D01*
X+4527480Y+1268250D01*
X+4497000Y+1300000D01*
X+4466520Y+1300000D01*
X+4436040Y+1268250D01*
X+4436040Y+1220625D01*
X+4451280Y+1204750D01*
X+4436040Y+1173000D02*
X+4527480Y+1173000D01*
X+4436040Y+1077750D02*
X+4481760Y+1125375D01*
X+4527480Y+1077750D01*
X+4481760Y+1173000D02*
X+4481760Y+1125375D01*
X+4451280Y+1030125D02*
X+4436040Y+1014250D01*
X+4436040Y+966625D01*
X+4451280Y+950750D01*
X+4466520Y+950750D01*
X+4481760Y+966625D01*
X+4497000Y+950750D01*
X+4512240Y+950750D01*
X+4527480Y+966625D01*
X+4527480Y+1014250D01*
X+4512240Y+1030125D01*
X+4481760Y+998375D02*
X+4481760Y+966625D01*
D20*
X+0Y+0D02*
X+0Y+6200000D01*
X+3900000Y+6200000D01*
X+3900000Y+5500000D01*
X+4400000Y+5500000D01*
X+4400000Y+0D01*
D21*
X+0Y-320000D02*
X+4400000Y-320000D01*
X+0Y-320000D02*
X+127000Y-447000D01*
X+0Y-320000D02*
X+127000Y-193000D01*
X+4400000Y-320000D02*
X+4273000Y-193000D01*
X+4400000Y-320000D02*
X+4273000Y-447000D01*
X+2231750Y-320000D02*
X+2231641Y-317366D01*
X+2230751Y-312097D01*
X+2228889Y-306828D01*
X+2225846Y-301559D01*
X+2221191Y-296357D01*
X+2215922Y-292531D01*
X+2210653Y-290091D01*
X+2205384Y-288710D01*
X+2200115Y-288250D01*
X+2200000Y-288250D01*
X+2168250Y-320000D02*
X+2168359Y-317366D01*
X+2169249Y-312097D01*
X+2171111Y-306828D01*
X+2174154Y-301559D01*
X+2178809Y-296357D01*
X+2184078Y-292531D01*
X+2189347Y-290091D01*
X+2194616Y-288710D01*
X+2199885Y-288250D01*
X+2200000Y-288250D01*
X+2168250Y-320000D02*
X+2168359Y-322634D01*
X+2169249Y-327903D01*
X+2171111Y-333172D01*
X+2174154Y-338441D01*
X+2178809Y-343643D01*
X+2184078Y-347469D01*
X+2189347Y-349909D01*
X+2194616Y-351290D01*
X+2199885Y-351750D01*
X+2200000Y-351750D01*
X+2231750Y-320000D02*
X+2231641Y-322634D01*
X+2230751Y-327903D01*
X+2228889Y-333172D01*
X+2225846Y-338441D01*
X+2221191Y-343643D01*
X+2215922Y-347469D01*
X+2210653Y-349909D01*
X+2205384Y-351290D01*
X+2200115Y-351750D01*
X+2200000Y-351750D01*
X+2041250Y-248880D02*
X+1946000Y-248880D01*
X+2009500Y-187920D01*
X+2009500Y-279360D01*
X+2168250Y-248880D02*
X+2073000Y-248880D01*
X+2136500Y-187920D01*
X+2136500Y-279360D01*
X+2200000Y-279360D02*
X+2200000Y-218400D01*
X+2200000Y-233640D02*
X+2215875Y-218400D01*
X+2247625Y-248880D01*
X+2279375Y-218400D01*
X+2295250Y-233640D01*
X+2295250Y-279360D01*
X+2327000Y-279360D02*
X+2327000Y-218400D01*
X+2327000Y-233640D02*
X+2342875Y-218400D01*
X+2374625Y-248880D01*
X+2406375Y-218400D01*
X+2422250Y-233640D01*
X+2422250Y-279360D01*
D20*
X+0Y+0D02*
X+4400000Y+0D01*
D21*
X-300000Y+0D02*
X-300000Y+6200000D01*
X-300000Y+0D02*
X-173000Y+127000D01*
X-300000Y+0D02*
X-427000Y+127000D01*
X-300000Y+6200000D02*
X-427000Y+6073000D01*
X-300000Y+6200000D02*
X-173000Y+6073000D01*
X-268250Y+3100000D02*
X-268359Y+3102634D01*
X-269249Y+3107903D01*
X-271111Y+3113172D01*
X-274154Y+3118441D01*
X-278809Y+3123643D01*
X-284078Y+3127469D01*
X-289347Y+3129909D01*
X-294616Y+3131290D01*
X-299885Y+3131750D01*
X-300000Y+3131750D01*
X-331750Y+3100000D02*
X-331641Y+3102634D01*
X-330751Y+3107903D01*
X-328889Y+3113172D01*
X-325846Y+3118441D01*
X-321191Y+3123643D01*
X-315922Y+3127469D01*
X-310653Y+3129909D01*
X-305384Y+3131290D01*
X-300115Y+3131750D01*
X-300000Y+3131750D01*
X-331750Y+3100000D02*
X-331641Y+3097366D01*
X-330751Y+3092097D01*
X-328889Y+3086828D01*
X-325846Y+3081559D01*
X-321191Y+3076357D01*
X-315922Y+3072531D01*
X-310653Y+3070091D01*
X-305384Y+3068710D01*
X-300115Y+3068250D01*
X-300000Y+3068250D01*
X-268250Y+3100000D02*
X-268359Y+3097366D01*
X-269249Y+3092097D01*
X-271111Y+3086828D01*
X-274154Y+3081559D01*
X-278809Y+3076357D01*
X-284078Y+3072531D01*
X-289347Y+3070091D01*
X-294616Y+3068710D01*
X-299885Y+3068250D01*
X-300000Y+3068250D01*
X-416840Y+2941250D02*
X-432080Y+2925375D01*
X-432080Y+2877750D01*
X-416840Y+2861875D01*
X-355880Y+2861875D01*
X-340640Y+2877750D01*
X-340640Y+2925375D01*
X-355880Y+2941250D01*
X-371120Y+2941250D01*
X-386360Y+2925375D01*
X-386360Y+2861875D01*
X-416840Y+2988875D02*
X-432080Y+3004750D01*
X-432080Y+3052375D01*
X-416840Y+3068250D01*
X-401600Y+3068250D01*
X-386360Y+3052375D01*
X-386360Y+3004750D01*
X-371120Y+2988875D01*
X-340640Y+2988875D01*
X-340640Y+3068250D01*
X-340640Y+3100000D02*
X-401600Y+3100000D01*
X-386360Y+3100000D02*
X-401600Y+3115875D01*
X-371120Y+3147625D01*
X-401600Y+3179375D01*
X-386360Y+3195250D01*
X-340640Y+3195250D01*
X-340640Y+3227000D02*
X-401600Y+3227000D01*
X-386360Y+3227000D02*
X-401600Y+3242875D01*
X-371120Y+3274625D01*
X-401600Y+3306375D01*
X-386360Y+3322250D01*
X-340640Y+3322250D01*
X+4600000Y+5500000D02*
X+4600000Y+0D01*
X+4600000Y+5500000D02*
X+4473000Y+5373000D01*
X+4600000Y+5500000D02*
X+4727000Y+5373000D01*
X+4600000Y+0D02*
X+4727000Y+127000D01*
X+4600000Y+0D02*
X+4473000Y+127000D01*
X+4631750Y+2750000D02*
X+4631641Y+2752634D01*
X+4630751Y+2757903D01*
X+4628889Y+2763172D01*
X+4625846Y+2768441D01*
X+4621191Y+2773643D01*
X+4615922Y+2777469D01*
X+4610653Y+2779909D01*
X+4605384Y+2781290D01*
X+4600115Y+2781750D01*
X+4600000Y+2781750D01*
X+4568250Y+2750000D02*
X+4568359Y+2752634D01*
X+4569249Y+2757903D01*
X+4571111Y+2763172D01*
X+4574154Y+2768441D01*
X+4578809Y+2773643D01*
X+4584078Y+2777469D01*
X+4589347Y+2779909D01*
X+4594616Y+2781290D01*
X+4599885Y+2781750D01*
X+4600000Y+2781750D01*
X+4568250Y+2750000D02*
X+4568359Y+2747366D01*
X+4569249Y+2742097D01*
X+4571111Y+2736828D01*
X+4574154Y+2731559D01*
X+4578809Y+2726357D01*
X+4584078Y+2722531D01*
X+4589347Y+2720091D01*
X+4594616Y+2718710D01*
X+4599885Y+2718250D01*
X+4600000Y+2718250D01*
X+4631750Y+2750000D02*
X+4631641Y+2747366D01*
X+4630751Y+2742097D01*
X+4628889Y+2736828D01*
X+4625846Y+2731559D01*
X+4621191Y+2726357D01*
X+4615922Y+2722531D01*
X+4610653Y+2720091D01*
X+4605384Y+2718710D01*
X+4600115Y+2718250D01*
X+4600000Y+2718250D01*
X+4732080Y+2908750D02*
X+4732080Y+2988125D01*
X+4701600Y+2988125D01*
X+4701600Y+2924625D01*
X+4686360Y+2908750D01*
X+4655880Y+2908750D01*
X+4640640Y+2924625D01*
X+4640640Y+2972250D01*
X+4655880Y+2988125D01*
X+4732080Y+2781750D02*
X+4732080Y+2861125D01*
X+4701600Y+2861125D01*
X+4701600Y+2797625D01*
X+4686360Y+2781750D01*
X+4655880Y+2781750D01*
X+4640640Y+2797625D01*
X+4640640Y+2845250D01*
X+4655880Y+2861125D01*
X+4640640Y+2750000D02*
X+4701600Y+2750000D01*
X+4686360Y+2750000D02*
X+4701600Y+2734125D01*
X+4671120Y+2702375D01*
X+4701600Y+2670625D01*
X+4686360Y+2654750D01*
X+4640640Y+2654750D01*
X+4640640Y+2623000D02*
X+4701600Y+2623000D01*
X+4686360Y+2623000D02*
X+4701600Y+2607125D01*
X+4671120Y+2575375D01*
X+4701600Y+2543625D01*
X+4686360Y+2527750D01*
X+4640640Y+2527750D01*
D23*
X+1854000Y+5540000D02*
X+2870000Y+5540000D01*
X+2870000Y+6580000D01*
X+1854000Y+6580000D01*
X+1854000Y+5540000D01*
X+2370000Y+6580000D02*
X+2770000Y+6580000D01*
X+2770000Y+6980000D01*
X+2370000Y+6980000D01*
X+2370000Y+6580000D01*
X+3124000Y+7020640D02*
X+3124000Y+7112080D01*
X+3044625Y+7112080D01*
X+3028750Y+7096840D01*
X+3028750Y+7081600D01*
X+3044625Y+7066360D01*
X+3124000Y+7066360D01*
X+2997000Y+7081600D02*
X+2965250Y+7112080D01*
X+2933500Y+7112080D01*
X+2901750Y+7081600D01*
X+2901750Y+7051120D01*
X+2933500Y+7020640D01*
X+2965250Y+7020640D01*
X+2997000Y+7051120D01*
X+2997000Y+7081600D01*
X+2870000Y+7112080D02*
X+2870000Y+7020640D01*
X+2822375Y+7066360D01*
X+2774750Y+7020640D01*
X+2774750Y+7112080D01*
X+2647750Y+7020640D02*
X+2743000Y+7020640D01*
X+2743000Y+7112080D01*
X+2647750Y+7112080D01*
X+2743000Y+7066360D02*
X+2679500Y+7066360D01*
X+2616000Y+7020640D02*
X+2616000Y+7112080D01*
X+2536625Y+7112080D01*
X+2520750Y+7096840D01*
X+2520750Y+7081600D01*
X+2536625Y+7066360D01*
X+2616000Y+7066360D01*
X+2536625Y+7066360D02*
X+2520750Y+7051120D01*
X+2520750Y+7020640D01*
X+2362000Y+7035880D02*
X+2346125Y+7020640D01*
X+2282625Y+7020640D01*
X+2266750Y+7035880D01*
X+2266750Y+7051120D01*
X+2282625Y+7066360D01*
X+2346125Y+7066360D01*
X+2362000Y+7081600D01*
X+2362000Y+7096840D01*
X+2346125Y+7112080D01*
X+2282625Y+7112080D01*
X+2266750Y+7096840D01*
X+2235000Y+7112080D02*
X+2235000Y+7020640D01*
X+2187375Y+7066360D01*
X+2139750Y+7020640D01*
X+2139750Y+7112080D01*
X+2092125Y+7112080D02*
X+2028625Y+7112080D01*
X+2060375Y+7112080D02*
X+2060375Y+7020640D01*
X+2092125Y+7020640D02*
X+2028625Y+7020640D01*
X+1981000Y+7112080D02*
X+1885750Y+7112080D01*
X+1933375Y+7112080D02*
X+1933375Y+7020640D01*
X+1758750Y+7035880D02*
X+1774625Y+7020640D01*
X+1822250Y+7020640D01*
X+1854000Y+7051120D01*
X+1854000Y+7081600D01*
X+1822250Y+7112080D01*
X+1774625Y+7112080D01*
X+1758750Y+7096840D01*
X+1727000Y+7020640D02*
X+1727000Y+7112080D01*
X+1631750Y+7112080D02*
X+1631750Y+7020640D01*
X+1727000Y+7066360D02*
X+1631750Y+7066360D01*
D26*
X+3864000Y+4615700D02*
X+3864000Y+4615700D01*
X+3864000Y+5098300D01*
X+3864000Y+5098300D01*
X+3864000Y+4615700D01*
X+3680000Y+5098300D02*
X+3864000Y+5098300D01*
X+3864000Y+5098300D01*
X+3680000Y+5098300D01*
X+3680000Y+5098300D01*
X+3630662Y+5093499D01*
X+3585035Y+5079684D01*
X+3544004Y+5057740D01*
X+3508451Y+5028549D01*
X+3479260Y+4992996D01*
X+3457316Y+4951965D01*
X+3443501Y+4906338D01*
X+3438700Y+4857000D01*
X+3443501Y+4807662D01*
X+3457316Y+4762035D01*
X+3479260Y+4721004D01*
X+3508451Y+4685451D01*
X+3544004Y+4656260D01*
X+3585035Y+4634316D01*
X+3630662Y+4620501D01*
X+3680000Y+4615700D01*
X+3864000Y+4615700D01*
D23*
X+3899480Y+5055700D02*
X+3975680Y+5055700D01*
X+3990920Y+5039825D01*
X+3990920Y+4976325D01*
X+3975680Y+4960450D01*
X+3899480Y+4960450D01*
X+3899480Y+4833450D02*
X+3899480Y+4912825D01*
X+3929960Y+4912825D01*
X+3929960Y+4849325D01*
X+3945200Y+4833450D01*
X+3975680Y+4833450D01*
X+3990920Y+4849325D01*
X+3990920Y+4896950D01*
X+3975680Y+4912825D01*
M02*
