G04 PROTEUS GERBER X2 FILE*
%TF.GenerationSoftware,Labcenter,Proteus,8.12-SP0-Build30713*%
%TF.CreationDate,2023-07-17T11:58:22+00:00*%
%TF.FileFunction,AssemblyDrawing,Bot*%
%TF.FilePolarity,Positive*%
%TF.Part,Single*%
%TF.SameCoordinates,{929d0d33-b1dc-492e-9cfe-804fc5f4831e}*%
%FSLAX45Y45*%
%MOMM*%
G01*
%TA.AperFunction,Material*%
%ADD32C,0.050000*%
%ADD44C,0.812800*%
%ADD45C,0.186470*%
%ADD23C,0.203200*%
%ADD46C,0.398700*%
%TA.AperFunction,Profile*%
%ADD20C,0.203200*%
%TA.AperFunction,NonMaterial*%
%ADD21C,0.203200*%
%TA.AperFunction,Material*%
%ADD37C,0.914400*%
%ADD47C,0.105960*%
%ADD26C,0.100000*%
%ADD48C,0.200880*%
%TD.AperFunction*%
D32*
X-110000Y+2682000D02*
X+1710000Y+2682000D01*
X+1710000Y+4179000D01*
X-110000Y+4179000D01*
X-110000Y+2682000D01*
D44*
X+1250000Y+3180000D02*
X+1250000Y+3180000D01*
D45*
X+585726Y+4017898D02*
X+604373Y+3996920D01*
X+604373Y+3913006D01*
X+585726Y+3892027D01*
X+567078Y+3892027D01*
X+548430Y+3913006D01*
X+548430Y+3996920D01*
X+529783Y+4017898D01*
X+511135Y+4017898D01*
X+492488Y+3996920D01*
X+492488Y+3913006D01*
X+511135Y+3892027D01*
X+604373Y+3724199D02*
X+604373Y+3850070D01*
X+492488Y+3850070D01*
X+492488Y+3724199D01*
X+548430Y+3850070D02*
X+548430Y+3766156D01*
X+604373Y+3682242D02*
X+492488Y+3682242D01*
X+604373Y+3556371D01*
X+492488Y+3556371D01*
X+585726Y+3514414D02*
X+604373Y+3493436D01*
X+604373Y+3409522D01*
X+585726Y+3388543D01*
X+567078Y+3388543D01*
X+548430Y+3409522D01*
X+548430Y+3493436D01*
X+529783Y+3514414D01*
X+511135Y+3514414D01*
X+492488Y+3493436D01*
X+492488Y+3409522D01*
X+511135Y+3388543D01*
X+529783Y+3346586D02*
X+492488Y+3304629D01*
X+492488Y+3262672D01*
X+529783Y+3220715D01*
X+567078Y+3220715D01*
X+604373Y+3262672D01*
X+604373Y+3304629D01*
X+567078Y+3346586D01*
X+529783Y+3346586D01*
X+604373Y+3178758D02*
X+492488Y+3178758D01*
X+492488Y+3073866D01*
X+511135Y+3052887D01*
X+529783Y+3052887D01*
X+548430Y+3073866D01*
X+548430Y+3178758D01*
X+548430Y+3073866D02*
X+567078Y+3052887D01*
X+604373Y+3052887D01*
X+511135Y+2989952D02*
X+492488Y+2968973D01*
X+492488Y+2906038D01*
X+511135Y+2885059D01*
X+529783Y+2885059D01*
X+548430Y+2906038D01*
X+548430Y+2968973D01*
X+567078Y+2989952D01*
X+604373Y+2989952D01*
X+604373Y+2885059D01*
D32*
X+1750000Y+2682000D02*
X+3570000Y+2682000D01*
X+3570000Y+4179000D01*
X+1750000Y+4179000D01*
X+1750000Y+2682000D01*
D44*
X+3110000Y+3180000D02*
X+3110000Y+3180000D01*
D45*
X+2445726Y+4017898D02*
X+2464373Y+3996920D01*
X+2464373Y+3913006D01*
X+2445726Y+3892027D01*
X+2427078Y+3892027D01*
X+2408430Y+3913006D01*
X+2408430Y+3996920D01*
X+2389783Y+4017898D01*
X+2371135Y+4017898D01*
X+2352488Y+3996920D01*
X+2352488Y+3913006D01*
X+2371135Y+3892027D01*
X+2464373Y+3724199D02*
X+2464373Y+3850070D01*
X+2352488Y+3850070D01*
X+2352488Y+3724199D01*
X+2408430Y+3850070D02*
X+2408430Y+3766156D01*
X+2464373Y+3682242D02*
X+2352488Y+3682242D01*
X+2464373Y+3556371D01*
X+2352488Y+3556371D01*
X+2445726Y+3514414D02*
X+2464373Y+3493436D01*
X+2464373Y+3409522D01*
X+2445726Y+3388543D01*
X+2427078Y+3388543D01*
X+2408430Y+3409522D01*
X+2408430Y+3493436D01*
X+2389783Y+3514414D01*
X+2371135Y+3514414D01*
X+2352488Y+3493436D01*
X+2352488Y+3409522D01*
X+2371135Y+3388543D01*
X+2389783Y+3346586D02*
X+2352488Y+3304629D01*
X+2352488Y+3262672D01*
X+2389783Y+3220715D01*
X+2427078Y+3220715D01*
X+2464373Y+3262672D01*
X+2464373Y+3304629D01*
X+2427078Y+3346586D01*
X+2389783Y+3346586D01*
X+2464373Y+3178758D02*
X+2352488Y+3178758D01*
X+2352488Y+3073866D01*
X+2371135Y+3052887D01*
X+2389783Y+3052887D01*
X+2408430Y+3073866D01*
X+2408430Y+3178758D01*
X+2408430Y+3073866D02*
X+2427078Y+3052887D01*
X+2464373Y+3052887D01*
X+2389783Y+2968973D02*
X+2352488Y+2927016D01*
X+2464373Y+2927016D01*
D23*
X+1525240Y+9840D02*
X+4405560Y+9840D01*
X+4405560Y+2590160D01*
X+1525240Y+2590160D01*
X+1525240Y+9840D01*
D44*
X+2005400Y+150000D02*
X+2005400Y+150000D01*
D46*
X+3772768Y+1310660D02*
X+3817622Y+1270790D01*
X+3952183Y+1270790D01*
X+4041890Y+1350530D01*
X+4041890Y+1430270D01*
X+3952183Y+1510010D01*
X+3817622Y+1510010D01*
X+3772768Y+1470140D01*
X+3683060Y+1510010D02*
X+3683060Y+1270790D01*
X+3413938Y+1270790D01*
X+3279377Y+1510010D02*
X+3099962Y+1510010D01*
X+3189669Y+1510010D02*
X+3189669Y+1270790D01*
X+3279377Y+1270790D02*
X+3099962Y+1270790D01*
X+2696278Y+1310660D02*
X+2741132Y+1270790D01*
X+2875693Y+1270790D01*
X+2965400Y+1350530D01*
X+2965400Y+1430270D01*
X+2875693Y+1510010D01*
X+2741132Y+1510010D01*
X+2696278Y+1470140D01*
X+2606570Y+1510010D02*
X+2606570Y+1270790D01*
X+2337448Y+1510010D02*
X+2472009Y+1390400D01*
X+2337448Y+1270790D01*
X+2606570Y+1390400D02*
X+2472009Y+1390400D01*
X+2202887Y+1470140D02*
X+2158033Y+1510010D01*
X+2023472Y+1510010D01*
X+1978618Y+1470140D01*
X+1978618Y+1430270D01*
X+2023472Y+1390400D01*
X+1978618Y+1350530D01*
X+1978618Y+1310660D01*
X+2023472Y+1270790D01*
X+2158033Y+1270790D01*
X+2202887Y+1310660D01*
X+2113179Y+1390400D02*
X+2023472Y+1390400D01*
D20*
X+0Y+0D02*
X+0Y+6200000D01*
X+3900000Y+6200000D01*
X+3900000Y+5500000D01*
X+4400000Y+5500000D01*
X+4400000Y+0D01*
D21*
X+0Y-320000D02*
X+4400000Y-320000D01*
X+0Y-320000D02*
X+127000Y-447000D01*
X+0Y-320000D02*
X+127000Y-193000D01*
X+4400000Y-320000D02*
X+4273000Y-193000D01*
X+4400000Y-320000D02*
X+4273000Y-447000D01*
X+2231750Y-320000D02*
X+2231641Y-317366D01*
X+2230751Y-312097D01*
X+2228889Y-306828D01*
X+2225846Y-301559D01*
X+2221191Y-296357D01*
X+2215922Y-292531D01*
X+2210653Y-290091D01*
X+2205384Y-288710D01*
X+2200115Y-288250D01*
X+2200000Y-288250D01*
X+2168250Y-320000D02*
X+2168359Y-317366D01*
X+2169249Y-312097D01*
X+2171111Y-306828D01*
X+2174154Y-301559D01*
X+2178809Y-296357D01*
X+2184078Y-292531D01*
X+2189347Y-290091D01*
X+2194616Y-288710D01*
X+2199885Y-288250D01*
X+2200000Y-288250D01*
X+2168250Y-320000D02*
X+2168359Y-322634D01*
X+2169249Y-327903D01*
X+2171111Y-333172D01*
X+2174154Y-338441D01*
X+2178809Y-343643D01*
X+2184078Y-347469D01*
X+2189347Y-349909D01*
X+2194616Y-351290D01*
X+2199885Y-351750D01*
X+2200000Y-351750D01*
X+2231750Y-320000D02*
X+2231641Y-322634D01*
X+2230751Y-327903D01*
X+2228889Y-333172D01*
X+2225846Y-338441D01*
X+2221191Y-343643D01*
X+2215922Y-347469D01*
X+2210653Y-349909D01*
X+2205384Y-351290D01*
X+2200115Y-351750D01*
X+2200000Y-351750D01*
X+2041250Y-248880D02*
X+1946000Y-248880D01*
X+2009500Y-187920D01*
X+2009500Y-279360D01*
X+2168250Y-248880D02*
X+2073000Y-248880D01*
X+2136500Y-187920D01*
X+2136500Y-279360D01*
X+2200000Y-279360D02*
X+2200000Y-218400D01*
X+2200000Y-233640D02*
X+2215875Y-218400D01*
X+2247625Y-248880D01*
X+2279375Y-218400D01*
X+2295250Y-233640D01*
X+2295250Y-279360D01*
X+2327000Y-279360D02*
X+2327000Y-218400D01*
X+2327000Y-233640D02*
X+2342875Y-218400D01*
X+2374625Y-248880D01*
X+2406375Y-218400D01*
X+2422250Y-233640D01*
X+2422250Y-279360D01*
D20*
X+0Y+0D02*
X+4400000Y+0D01*
D21*
X-300000Y+0D02*
X-300000Y+6200000D01*
X-300000Y+0D02*
X-173000Y+127000D01*
X-300000Y+0D02*
X-427000Y+127000D01*
X-300000Y+6200000D02*
X-427000Y+6073000D01*
X-300000Y+6200000D02*
X-173000Y+6073000D01*
X-268250Y+3100000D02*
X-268359Y+3102634D01*
X-269249Y+3107903D01*
X-271111Y+3113172D01*
X-274154Y+3118441D01*
X-278809Y+3123643D01*
X-284078Y+3127469D01*
X-289347Y+3129909D01*
X-294616Y+3131290D01*
X-299885Y+3131750D01*
X-300000Y+3131750D01*
X-331750Y+3100000D02*
X-331641Y+3102634D01*
X-330751Y+3107903D01*
X-328889Y+3113172D01*
X-325846Y+3118441D01*
X-321191Y+3123643D01*
X-315922Y+3127469D01*
X-310653Y+3129909D01*
X-305384Y+3131290D01*
X-300115Y+3131750D01*
X-300000Y+3131750D01*
X-331750Y+3100000D02*
X-331641Y+3097366D01*
X-330751Y+3092097D01*
X-328889Y+3086828D01*
X-325846Y+3081559D01*
X-321191Y+3076357D01*
X-315922Y+3072531D01*
X-310653Y+3070091D01*
X-305384Y+3068710D01*
X-300115Y+3068250D01*
X-300000Y+3068250D01*
X-268250Y+3100000D02*
X-268359Y+3097366D01*
X-269249Y+3092097D01*
X-271111Y+3086828D01*
X-274154Y+3081559D01*
X-278809Y+3076357D01*
X-284078Y+3072531D01*
X-289347Y+3070091D01*
X-294616Y+3068710D01*
X-299885Y+3068250D01*
X-300000Y+3068250D01*
X-416840Y+2941250D02*
X-432080Y+2925375D01*
X-432080Y+2877750D01*
X-416840Y+2861875D01*
X-355880Y+2861875D01*
X-340640Y+2877750D01*
X-340640Y+2925375D01*
X-355880Y+2941250D01*
X-371120Y+2941250D01*
X-386360Y+2925375D01*
X-386360Y+2861875D01*
X-416840Y+2988875D02*
X-432080Y+3004750D01*
X-432080Y+3052375D01*
X-416840Y+3068250D01*
X-401600Y+3068250D01*
X-386360Y+3052375D01*
X-386360Y+3004750D01*
X-371120Y+2988875D01*
X-340640Y+2988875D01*
X-340640Y+3068250D01*
X-340640Y+3100000D02*
X-401600Y+3100000D01*
X-386360Y+3100000D02*
X-401600Y+3115875D01*
X-371120Y+3147625D01*
X-401600Y+3179375D01*
X-386360Y+3195250D01*
X-340640Y+3195250D01*
X-340640Y+3227000D02*
X-401600Y+3227000D01*
X-386360Y+3227000D02*
X-401600Y+3242875D01*
X-371120Y+3274625D01*
X-401600Y+3306375D01*
X-386360Y+3322250D01*
X-340640Y+3322250D01*
X+4600000Y+5500000D02*
X+4600000Y+0D01*
X+4600000Y+5500000D02*
X+4473000Y+5373000D01*
X+4600000Y+5500000D02*
X+4727000Y+5373000D01*
X+4600000Y+0D02*
X+4727000Y+127000D01*
X+4600000Y+0D02*
X+4473000Y+127000D01*
X+4631750Y+2750000D02*
X+4631641Y+2752634D01*
X+4630751Y+2757903D01*
X+4628889Y+2763172D01*
X+4625846Y+2768441D01*
X+4621191Y+2773643D01*
X+4615922Y+2777469D01*
X+4610653Y+2779909D01*
X+4605384Y+2781290D01*
X+4600115Y+2781750D01*
X+4600000Y+2781750D01*
X+4568250Y+2750000D02*
X+4568359Y+2752634D01*
X+4569249Y+2757903D01*
X+4571111Y+2763172D01*
X+4574154Y+2768441D01*
X+4578809Y+2773643D01*
X+4584078Y+2777469D01*
X+4589347Y+2779909D01*
X+4594616Y+2781290D01*
X+4599885Y+2781750D01*
X+4600000Y+2781750D01*
X+4568250Y+2750000D02*
X+4568359Y+2747366D01*
X+4569249Y+2742097D01*
X+4571111Y+2736828D01*
X+4574154Y+2731559D01*
X+4578809Y+2726357D01*
X+4584078Y+2722531D01*
X+4589347Y+2720091D01*
X+4594616Y+2718710D01*
X+4599885Y+2718250D01*
X+4600000Y+2718250D01*
X+4631750Y+2750000D02*
X+4631641Y+2747366D01*
X+4630751Y+2742097D01*
X+4628889Y+2736828D01*
X+4625846Y+2731559D01*
X+4621191Y+2726357D01*
X+4615922Y+2722531D01*
X+4610653Y+2720091D01*
X+4605384Y+2718710D01*
X+4600115Y+2718250D01*
X+4600000Y+2718250D01*
X+4732080Y+2908750D02*
X+4732080Y+2988125D01*
X+4701600Y+2988125D01*
X+4701600Y+2924625D01*
X+4686360Y+2908750D01*
X+4655880Y+2908750D01*
X+4640640Y+2924625D01*
X+4640640Y+2972250D01*
X+4655880Y+2988125D01*
X+4732080Y+2781750D02*
X+4732080Y+2861125D01*
X+4701600Y+2861125D01*
X+4701600Y+2797625D01*
X+4686360Y+2781750D01*
X+4655880Y+2781750D01*
X+4640640Y+2797625D01*
X+4640640Y+2845250D01*
X+4655880Y+2861125D01*
X+4640640Y+2750000D02*
X+4701600Y+2750000D01*
X+4686360Y+2750000D02*
X+4701600Y+2734125D01*
X+4671120Y+2702375D01*
X+4701600Y+2670625D01*
X+4686360Y+2654750D01*
X+4640640Y+2654750D01*
X+4640640Y+2623000D02*
X+4701600Y+2623000D01*
X+4686360Y+2623000D02*
X+4701600Y+2607125D01*
X+4671120Y+2575375D01*
X+4701600Y+2543625D01*
X+4686360Y+2527750D01*
X+4640640Y+2527750D01*
D23*
X+1843840Y+5465700D02*
X+2880160Y+5465700D01*
X+2880160Y+6990160D01*
X+1843840Y+6990160D01*
X+1843840Y+5465700D01*
D37*
X+2120000Y+5580000D02*
X+2120000Y+5580000D01*
D47*
X+2393789Y+6880130D02*
X+2330212Y+6880130D01*
X+2330212Y+6820527D01*
X+2340808Y+6808607D01*
X+2351404Y+6808607D01*
X+2362000Y+6820527D01*
X+2362000Y+6880130D01*
X+2351404Y+6784765D02*
X+2330212Y+6760924D01*
X+2330212Y+6737083D01*
X+2351404Y+6713242D01*
X+2372597Y+6713242D01*
X+2393789Y+6737083D01*
X+2393789Y+6760924D01*
X+2372597Y+6784765D01*
X+2351404Y+6784765D01*
X+2330212Y+6689400D02*
X+2393789Y+6689400D01*
X+2362000Y+6653639D01*
X+2393789Y+6617877D01*
X+2330212Y+6617877D01*
X+2393789Y+6522512D02*
X+2393789Y+6594035D01*
X+2330212Y+6594035D01*
X+2330212Y+6522512D01*
X+2362000Y+6594035D02*
X+2362000Y+6546353D01*
X+2393789Y+6498670D02*
X+2330212Y+6498670D01*
X+2330212Y+6439067D01*
X+2340808Y+6427147D01*
X+2351404Y+6427147D01*
X+2362000Y+6439067D01*
X+2362000Y+6498670D01*
X+2362000Y+6439067D02*
X+2372597Y+6427147D01*
X+2393789Y+6427147D01*
X+2383193Y+6307940D02*
X+2393789Y+6296020D01*
X+2393789Y+6248337D01*
X+2383193Y+6236417D01*
X+2372597Y+6236417D01*
X+2362000Y+6248337D01*
X+2362000Y+6296020D01*
X+2351404Y+6307940D01*
X+2340808Y+6307940D01*
X+2330212Y+6296020D01*
X+2330212Y+6248337D01*
X+2340808Y+6236417D01*
X+2330212Y+6212575D02*
X+2393789Y+6212575D01*
X+2362000Y+6176814D01*
X+2393789Y+6141052D01*
X+2330212Y+6141052D01*
X+2330212Y+6105290D02*
X+2330212Y+6057607D01*
X+2330212Y+6081449D02*
X+2393789Y+6081449D01*
X+2393789Y+6105290D02*
X+2393789Y+6057607D01*
X+2330212Y+6021845D02*
X+2330212Y+5950322D01*
X+2330212Y+5986084D02*
X+2393789Y+5986084D01*
X+2383193Y+5854957D02*
X+2393789Y+5866877D01*
X+2393789Y+5902639D01*
X+2372597Y+5926480D01*
X+2351404Y+5926480D01*
X+2330212Y+5902639D01*
X+2330212Y+5866877D01*
X+2340808Y+5854957D01*
X+2393789Y+5831115D02*
X+2330212Y+5831115D01*
X+2330212Y+5759592D02*
X+2393789Y+5759592D01*
X+2362000Y+5831115D02*
X+2362000Y+5759592D01*
D26*
X+3339000Y+4516000D02*
X+3964000Y+4516000D01*
X+3964000Y+5344000D01*
X+3339000Y+5344000D01*
X+3339000Y+4516000D01*
D44*
X+3680000Y+5110000D02*
X+3680000Y+5110000D01*
D48*
X+3832299Y+4850446D02*
X+3832299Y+4750002D01*
X+3809700Y+4729913D01*
X+3719300Y+4729913D01*
X+3696700Y+4750002D01*
X+3696700Y+4850446D01*
X+3515901Y+4850446D02*
X+3628901Y+4850446D01*
X+3628901Y+4810268D01*
X+3538501Y+4810268D01*
X+3515901Y+4790180D01*
X+3515901Y+4750002D01*
X+3538501Y+4729913D01*
X+3606301Y+4729913D01*
X+3628901Y+4750002D01*
M02*
