G04 PROTEUS GERBER X2 FILE*
%TF.GenerationSoftware,Labcenter,Proteus,8.12-SP0-Build30713*%
%TF.CreationDate,2023-07-17T11:58:22+00:00*%
%TF.FileFunction,Copper,L1,Top*%
%TF.FilePolarity,Positive*%
%TF.Part,Single*%
%TF.SameCoordinates,{929d0d33-b1dc-492e-9cfe-804fc5f4831e}*%
%FSLAX45Y45*%
%MOMM*%
G01*
%TA.AperFunction,Conductor*%
%ADD10C,0.508000*%
%ADD11C,0.762000*%
%ADD12C,0.254000*%
%TA.AperFunction,ComponentPad*%
%ADD13C,2.286000*%
%ADD14C,1.524000*%
%TA.AperFunction,ComponentPad*%
%ADD15R,2.032000X2.032000*%
%TA.AperFunction,ComponentPad*%
%ADD16C,2.032000*%
%TA.AperFunction,ComponentPad*%
%ADD17C,1.778000*%
%TA.AperFunction,ComponentPad*%
%ADD18R,1.500000X1.500000*%
%ADD19C,1.500000*%
%TA.AperFunction,NonConductor*%
%ADD70C,0.254000*%
%ADD71C,0.063500*%
%TA.AperFunction,Profile*%
%ADD20C,0.203200*%
%TA.AperFunction,NonMaterial*%
%ADD21C,0.203200*%
%TD.AperFunction*%
G36*
X+3022201Y+6093647D02*
X+3022201Y+5946353D01*
X+3126353Y+5842201D01*
X+3131849Y+5842201D01*
X+3698951Y+5275099D01*
X+3611614Y+5275099D01*
X+3514901Y+5178386D01*
X+3514901Y+5041614D01*
X+3559816Y+4996699D01*
X+3040865Y+4996699D01*
X+2932399Y+5105165D01*
X+2932399Y+5123126D01*
X+2919699Y+5135826D01*
X+2919699Y+5247865D01*
X+2749505Y+5418059D01*
X+2837799Y+5506353D01*
X+2837799Y+5653647D01*
X+2733647Y+5757799D01*
X+2586353Y+5757799D01*
X+2525000Y+5696446D01*
X+2463647Y+5757799D01*
X+2316353Y+5757799D01*
X+2255000Y+5696446D01*
X+2193647Y+5757799D01*
X+2046353Y+5757799D01*
X+1942201Y+5653647D01*
X+1942201Y+5506353D01*
X+1980301Y+5468253D01*
X+1980301Y+5412135D01*
X+2161224Y+5231212D01*
X+1887799Y+4957787D01*
X+1887799Y+5083647D01*
X+1783647Y+5187799D01*
X+1636353Y+5187799D01*
X+1536999Y+5088445D01*
X+1536999Y+5341474D01*
X+1562399Y+5366874D01*
X+1562399Y+5493126D01*
X+1473126Y+5582399D01*
X+1346874Y+5582399D01*
X+1257601Y+5493126D01*
X+1257601Y+5366874D01*
X+1283001Y+5341474D01*
X+1283001Y+5048399D01*
X+1186999Y+5048399D01*
X+1186999Y+5341474D01*
X+1212399Y+5366874D01*
X+1212399Y+5493126D01*
X+1123126Y+5582399D01*
X+996874Y+5582399D01*
X+907601Y+5493126D01*
X+907601Y+5366874D01*
X+933001Y+5341474D01*
X+933001Y+5048399D01*
X+826999Y+5048399D01*
X+826999Y+5341474D01*
X+852399Y+5366874D01*
X+852399Y+5493126D01*
X+763126Y+5582399D01*
X+636874Y+5582399D01*
X+547601Y+5493126D01*
X+547601Y+5366874D01*
X+573001Y+5341474D01*
X+573001Y+5048399D01*
X+466999Y+5048399D01*
X+466999Y+5492603D01*
X+462399Y+5497203D01*
X+462399Y+5503126D01*
X+373126Y+5592399D01*
X+246874Y+5592399D01*
X+157601Y+5503126D01*
X+157601Y+5376874D01*
X+213001Y+5321474D01*
X+213001Y+5048399D01*
X+106874Y+5048399D01*
X+86359Y+5027884D01*
X+86359Y+6113640D01*
X+1993801Y+6113640D01*
X+1993801Y+6047727D01*
X+2067727Y+5973801D01*
X+2172273Y+5973801D01*
X+2246199Y+6047727D01*
X+2246199Y+6113640D01*
X+2533801Y+6113640D01*
X+2533801Y+6037727D01*
X+2607727Y+5963801D01*
X+2712273Y+5963801D01*
X+2786199Y+6037727D01*
X+2786199Y+6113640D01*
X+3042194Y+6113640D01*
X+3022201Y+6093647D01*
G37*
%LPC*%
G36*
X+462399Y+5884874D02*
X+462399Y+6011126D01*
X+373126Y+6100399D01*
X+246874Y+6100399D01*
X+157601Y+6011126D01*
X+157601Y+5884874D01*
X+246874Y+5795601D01*
X+373126Y+5795601D01*
X+462399Y+5884874D01*
G37*
G36*
X+852399Y+5874874D02*
X+852399Y+6001126D01*
X+763126Y+6090399D01*
X+636874Y+6090399D01*
X+547601Y+6001126D01*
X+547601Y+5874874D01*
X+636874Y+5785601D01*
X+763126Y+5785601D01*
X+852399Y+5874874D01*
G37*
G36*
X+1212399Y+5874874D02*
X+1212399Y+6001126D01*
X+1123126Y+6090399D01*
X+996874Y+6090399D01*
X+907601Y+6001126D01*
X+907601Y+5874874D01*
X+996874Y+5785601D01*
X+1123126Y+5785601D01*
X+1212399Y+5874874D01*
G37*
G36*
X+1562399Y+5874874D02*
X+1562399Y+6001126D01*
X+1473126Y+6090399D01*
X+1346874Y+6090399D01*
X+1257601Y+6001126D01*
X+1257601Y+5874874D01*
X+1346874Y+5785601D01*
X+1473126Y+5785601D01*
X+1562399Y+5874874D01*
G37*
%LPD*%
G36*
X+3522201Y+6093647D02*
X+3522201Y+5946353D01*
X+3626353Y+5842201D01*
X+3773647Y+5842201D01*
X+3813640Y+5882194D01*
X+3813640Y+5555538D01*
X+3377799Y+5991379D01*
X+3377799Y+6093647D01*
X+3357806Y+6113640D01*
X+3542194Y+6113640D01*
X+3522201Y+6093647D01*
G37*
G36*
X+4313640Y+5157806D02*
X+4283647Y+5187799D01*
X+4136353Y+5187799D01*
X+4066586Y+5118032D01*
X+4066586Y+5302592D01*
X+3955538Y+5413640D01*
X+4313640Y+5413640D01*
X+4313640Y+5157806D01*
G37*
G36*
X+106874Y+4743601D02*
X+213001Y+4743601D01*
X+213001Y+4122603D01*
X+122797Y+4032399D01*
X+106874Y+4032399D01*
X+86359Y+4011884D01*
X+86359Y+4764116D01*
X+106874Y+4743601D01*
G37*
G36*
X+1612495Y+4856059D02*
X+1570301Y+4813865D01*
X+1570301Y+4698135D01*
X+1639436Y+4629000D01*
X+1570301Y+4559865D01*
X+1570301Y+4444135D01*
X+1639436Y+4375000D01*
X+1570301Y+4305865D01*
X+1570301Y+4190135D01*
X+1639436Y+4121000D01*
X+1570301Y+4051865D01*
X+1570301Y+3936135D01*
X+1639436Y+3867000D01*
X+1570301Y+3797865D01*
X+1570301Y+3682135D01*
X+1639436Y+3613000D01*
X+1570301Y+3543865D01*
X+1570301Y+3428135D01*
X+1639436Y+3359000D01*
X+1570301Y+3289865D01*
X+1570301Y+3174135D01*
X+1639436Y+3105000D01*
X+1570301Y+3035865D01*
X+1570301Y+2920135D01*
X+1639436Y+2851000D01*
X+1570301Y+2781865D01*
X+1570301Y+2666135D01*
X+1639436Y+2597000D01*
X+1570301Y+2527865D01*
X+1570301Y+2412135D01*
X+1639436Y+2343000D01*
X+1570301Y+2273865D01*
X+1570301Y+2158135D01*
X+1639436Y+2089000D01*
X+1570301Y+2019865D01*
X+1570301Y+1904135D01*
X+1639436Y+1835000D01*
X+1570301Y+1765865D01*
X+1570301Y+1650135D01*
X+1639436Y+1581000D01*
X+1570301Y+1511865D01*
X+1570301Y+1396135D01*
X+1639436Y+1327000D01*
X+1638442Y+1326006D01*
X+1599471Y+1364813D01*
X+542399Y+1362592D01*
X+542399Y+1487126D01*
X+453126Y+1576399D01*
X+326874Y+1576399D01*
X+237601Y+1487126D01*
X+237601Y+1361952D01*
X+86359Y+1361634D01*
X+86359Y+2106077D01*
X+707135Y+1485301D01*
X+822865Y+1485301D01*
X+904699Y+1567135D01*
X+904699Y+1682865D01*
X+257154Y+2330410D01*
X+257154Y+2357321D01*
X+326874Y+2287601D01*
X+453126Y+2287601D01*
X+542399Y+2376874D01*
X+542399Y+2503126D01*
X+453126Y+2592399D01*
X+326874Y+2592399D01*
X+257154Y+2522679D01*
X+257154Y+2630521D01*
X+328834Y+2702201D01*
X+423647Y+2702201D01*
X+461747Y+2740301D01*
X+538253Y+2740301D01*
X+576353Y+2702201D01*
X+723647Y+2702201D01*
X+761747Y+2740301D01*
X+838253Y+2740301D01*
X+876353Y+2702201D01*
X+1023647Y+2702201D01*
X+1061747Y+2740301D01*
X+1138253Y+2740301D01*
X+1176353Y+2702201D01*
X+1323647Y+2702201D01*
X+1427799Y+2806353D01*
X+1427799Y+2953647D01*
X+1366545Y+3014901D01*
X+1415099Y+3014901D01*
X+1415099Y+3345099D01*
X+1376999Y+3345099D01*
X+1376999Y+3811474D01*
X+1382399Y+3816874D01*
X+1382399Y+3832797D01*
X+1536999Y+3987397D01*
X+1536999Y+4931555D01*
X+1612495Y+4856059D01*
G37*
%LPC*%
G36*
X+1076501Y+2413499D02*
X+1076501Y+2136501D01*
X+1353499Y+2136501D01*
X+1353499Y+2413499D01*
X+1076501Y+2413499D01*
G37*
G36*
X+1076501Y+1682368D02*
X+1076501Y+1567632D01*
X+1157632Y+1486501D01*
X+1272368Y+1486501D01*
X+1353499Y+1567632D01*
X+1353499Y+1682368D01*
X+1272368Y+1763499D01*
X+1157632Y+1763499D01*
X+1076501Y+1682368D01*
G37*
G36*
X+626501Y+2332368D02*
X+626501Y+2217632D01*
X+707632Y+2136501D01*
X+822368Y+2136501D01*
X+903499Y+2217632D01*
X+903499Y+2332368D01*
X+822368Y+2413499D01*
X+707632Y+2413499D01*
X+626501Y+2332368D01*
G37*
%LPD*%
G36*
X+1840301Y+2381614D02*
X+1937014Y+2284901D01*
X+2073786Y+2284901D01*
X+2125701Y+2336816D01*
X+2125701Y+1666735D01*
X+2177601Y+1614835D01*
X+2177601Y+1596874D01*
X+2266874Y+1507601D01*
X+2393126Y+1507601D01*
X+2482399Y+1596874D01*
X+2482399Y+1723126D01*
X+2405099Y+1800426D01*
X+2405099Y+2356214D01*
X+2408360Y+2359476D01*
X+2457535Y+2310301D01*
X+2573265Y+2310301D01*
X+2640400Y+2377436D01*
X+2707535Y+2310301D01*
X+2823265Y+2310301D01*
X+2895400Y+2382436D01*
X+2967535Y+2310301D01*
X+3083265Y+2310301D01*
X+3150400Y+2377436D01*
X+3217535Y+2310301D01*
X+3333265Y+2310301D01*
X+3400400Y+2377436D01*
X+3467535Y+2310301D01*
X+3583265Y+2310301D01*
X+3655400Y+2382436D01*
X+3706140Y+2331696D01*
X+3461443Y+2086999D01*
X+3138526Y+2086999D01*
X+3113126Y+2112399D01*
X+2986874Y+2112399D01*
X+2897601Y+2023126D01*
X+2897601Y+1896874D01*
X+2986874Y+1807601D01*
X+3113126Y+1807601D01*
X+3138526Y+1833001D01*
X+3566649Y+1833001D01*
X+3727601Y+1993953D01*
X+3727601Y+1896874D01*
X+3816874Y+1807601D01*
X+3943126Y+1807601D01*
X+4032399Y+1896874D01*
X+4032399Y+1932797D01*
X+4070301Y+1970699D01*
X+4070301Y+1904135D01*
X+4139436Y+1835000D01*
X+4070301Y+1765865D01*
X+4070301Y+1650135D01*
X+4139436Y+1581000D01*
X+4070301Y+1511865D01*
X+4070301Y+1396135D01*
X+4139436Y+1327000D01*
X+4070301Y+1257865D01*
X+4070301Y+1142135D01*
X+4139436Y+1073000D01*
X+4070301Y+1003865D01*
X+4070301Y+888135D01*
X+4139436Y+819000D01*
X+4070301Y+749865D01*
X+4070301Y+634135D01*
X+4139436Y+565000D01*
X+4070301Y+495865D01*
X+4070301Y+380135D01*
X+4152135Y+298301D01*
X+4267865Y+298301D01*
X+4313640Y+344076D01*
X+4313640Y+86360D01*
X+3919324Y+86360D01*
X+3925099Y+92135D01*
X+3925099Y+207865D01*
X+3843265Y+289699D01*
X+3727535Y+289699D01*
X+3655400Y+217564D01*
X+3583265Y+289699D01*
X+3467535Y+289699D01*
X+3400400Y+222564D01*
X+3333265Y+289699D01*
X+3217535Y+289699D01*
X+3150400Y+222564D01*
X+3083265Y+289699D01*
X+2967535Y+289699D01*
X+2895400Y+217564D01*
X+2823265Y+289699D01*
X+2707535Y+289699D01*
X+2640400Y+222564D01*
X+2573265Y+289699D01*
X+2457535Y+289699D01*
X+2390400Y+222564D01*
X+2323265Y+289699D01*
X+2207535Y+289699D01*
X+2153360Y+235524D01*
X+2073786Y+315099D01*
X+1937014Y+315099D01*
X+1840301Y+218386D01*
X+1840301Y+86360D01*
X+1640026Y+86360D01*
X+1661689Y+108069D01*
X+1661361Y+260201D01*
X+1783647Y+260201D01*
X+1887799Y+364353D01*
X+1887799Y+511647D01*
X+1807505Y+591941D01*
X+1849699Y+634135D01*
X+1849699Y+749865D01*
X+1780564Y+819000D01*
X+1849699Y+888135D01*
X+1849699Y+1003865D01*
X+1780564Y+1073000D01*
X+1849699Y+1142135D01*
X+1849699Y+1257865D01*
X+1780564Y+1327000D01*
X+1849699Y+1396135D01*
X+1849699Y+1511865D01*
X+1780564Y+1581000D01*
X+1849699Y+1650135D01*
X+1849699Y+1765865D01*
X+1780564Y+1835000D01*
X+1849699Y+1904135D01*
X+1849699Y+2019865D01*
X+1780564Y+2089000D01*
X+1849699Y+2158135D01*
X+1849699Y+2273865D01*
X+1780564Y+2343000D01*
X+1840301Y+2402737D01*
X+1840301Y+2381614D01*
G37*
%LPC*%
G36*
X+2177601Y+1215126D02*
X+2177601Y+1088874D01*
X+2266874Y+999601D01*
X+2393126Y+999601D01*
X+2482399Y+1088874D01*
X+2482399Y+1215126D01*
X+2393126Y+1304399D01*
X+2266874Y+1304399D01*
X+2177601Y+1215126D01*
G37*
G36*
X+3727601Y+1007126D02*
X+3727601Y+880874D01*
X+3816874Y+791601D01*
X+3943126Y+791601D01*
X+4032399Y+880874D01*
X+4032399Y+1007126D01*
X+3943126Y+1096399D01*
X+3816874Y+1096399D01*
X+3727601Y+1007126D01*
G37*
G36*
X+3317601Y+1723126D02*
X+3317601Y+1596874D01*
X+3406874Y+1507601D01*
X+3533126Y+1507601D01*
X+3622399Y+1596874D01*
X+3622399Y+1723126D01*
X+3533126Y+1812399D01*
X+3406874Y+1812399D01*
X+3317601Y+1723126D01*
G37*
G36*
X+3317601Y+1215126D02*
X+3317601Y+1088874D01*
X+3406874Y+999601D01*
X+3533126Y+999601D01*
X+3622399Y+1088874D01*
X+3622399Y+1215126D01*
X+3533126Y+1304399D01*
X+3406874Y+1304399D01*
X+3317601Y+1215126D01*
G37*
G36*
X+2897601Y+1007126D02*
X+2897601Y+880874D01*
X+2986874Y+791601D01*
X+3113126Y+791601D01*
X+3202399Y+880874D01*
X+3202399Y+1007126D01*
X+3113126Y+1096399D01*
X+2986874Y+1096399D01*
X+2897601Y+1007126D01*
G37*
G36*
X+2557601Y+1723126D02*
X+2557601Y+1596874D01*
X+2646874Y+1507601D01*
X+2773126Y+1507601D01*
X+2862399Y+1596874D01*
X+2862399Y+1723126D01*
X+2773126Y+1812399D01*
X+2646874Y+1812399D01*
X+2557601Y+1723126D01*
G37*
G36*
X+2557601Y+1215126D02*
X+2557601Y+1088874D01*
X+2646874Y+999601D01*
X+2773126Y+999601D01*
X+2862399Y+1088874D01*
X+2862399Y+1215126D01*
X+2773126Y+1304399D01*
X+2646874Y+1304399D01*
X+2557601Y+1215126D01*
G37*
%LPD*%
G36*
X+1283001Y+4092603D02*
X+1222797Y+4032399D01*
X+1186999Y+4032399D01*
X+1186999Y+4743601D01*
X+1283001Y+4743601D01*
X+1283001Y+4092603D01*
G37*
G36*
X+933001Y+4122603D02*
X+842797Y+4032399D01*
X+826999Y+4032399D01*
X+826999Y+4743601D01*
X+933001Y+4743601D01*
X+933001Y+4122603D01*
G37*
G36*
X+573001Y+4122603D02*
X+482797Y+4032399D01*
X+466999Y+4032399D01*
X+466999Y+4743601D01*
X+573001Y+4743601D01*
X+573001Y+4122603D01*
G37*
G36*
X+2638456Y+5133980D02*
X+2627601Y+5123126D01*
X+2627601Y+4996874D01*
X+2716874Y+4907601D01*
X+2734835Y+4907601D01*
X+2925135Y+4717301D01*
X+3553816Y+4717301D01*
X+3514901Y+4678386D01*
X+3514901Y+4541614D01*
X+3540301Y+4516214D01*
X+3540301Y+4332135D01*
X+3662201Y+4210235D01*
X+3662201Y+4156353D01*
X+3701514Y+4117040D01*
X+3687601Y+4103126D01*
X+3687601Y+3976874D01*
X+3776874Y+3887601D01*
X+3903126Y+3887601D01*
X+3992399Y+3976874D01*
X+3992399Y+4103126D01*
X+3978486Y+4117040D01*
X+4017799Y+4156353D01*
X+4017799Y+4303647D01*
X+3913647Y+4407799D01*
X+3859765Y+4407799D01*
X+3819699Y+4447865D01*
X+3819699Y+4470301D01*
X+3967866Y+4470301D01*
X+4066586Y+4569021D01*
X+4066586Y+4901968D01*
X+4112495Y+4856059D01*
X+4070301Y+4813865D01*
X+4070301Y+4698135D01*
X+4139436Y+4629000D01*
X+4070301Y+4559865D01*
X+4070301Y+4444135D01*
X+4139436Y+4375000D01*
X+4070301Y+4305865D01*
X+4070301Y+4190135D01*
X+4139436Y+4121000D01*
X+4070301Y+4051865D01*
X+4070301Y+3936135D01*
X+4139436Y+3867000D01*
X+4070301Y+3797865D01*
X+4070301Y+3682135D01*
X+4139436Y+3613000D01*
X+4070301Y+3543865D01*
X+4070301Y+3428135D01*
X+4139436Y+3359000D01*
X+4070301Y+3289865D01*
X+4070301Y+3174135D01*
X+4139436Y+3105000D01*
X+4070301Y+3035865D01*
X+4070301Y+2924552D01*
X+3987854Y+3006999D01*
X+3234447Y+3006999D01*
X+3226545Y+3014901D01*
X+3275099Y+3014901D01*
X+3275099Y+3345099D01*
X+2949699Y+3345099D01*
X+2949699Y+4217865D01*
X+2917799Y+4249765D01*
X+2917799Y+4303647D01*
X+2821845Y+4399601D01*
X+2843126Y+4399601D01*
X+2932399Y+4488874D01*
X+2932399Y+4615126D01*
X+2843126Y+4704399D01*
X+2716874Y+4704399D01*
X+2627601Y+4615126D01*
X+2627601Y+4488874D01*
X+2708676Y+4407799D01*
X+2666353Y+4407799D01*
X+2562201Y+4303647D01*
X+2562201Y+4189245D01*
X+2463647Y+4287799D01*
X+2316353Y+4287799D01*
X+2212201Y+4183647D01*
X+2212201Y+4036353D01*
X+2316353Y+3932201D01*
X+2370235Y+3932201D01*
X+2370301Y+3932135D01*
X+2370301Y+3291747D01*
X+2360000Y+3281446D01*
X+2283647Y+3357799D01*
X+2229765Y+3357799D01*
X+2125827Y+3461737D01*
X+2125827Y+4800687D01*
X+2357341Y+5032201D01*
X+2463647Y+5032201D01*
X+2567799Y+5136353D01*
X+2567799Y+5204637D01*
X+2638456Y+5133980D01*
G37*
%LPC*%
G36*
X+3687601Y+3595126D02*
X+3687601Y+3468874D01*
X+3776874Y+3379601D01*
X+3903126Y+3379601D01*
X+3992399Y+3468874D01*
X+3992399Y+3595126D01*
X+3903126Y+3684399D01*
X+3776874Y+3684399D01*
X+3687601Y+3595126D01*
G37*
%LPD*%
G36*
X+1846429Y+3403872D02*
X+1846429Y+3346007D01*
X+2032201Y+3160235D01*
X+2032201Y+3106353D01*
X+2108554Y+3030000D01*
X+2032201Y+2953647D01*
X+2032201Y+2806353D01*
X+2136353Y+2702201D01*
X+2283647Y+2702201D01*
X+2360000Y+2778554D01*
X+2436353Y+2702201D01*
X+2583647Y+2702201D01*
X+2660000Y+2778554D01*
X+2736353Y+2702201D01*
X+2808197Y+2702201D01*
X+2944117Y+2566281D01*
X+2895400Y+2517564D01*
X+2823265Y+2589699D01*
X+2707535Y+2589699D01*
X+2640400Y+2522564D01*
X+2573265Y+2589699D01*
X+2457535Y+2589699D01*
X+2408360Y+2540524D01*
X+2333786Y+2615099D01*
X+2197014Y+2615099D01*
X+2135400Y+2553485D01*
X+2073786Y+2615099D01*
X+1937014Y+2615099D01*
X+1849699Y+2527784D01*
X+1849699Y+2527865D01*
X+1780564Y+2597000D01*
X+1849699Y+2666135D01*
X+1849699Y+2781865D01*
X+1780564Y+2851000D01*
X+1849699Y+2920135D01*
X+1849699Y+3035865D01*
X+1780564Y+3105000D01*
X+1849699Y+3174135D01*
X+1849699Y+3289865D01*
X+1780564Y+3359000D01*
X+1846429Y+3424865D01*
X+1846429Y+3403872D01*
G37*
D10*
X+650000Y+3180000D02*
X+510000Y+3320000D01*
X+510000Y+3880000D01*
X+950000Y+3180000D02*
X+870000Y+3260000D01*
X+870000Y+3880000D01*
X+1250000Y+3180000D02*
X+1250000Y+3860000D01*
X+1230000Y+3880000D01*
D11*
X+2510000Y+3180000D02*
X+2510000Y+3990000D01*
X+2390000Y+4110000D01*
X+2380000Y+5210000D02*
X+2120000Y+5470000D01*
X+2120000Y+5590000D01*
X+2120000Y+5580000D01*
X+2210000Y+3180000D02*
X+1986128Y+3403872D01*
X+1986128Y+4858552D01*
X+2337576Y+5210000D01*
X+2380000Y+5210000D01*
X+2390000Y+5210000D01*
X+2390000Y+5580000D02*
X+2780000Y+5190000D01*
X+2780000Y+5060000D01*
X+2983000Y+4857000D01*
X+3680000Y+4857000D01*
X+3680000Y+4610000D02*
X+3680000Y+4390000D01*
X+3840000Y+4230000D01*
X+2740000Y+4230000D02*
X+2810000Y+4160000D01*
X+2810000Y+3180000D01*
X+3110000Y+3180000D02*
X+2810000Y+3180000D01*
X+765000Y+1625000D02*
X+117455Y+2272545D01*
X+117455Y+2688386D01*
X+309069Y+2880000D01*
X+350000Y+2880000D01*
X+650000Y+2880000D01*
X+835700Y+2880000D01*
X+950000Y+2880000D01*
X+1250000Y+2880000D01*
D10*
X+700000Y+5430000D02*
X+700000Y+4070000D01*
X+510000Y+3880000D01*
X+1060000Y+5430000D02*
X+1060000Y+4070000D01*
X+870000Y+3880000D01*
X+1410000Y+5430000D02*
X+1410000Y+4040000D01*
X+1250000Y+3880000D01*
X+1230000Y+3880000D01*
X+350000Y+3180000D02*
X+380000Y+3180000D01*
X+170000Y+3390000D01*
X+170000Y+3880000D01*
X+310000Y+5440000D02*
X+340000Y+5440000D01*
X+340000Y+4070000D01*
X+150000Y+3880000D01*
X+170000Y+3880000D01*
D11*
X+3680000Y+4610000D02*
X+3910001Y+4610000D01*
X+3926887Y+4626886D01*
X+3926887Y+5244727D01*
X+3200000Y+5971614D01*
X+3200000Y+6020000D01*
D10*
X+3110000Y+2880000D02*
X+3935251Y+2880000D01*
X+4050000Y+2765251D01*
X+4050000Y+2130000D01*
X+3880000Y+1960000D01*
D11*
X+2330000Y+1660000D02*
X+2265400Y+1724600D01*
X+2265400Y+2450000D01*
D10*
X+2810000Y+2880000D02*
X+3000444Y+2689556D01*
X+3834573Y+2689556D01*
X+3910000Y+2614129D01*
X+3910000Y+2355954D01*
X+3514046Y+1960000D01*
X+3050000Y+1960000D01*
D12*
X+3022201Y+6093647D02*
X+3022201Y+5946353D01*
X+3126353Y+5842201D01*
X+3131849Y+5842201D01*
X+3698951Y+5275099D01*
X+3611614Y+5275099D01*
X+3514901Y+5178386D01*
X+3514901Y+5041614D01*
X+3559816Y+4996699D01*
X+3040865Y+4996699D01*
X+2932399Y+5105165D01*
X+2932399Y+5123126D01*
X+2919699Y+5135826D01*
X+2919699Y+5247865D01*
X+2749505Y+5418059D01*
X+2837799Y+5506353D01*
X+2837799Y+5653647D01*
X+2733647Y+5757799D01*
X+2586353Y+5757799D01*
X+2525000Y+5696446D01*
X+2463647Y+5757799D01*
X+2316353Y+5757799D01*
X+2255000Y+5696446D01*
X+2193647Y+5757799D01*
X+2046353Y+5757799D01*
X+1942201Y+5653647D01*
X+1942201Y+5506353D01*
X+1980301Y+5468253D01*
X+1980301Y+5412135D01*
X+2161224Y+5231212D01*
X+1887799Y+4957787D01*
X+1887799Y+5083647D01*
X+1783647Y+5187799D01*
X+1636353Y+5187799D01*
X+1536999Y+5088445D01*
X+1536999Y+5341474D01*
X+1562399Y+5366874D01*
X+1562399Y+5493126D01*
X+1473126Y+5582399D01*
X+1346874Y+5582399D01*
X+1257601Y+5493126D01*
X+1257601Y+5366874D01*
X+1283001Y+5341474D01*
X+1283001Y+5048399D01*
X+1186999Y+5048399D01*
X+1186999Y+5341474D01*
X+1212399Y+5366874D01*
X+1212399Y+5493126D01*
X+1123126Y+5582399D01*
X+996874Y+5582399D01*
X+907601Y+5493126D01*
X+907601Y+5366874D01*
X+933001Y+5341474D01*
X+933001Y+5048399D01*
X+826999Y+5048399D01*
X+826999Y+5341474D01*
X+852399Y+5366874D01*
X+852399Y+5493126D01*
X+763126Y+5582399D01*
X+636874Y+5582399D01*
X+547601Y+5493126D01*
X+547601Y+5366874D01*
X+573001Y+5341474D01*
X+573001Y+5048399D01*
X+466999Y+5048399D01*
X+466999Y+5492603D01*
X+462399Y+5497203D01*
X+462399Y+5503126D01*
X+373126Y+5592399D01*
X+246874Y+5592399D01*
X+157601Y+5503126D01*
X+157601Y+5376874D01*
X+213001Y+5321474D01*
X+213001Y+5048399D01*
X+106874Y+5048399D01*
X+86359Y+5027884D01*
X+86359Y+6113640D01*
X+1993801Y+6113640D01*
X+1993801Y+6047727D01*
X+2067727Y+5973801D01*
X+2172273Y+5973801D01*
X+2246199Y+6047727D01*
X+2246199Y+6113640D01*
X+2533801Y+6113640D01*
X+2533801Y+6037727D01*
X+2607727Y+5963801D01*
X+2712273Y+5963801D01*
X+2786199Y+6037727D01*
X+2786199Y+6113640D01*
X+3042194Y+6113640D01*
X+3022201Y+6093647D01*
X+462399Y+5884874D02*
X+462399Y+6011126D01*
X+373126Y+6100399D01*
X+246874Y+6100399D01*
X+157601Y+6011126D01*
X+157601Y+5884874D01*
X+246874Y+5795601D01*
X+373126Y+5795601D01*
X+462399Y+5884874D01*
X+852399Y+5874874D02*
X+852399Y+6001126D01*
X+763126Y+6090399D01*
X+636874Y+6090399D01*
X+547601Y+6001126D01*
X+547601Y+5874874D01*
X+636874Y+5785601D01*
X+763126Y+5785601D01*
X+852399Y+5874874D01*
X+1212399Y+5874874D02*
X+1212399Y+6001126D01*
X+1123126Y+6090399D01*
X+996874Y+6090399D01*
X+907601Y+6001126D01*
X+907601Y+5874874D01*
X+996874Y+5785601D01*
X+1123126Y+5785601D01*
X+1212399Y+5874874D01*
X+1562399Y+5874874D02*
X+1562399Y+6001126D01*
X+1473126Y+6090399D01*
X+1346874Y+6090399D01*
X+1257601Y+6001126D01*
X+1257601Y+5874874D01*
X+1346874Y+5785601D01*
X+1473126Y+5785601D01*
X+1562399Y+5874874D01*
X+3522201Y+6093647D02*
X+3522201Y+5946353D01*
X+3626353Y+5842201D01*
X+3773647Y+5842201D01*
X+3813640Y+5882194D01*
X+3813640Y+5555538D01*
X+3377799Y+5991379D01*
X+3377799Y+6093647D01*
X+3357806Y+6113640D01*
X+3542194Y+6113640D01*
X+3522201Y+6093647D01*
X+4313640Y+5157806D02*
X+4283647Y+5187799D01*
X+4136353Y+5187799D01*
X+4066586Y+5118032D01*
X+4066586Y+5302592D01*
X+3955538Y+5413640D01*
X+4313640Y+5413640D01*
X+4313640Y+5157806D01*
X+106874Y+4743601D02*
X+213001Y+4743601D01*
X+213001Y+4122603D01*
X+122797Y+4032399D01*
X+106874Y+4032399D01*
X+86359Y+4011884D01*
X+86359Y+4764116D01*
X+106874Y+4743601D01*
X+1612495Y+4856059D02*
X+1570301Y+4813865D01*
X+1570301Y+4698135D01*
X+1639436Y+4629000D01*
X+1570301Y+4559865D01*
X+1570301Y+4444135D01*
X+1639436Y+4375000D01*
X+1570301Y+4305865D01*
X+1570301Y+4190135D01*
X+1639436Y+4121000D01*
X+1570301Y+4051865D01*
X+1570301Y+3936135D01*
X+1639436Y+3867000D01*
X+1570301Y+3797865D01*
X+1570301Y+3682135D01*
X+1639436Y+3613000D01*
X+1570301Y+3543865D01*
X+1570301Y+3428135D01*
X+1639436Y+3359000D01*
X+1570301Y+3289865D01*
X+1570301Y+3174135D01*
X+1639436Y+3105000D01*
X+1570301Y+3035865D01*
X+1570301Y+2920135D01*
X+1639436Y+2851000D01*
X+1570301Y+2781865D01*
X+1570301Y+2666135D01*
X+1639436Y+2597000D01*
X+1570301Y+2527865D01*
X+1570301Y+2412135D01*
X+1639436Y+2343000D01*
X+1570301Y+2273865D01*
X+1570301Y+2158135D01*
X+1639436Y+2089000D01*
X+1570301Y+2019865D01*
X+1570301Y+1904135D01*
X+1639436Y+1835000D01*
X+1570301Y+1765865D01*
X+1570301Y+1650135D01*
X+1639436Y+1581000D01*
X+1570301Y+1511865D01*
X+1570301Y+1396135D01*
X+1639436Y+1327000D01*
X+1638442Y+1326006D01*
X+1599471Y+1364813D01*
X+542399Y+1362592D01*
X+542399Y+1487126D01*
X+453126Y+1576399D01*
X+326874Y+1576399D01*
X+237601Y+1487126D01*
X+237601Y+1361952D01*
X+86359Y+1361634D01*
X+86359Y+2106077D01*
X+707135Y+1485301D01*
X+822865Y+1485301D01*
X+904699Y+1567135D01*
X+904699Y+1682865D01*
X+257154Y+2330410D01*
X+257154Y+2357321D01*
X+326874Y+2287601D01*
X+453126Y+2287601D01*
X+542399Y+2376874D01*
X+542399Y+2503126D01*
X+453126Y+2592399D01*
X+326874Y+2592399D01*
X+257154Y+2522679D01*
X+257154Y+2630521D01*
X+328834Y+2702201D01*
X+423647Y+2702201D01*
X+461747Y+2740301D01*
X+538253Y+2740301D01*
X+576353Y+2702201D01*
X+723647Y+2702201D01*
X+761747Y+2740301D01*
X+838253Y+2740301D01*
X+876353Y+2702201D01*
X+1023647Y+2702201D01*
X+1061747Y+2740301D01*
X+1138253Y+2740301D01*
X+1176353Y+2702201D01*
X+1323647Y+2702201D01*
X+1427799Y+2806353D01*
X+1427799Y+2953647D01*
X+1366545Y+3014901D01*
X+1415099Y+3014901D01*
X+1415099Y+3345099D01*
X+1376999Y+3345099D01*
X+1376999Y+3811474D01*
X+1382399Y+3816874D01*
X+1382399Y+3832797D01*
X+1536999Y+3987397D01*
X+1536999Y+4931555D01*
X+1612495Y+4856059D01*
X+1076501Y+2413499D02*
X+1076501Y+2136501D01*
X+1353499Y+2136501D01*
X+1353499Y+2413499D01*
X+1076501Y+2413499D01*
X+1076501Y+1682368D02*
X+1076501Y+1567632D01*
X+1157632Y+1486501D01*
X+1272368Y+1486501D01*
X+1353499Y+1567632D01*
X+1353499Y+1682368D01*
X+1272368Y+1763499D01*
X+1157632Y+1763499D01*
X+1076501Y+1682368D01*
X+626501Y+2332368D02*
X+626501Y+2217632D01*
X+707632Y+2136501D01*
X+822368Y+2136501D01*
X+903499Y+2217632D01*
X+903499Y+2332368D01*
X+822368Y+2413499D01*
X+707632Y+2413499D01*
X+626501Y+2332368D01*
X+1840301Y+2381614D02*
X+1937014Y+2284901D01*
X+2073786Y+2284901D01*
X+2125701Y+2336816D01*
X+2125701Y+1666735D01*
X+2177601Y+1614835D01*
X+2177601Y+1596874D01*
X+2266874Y+1507601D01*
X+2393126Y+1507601D01*
X+2482399Y+1596874D01*
X+2482399Y+1723126D01*
X+2405099Y+1800426D01*
X+2405099Y+2356214D01*
X+2408360Y+2359476D01*
X+2457535Y+2310301D01*
X+2573265Y+2310301D01*
X+2640400Y+2377436D01*
X+2707535Y+2310301D01*
X+2823265Y+2310301D01*
X+2895400Y+2382436D01*
X+2967535Y+2310301D01*
X+3083265Y+2310301D01*
X+3150400Y+2377436D01*
X+3217535Y+2310301D01*
X+3333265Y+2310301D01*
X+3400400Y+2377436D01*
X+3467535Y+2310301D01*
X+3583265Y+2310301D01*
X+3655400Y+2382436D01*
X+3706140Y+2331696D01*
X+3461443Y+2086999D01*
X+3138526Y+2086999D01*
X+3113126Y+2112399D01*
X+2986874Y+2112399D01*
X+2897601Y+2023126D01*
X+2897601Y+1896874D01*
X+2986874Y+1807601D01*
X+3113126Y+1807601D01*
X+3138526Y+1833001D01*
X+3566649Y+1833001D01*
X+3727601Y+1993953D01*
X+3727601Y+1896874D01*
X+3816874Y+1807601D01*
X+3943126Y+1807601D01*
X+4032399Y+1896874D01*
X+4032399Y+1932797D01*
X+4070301Y+1970699D01*
X+4070301Y+1904135D01*
X+4139436Y+1835000D01*
X+4070301Y+1765865D01*
X+4070301Y+1650135D01*
X+4139436Y+1581000D01*
X+4070301Y+1511865D01*
X+4070301Y+1396135D01*
X+4139436Y+1327000D01*
X+4070301Y+1257865D01*
X+4070301Y+1142135D01*
X+4139436Y+1073000D01*
X+4070301Y+1003865D01*
X+4070301Y+888135D01*
X+4139436Y+819000D01*
X+4070301Y+749865D01*
X+4070301Y+634135D01*
X+4139436Y+565000D01*
X+4070301Y+495865D01*
X+4070301Y+380135D01*
X+4152135Y+298301D01*
X+4267865Y+298301D01*
X+4313640Y+344076D01*
X+4313640Y+86360D01*
X+3919324Y+86360D01*
X+3925099Y+92135D01*
X+3925099Y+207865D01*
X+3843265Y+289699D01*
X+3727535Y+289699D01*
X+3655400Y+217564D01*
X+3583265Y+289699D01*
X+3467535Y+289699D01*
X+3400400Y+222564D01*
X+3333265Y+289699D01*
X+3217535Y+289699D01*
X+3150400Y+222564D01*
X+3083265Y+289699D01*
X+2967535Y+289699D01*
X+2895400Y+217564D01*
X+2823265Y+289699D01*
X+2707535Y+289699D01*
X+2640400Y+222564D01*
X+2573265Y+289699D01*
X+2457535Y+289699D01*
X+2390400Y+222564D01*
X+2323265Y+289699D01*
X+2207535Y+289699D01*
X+2153360Y+235524D01*
X+2073786Y+315099D01*
X+1937014Y+315099D01*
X+1840301Y+218386D01*
X+1840301Y+86360D01*
X+1640026Y+86360D01*
X+1661689Y+108069D01*
X+1661361Y+260201D01*
X+1783647Y+260201D01*
X+1887799Y+364353D01*
X+1887799Y+511647D01*
X+1807505Y+591941D01*
X+1849699Y+634135D01*
X+1849699Y+749865D01*
X+1780564Y+819000D01*
X+1849699Y+888135D01*
X+1849699Y+1003865D01*
X+1780564Y+1073000D01*
X+1849699Y+1142135D01*
X+1849699Y+1257865D01*
X+1780564Y+1327000D01*
X+1849699Y+1396135D01*
X+1849699Y+1511865D01*
X+1780564Y+1581000D01*
X+1849699Y+1650135D01*
X+1849699Y+1765865D01*
X+1780564Y+1835000D01*
X+1849699Y+1904135D01*
X+1849699Y+2019865D01*
X+1780564Y+2089000D01*
X+1849699Y+2158135D01*
X+1849699Y+2273865D01*
X+1780564Y+2343000D01*
X+1840301Y+2402737D01*
X+1840301Y+2381614D01*
X+2177601Y+1215126D02*
X+2177601Y+1088874D01*
X+2266874Y+999601D01*
X+2393126Y+999601D01*
X+2482399Y+1088874D01*
X+2482399Y+1215126D01*
X+2393126Y+1304399D01*
X+2266874Y+1304399D01*
X+2177601Y+1215126D01*
X+3727601Y+1007126D02*
X+3727601Y+880874D01*
X+3816874Y+791601D01*
X+3943126Y+791601D01*
X+4032399Y+880874D01*
X+4032399Y+1007126D01*
X+3943126Y+1096399D01*
X+3816874Y+1096399D01*
X+3727601Y+1007126D01*
X+3317601Y+1723126D02*
X+3317601Y+1596874D01*
X+3406874Y+1507601D01*
X+3533126Y+1507601D01*
X+3622399Y+1596874D01*
X+3622399Y+1723126D01*
X+3533126Y+1812399D01*
X+3406874Y+1812399D01*
X+3317601Y+1723126D01*
X+3317601Y+1215126D02*
X+3317601Y+1088874D01*
X+3406874Y+999601D01*
X+3533126Y+999601D01*
X+3622399Y+1088874D01*
X+3622399Y+1215126D01*
X+3533126Y+1304399D01*
X+3406874Y+1304399D01*
X+3317601Y+1215126D01*
X+2897601Y+1007126D02*
X+2897601Y+880874D01*
X+2986874Y+791601D01*
X+3113126Y+791601D01*
X+3202399Y+880874D01*
X+3202399Y+1007126D01*
X+3113126Y+1096399D01*
X+2986874Y+1096399D01*
X+2897601Y+1007126D01*
X+2557601Y+1723126D02*
X+2557601Y+1596874D01*
X+2646874Y+1507601D01*
X+2773126Y+1507601D01*
X+2862399Y+1596874D01*
X+2862399Y+1723126D01*
X+2773126Y+1812399D01*
X+2646874Y+1812399D01*
X+2557601Y+1723126D01*
X+2557601Y+1215126D02*
X+2557601Y+1088874D01*
X+2646874Y+999601D01*
X+2773126Y+999601D01*
X+2862399Y+1088874D01*
X+2862399Y+1215126D01*
X+2773126Y+1304399D01*
X+2646874Y+1304399D01*
X+2557601Y+1215126D01*
X+1283001Y+4092603D02*
X+1222797Y+4032399D01*
X+1186999Y+4032399D01*
X+1186999Y+4743601D01*
X+1283001Y+4743601D01*
X+1283001Y+4092603D01*
X+933001Y+4122603D02*
X+842797Y+4032399D01*
X+826999Y+4032399D01*
X+826999Y+4743601D01*
X+933001Y+4743601D01*
X+933001Y+4122603D01*
X+573001Y+4122603D02*
X+482797Y+4032399D01*
X+466999Y+4032399D01*
X+466999Y+4743601D01*
X+573001Y+4743601D01*
X+573001Y+4122603D01*
X+2638456Y+5133980D02*
X+2627601Y+5123126D01*
X+2627601Y+4996874D01*
X+2716874Y+4907601D01*
X+2734835Y+4907601D01*
X+2925135Y+4717301D01*
X+3553816Y+4717301D01*
X+3514901Y+4678386D01*
X+3514901Y+4541614D01*
X+3540301Y+4516214D01*
X+3540301Y+4332135D01*
X+3662201Y+4210235D01*
X+3662201Y+4156353D01*
X+3701514Y+4117040D01*
X+3687601Y+4103126D01*
X+3687601Y+3976874D01*
X+3776874Y+3887601D01*
X+3903126Y+3887601D01*
X+3992399Y+3976874D01*
X+3992399Y+4103126D01*
X+3978486Y+4117040D01*
X+4017799Y+4156353D01*
X+4017799Y+4303647D01*
X+3913647Y+4407799D01*
X+3859765Y+4407799D01*
X+3819699Y+4447865D01*
X+3819699Y+4470301D01*
X+3967866Y+4470301D01*
X+4066586Y+4569021D01*
X+4066586Y+4901968D01*
X+4112495Y+4856059D01*
X+4070301Y+4813865D01*
X+4070301Y+4698135D01*
X+4139436Y+4629000D01*
X+4070301Y+4559865D01*
X+4070301Y+4444135D01*
X+4139436Y+4375000D01*
X+4070301Y+4305865D01*
X+4070301Y+4190135D01*
X+4139436Y+4121000D01*
X+4070301Y+4051865D01*
X+4070301Y+3936135D01*
X+4139436Y+3867000D01*
X+4070301Y+3797865D01*
X+4070301Y+3682135D01*
X+4139436Y+3613000D01*
X+4070301Y+3543865D01*
X+4070301Y+3428135D01*
X+4139436Y+3359000D01*
X+4070301Y+3289865D01*
X+4070301Y+3174135D01*
X+4139436Y+3105000D01*
X+4070301Y+3035865D01*
X+4070301Y+2924552D01*
X+3987854Y+3006999D01*
X+3234447Y+3006999D01*
X+3226545Y+3014901D01*
X+3275099Y+3014901D01*
X+3275099Y+3345099D01*
X+2949699Y+3345099D01*
X+2949699Y+4217865D01*
X+2917799Y+4249765D01*
X+2917799Y+4303647D01*
X+2821845Y+4399601D01*
X+2843126Y+4399601D01*
X+2932399Y+4488874D01*
X+2932399Y+4615126D01*
X+2843126Y+4704399D01*
X+2716874Y+4704399D01*
X+2627601Y+4615126D01*
X+2627601Y+4488874D01*
X+2708676Y+4407799D01*
X+2666353Y+4407799D01*
X+2562201Y+4303647D01*
X+2562201Y+4189245D01*
X+2463647Y+4287799D01*
X+2316353Y+4287799D01*
X+2212201Y+4183647D01*
X+2212201Y+4036353D01*
X+2316353Y+3932201D01*
X+2370235Y+3932201D01*
X+2370301Y+3932135D01*
X+2370301Y+3291747D01*
X+2360000Y+3281446D01*
X+2283647Y+3357799D01*
X+2229765Y+3357799D01*
X+2125827Y+3461737D01*
X+2125827Y+4800687D01*
X+2357341Y+5032201D01*
X+2463647Y+5032201D01*
X+2567799Y+5136353D01*
X+2567799Y+5204637D01*
X+2638456Y+5133980D01*
X+3687601Y+3595126D02*
X+3687601Y+3468874D01*
X+3776874Y+3379601D01*
X+3903126Y+3379601D01*
X+3992399Y+3468874D01*
X+3992399Y+3595126D01*
X+3903126Y+3684399D01*
X+3776874Y+3684399D01*
X+3687601Y+3595126D01*
X+1846429Y+3403872D02*
X+1846429Y+3346007D01*
X+2032201Y+3160235D01*
X+2032201Y+3106353D01*
X+2108554Y+3030000D01*
X+2032201Y+2953647D01*
X+2032201Y+2806353D01*
X+2136353Y+2702201D01*
X+2283647Y+2702201D01*
X+2360000Y+2778554D01*
X+2436353Y+2702201D01*
X+2583647Y+2702201D01*
X+2660000Y+2778554D01*
X+2736353Y+2702201D01*
X+2808197Y+2702201D01*
X+2944117Y+2566281D01*
X+2895400Y+2517564D01*
X+2823265Y+2589699D01*
X+2707535Y+2589699D01*
X+2640400Y+2522564D01*
X+2573265Y+2589699D01*
X+2457535Y+2589699D01*
X+2408360Y+2540524D01*
X+2333786Y+2615099D01*
X+2197014Y+2615099D01*
X+2135400Y+2553485D01*
X+2073786Y+2615099D01*
X+1937014Y+2615099D01*
X+1849699Y+2527784D01*
X+1849699Y+2527865D01*
X+1780564Y+2597000D01*
X+1849699Y+2666135D01*
X+1849699Y+2781865D01*
X+1780564Y+2851000D01*
X+1849699Y+2920135D01*
X+1849699Y+3035865D01*
X+1780564Y+3105000D01*
X+1849699Y+3174135D01*
X+1849699Y+3289865D01*
X+1780564Y+3359000D01*
X+1846429Y+3424865D01*
X+1846429Y+3403872D01*
X+4210000Y+5187799D02*
X+4210000Y+5010000D01*
X+2510000Y+2702201D02*
X+2510000Y+2880000D01*
X+2032201Y+2880000D02*
X+2210000Y+2880000D01*
X+2210000Y+2702201D02*
X+2210000Y+2880000D01*
X+2005400Y+315099D02*
X+2005400Y+150000D01*
X+1840301Y+150000D02*
X+2005400Y+150000D01*
X+170000Y+4743601D02*
X+170000Y+4896000D01*
X+170000Y+5048399D02*
X+170000Y+4896000D01*
X+510000Y+4743601D02*
X+510000Y+4896000D01*
X+510000Y+5048399D02*
X+510000Y+4896000D01*
X+870000Y+4743601D02*
X+870000Y+4896000D01*
X+870000Y+5048399D02*
X+870000Y+4896000D01*
X+1230000Y+4743601D02*
X+1230000Y+4896000D01*
X+1230000Y+5048399D02*
X+1230000Y+4896000D01*
X+310000Y+5795601D02*
X+310000Y+5948000D01*
X+310000Y+6100399D02*
X+310000Y+5948000D01*
X+462399Y+5948000D02*
X+310000Y+5948000D01*
X+157601Y+5948000D02*
X+310000Y+5948000D01*
X+700000Y+5785601D02*
X+700000Y+5938000D01*
X+700000Y+6090399D02*
X+700000Y+5938000D01*
X+852399Y+5938000D02*
X+700000Y+5938000D01*
X+547601Y+5938000D02*
X+700000Y+5938000D01*
X+1060000Y+5785601D02*
X+1060000Y+5938000D01*
X+1060000Y+6090399D02*
X+1060000Y+5938000D01*
X+1212399Y+5938000D02*
X+1060000Y+5938000D01*
X+907601Y+5938000D02*
X+1060000Y+5938000D01*
X+1410000Y+5785601D02*
X+1410000Y+5938000D01*
X+1410000Y+6090399D02*
X+1410000Y+5938000D01*
X+1562399Y+5938000D02*
X+1410000Y+5938000D01*
X+1257601Y+5938000D02*
X+1410000Y+5938000D01*
X+2330000Y+1304399D02*
X+2330000Y+1152000D01*
X+2330000Y+999601D02*
X+2330000Y+1152000D01*
X+2177601Y+1152000D02*
X+2330000Y+1152000D01*
X+2482399Y+1152000D02*
X+2330000Y+1152000D01*
X+3880000Y+1096399D02*
X+3880000Y+944000D01*
X+3880000Y+791601D02*
X+3880000Y+944000D01*
X+3727601Y+944000D02*
X+3880000Y+944000D01*
X+4032399Y+944000D02*
X+3880000Y+944000D01*
X+3470000Y+1304399D02*
X+3470000Y+1152000D01*
X+3470000Y+999601D02*
X+3470000Y+1152000D01*
X+3317601Y+1152000D02*
X+3470000Y+1152000D01*
X+3622399Y+1152000D02*
X+3470000Y+1152000D01*
X+3050000Y+1096399D02*
X+3050000Y+944000D01*
X+3050000Y+791601D02*
X+3050000Y+944000D01*
X+2897601Y+944000D02*
X+3050000Y+944000D01*
X+3202399Y+944000D02*
X+3050000Y+944000D01*
X+2710000Y+1304399D02*
X+2710000Y+1152000D01*
X+2710000Y+999601D02*
X+2710000Y+1152000D01*
X+2557601Y+1152000D02*
X+2710000Y+1152000D01*
X+2862399Y+1152000D02*
X+2710000Y+1152000D01*
X+3522201Y+6020000D02*
X+3700000Y+6020000D01*
X+3700000Y+5842201D02*
X+3700000Y+6020000D01*
X+3680000Y+5275099D02*
X+3680000Y+5110000D01*
X+3514901Y+5110000D02*
X+3680000Y+5110000D01*
X+3840000Y+3684399D02*
X+3840000Y+3532000D01*
X+3840000Y+3379601D02*
X+3840000Y+3532000D01*
X+3687601Y+3532000D02*
X+3840000Y+3532000D01*
X+3992399Y+3532000D02*
X+3840000Y+3532000D01*
X+2780000Y+4704399D02*
X+2780000Y+4552000D01*
X+2627601Y+4552000D02*
X+2780000Y+4552000D01*
X+2932399Y+4552000D02*
X+2780000Y+4552000D01*
X+390000Y+1576399D02*
X+390000Y+1424000D01*
X+237601Y+1424000D02*
X+390000Y+1424000D01*
X+542399Y+1424000D02*
X+390000Y+1424000D01*
D13*
X+4210000Y+5010000D03*
D14*
X+4210000Y+4756000D03*
X+4210000Y+4502000D03*
X+4210000Y+4248000D03*
X+4210000Y+3994000D03*
X+4210000Y+3740000D03*
X+4210000Y+3486000D03*
X+4210000Y+3232000D03*
X+4210000Y+2978000D03*
X+4210000Y+2724000D03*
X+4210000Y+2470000D03*
X+4210000Y+2216000D03*
X+4210000Y+1962000D03*
X+4210000Y+1708000D03*
X+4210000Y+1454000D03*
X+4210000Y+1200000D03*
X+4210000Y+946000D03*
X+4210000Y+692000D03*
X+4210000Y+438000D03*
D13*
X+1710000Y+438000D03*
D14*
X+1710000Y+692000D03*
X+1710000Y+946000D03*
X+1710000Y+1200000D03*
X+1710000Y+1454000D03*
X+1710000Y+1708000D03*
X+1710000Y+1962000D03*
X+1710000Y+2216000D03*
X+1710000Y+2470000D03*
X+1710000Y+2724000D03*
X+1710000Y+2978000D03*
X+1710000Y+3232000D03*
X+1710000Y+3486000D03*
X+1710000Y+3740000D03*
X+1710000Y+3994000D03*
X+1710000Y+4248000D03*
X+1710000Y+4502000D03*
X+1710000Y+4756000D03*
D13*
X+1710000Y+5010000D03*
D15*
X+1250000Y+3180000D03*
D13*
X+950000Y+3180000D03*
X+650000Y+3180000D03*
X+350000Y+3180000D03*
X+1250000Y+2880000D03*
X+950000Y+2880000D03*
X+650000Y+2880000D03*
X+350000Y+2880000D03*
D15*
X+3110000Y+3180000D03*
D13*
X+2810000Y+3180000D03*
X+2510000Y+3180000D03*
X+2210000Y+3180000D03*
X+3110000Y+2880000D03*
X+2810000Y+2880000D03*
X+2510000Y+2880000D03*
X+2210000Y+2880000D03*
D16*
X+2005400Y+150000D03*
D14*
X+2265400Y+150000D03*
X+2515400Y+150000D03*
X+2765400Y+150000D03*
X+3025400Y+150000D03*
X+3275400Y+150000D03*
X+3525400Y+150000D03*
X+3785400Y+150000D03*
D16*
X+2005400Y+2450000D03*
X+2265400Y+2450000D03*
D14*
X+2515400Y+2450000D03*
X+2765400Y+2450000D03*
X+3025400Y+2450000D03*
X+3275400Y+2450000D03*
X+3525400Y+2450000D03*
X+3785400Y+2450000D03*
D13*
X+2120000Y+5580000D03*
X+2390000Y+5580000D03*
X+2660000Y+5580000D03*
D17*
X+170000Y+3880000D03*
X+170000Y+4896000D03*
X+510000Y+3880000D03*
X+510000Y+4896000D03*
X+870000Y+3880000D03*
X+870000Y+4896000D03*
X+1230000Y+3880000D03*
X+1230000Y+4896000D03*
X+310000Y+5440000D03*
X+310000Y+5948000D03*
X+700000Y+5430000D03*
X+700000Y+5938000D03*
X+1060000Y+5430000D03*
X+1060000Y+5938000D03*
X+1410000Y+5430000D03*
X+1410000Y+5938000D03*
X+2330000Y+1660000D03*
X+2330000Y+1152000D03*
X+3880000Y+1960000D03*
X+3880000Y+944000D03*
X+3470000Y+1660000D03*
X+3470000Y+1152000D03*
X+3050000Y+1960000D03*
X+3050000Y+944000D03*
X+2710000Y+1660000D03*
X+2710000Y+1152000D03*
D13*
X+3200000Y+6020000D03*
X+3700000Y+6020000D03*
X+2390000Y+4110000D03*
X+2390000Y+5210000D03*
X+3840000Y+4230000D03*
X+2740000Y+4230000D03*
D16*
X+3680000Y+5110000D03*
X+3680000Y+4857000D03*
X+3680000Y+4610000D03*
D17*
X+3840000Y+4040000D03*
X+3840000Y+3532000D03*
X+2780000Y+5060000D03*
X+2780000Y+4552000D03*
D18*
X+1215000Y+2275000D03*
D19*
X+1215000Y+1625000D03*
X+765000Y+2275000D03*
X+765000Y+1625000D03*
D17*
X+390000Y+2440000D03*
X+390000Y+1424000D03*
D70*
X+117128Y+1065528D02*
X+117128Y+1187448D01*
X+189518Y+1187448D01*
X+225713Y+1146808D01*
X+225713Y+1106168D01*
X+189518Y+1065528D01*
X+117128Y+1065528D01*
X+261908Y+1106168D02*
X+370493Y+1106168D01*
X+370493Y+1126488D01*
X+352395Y+1146808D01*
X+280005Y+1146808D01*
X+261908Y+1126488D01*
X+261908Y+1085848D01*
X+280005Y+1065528D01*
X+352395Y+1065528D01*
X+497175Y+1146808D02*
X+424785Y+1146808D01*
X+406688Y+1126488D01*
X+424785Y+1106168D01*
X+497175Y+1106168D01*
X+515273Y+1085848D01*
X+497175Y+1065528D01*
X+406688Y+1065528D01*
X+605760Y+1146808D02*
X+605760Y+1065528D01*
X+605760Y+1187448D02*
X+605760Y+1187448D01*
X+804833Y+1126488D02*
X+786735Y+1146808D01*
X+714345Y+1146808D01*
X+696248Y+1126488D01*
X+696248Y+1106168D01*
X+714345Y+1085848D01*
X+786735Y+1085848D01*
X+804833Y+1106168D01*
X+804833Y+1146808D02*
X+804833Y+1065528D01*
X+786735Y+1045208D01*
X+696248Y+1045208D01*
X+841028Y+1065528D02*
X+841028Y+1146808D01*
X+841028Y+1126488D02*
X+859125Y+1146808D01*
X+931515Y+1146808D01*
X+949613Y+1126488D01*
X+949613Y+1065528D01*
X+1130588Y+1126488D02*
X+1148685Y+1146808D01*
X+1221075Y+1146808D01*
X+1239173Y+1126488D01*
X+1239173Y+1085848D01*
X+1221075Y+1065528D01*
X+1148685Y+1065528D01*
X+1130588Y+1085848D01*
X+1130588Y+1065528D02*
X+1130588Y+1187448D01*
X+1275368Y+1146808D02*
X+1275368Y+1106168D01*
X+1293465Y+1085848D01*
X+1365855Y+1085848D01*
X+1383953Y+1106168D01*
X+1383953Y+1146808D02*
X+1383953Y+1065528D01*
X+1365855Y+1045208D01*
X+1275368Y+1045208D01*
X+1474440Y+1146808D02*
X+1474440Y+1126488D01*
X+1474440Y+1085848D02*
X+1474440Y+1065528D01*
D71*
X+336752Y+218321D02*
X+357072Y+218321D01*
X+326592Y+223401D02*
X+367232Y+223401D01*
X+316432Y+228481D02*
X+372312Y+228481D01*
X+306272Y+233561D02*
X+382472Y+233561D01*
X+301192Y+238641D02*
X+392632Y+238641D01*
X+291032Y+243721D02*
X+397712Y+243721D01*
X+280872Y+248801D02*
X+407872Y+248801D01*
X+275792Y+253881D02*
X+418032Y+253881D01*
X+265632Y+258961D02*
X+423112Y+258961D01*
X+255472Y+264041D02*
X+423112Y+264041D01*
X+250392Y+269121D02*
X+423112Y+269121D01*
X+240232Y+274201D02*
X+423112Y+274201D01*
X+230072Y+279281D02*
X+423112Y+279281D01*
X+224992Y+284361D02*
X+423112Y+284361D01*
X+214832Y+289441D02*
X+423112Y+289441D01*
X+453592Y+289441D02*
X+473912Y+289441D01*
X+204672Y+294521D02*
X+423112Y+294521D01*
X+448512Y+294521D02*
X+484072Y+294521D01*
X+199592Y+299601D02*
X+423112Y+299601D01*
X+448512Y+299601D02*
X+494232Y+299601D01*
X+189432Y+304681D02*
X+423112Y+304681D01*
X+448512Y+304681D02*
X+504392Y+304681D01*
X+179272Y+309761D02*
X+423112Y+309761D01*
X+448512Y+309761D02*
X+509472Y+309761D01*
X+174192Y+314841D02*
X+423112Y+314841D01*
X+448512Y+314841D02*
X+514552Y+314841D01*
X+677112Y+314841D02*
X+743152Y+314841D01*
X+885392Y+314841D02*
X+941272Y+314841D01*
X+164032Y+319921D02*
X+423112Y+319921D01*
X+448512Y+319921D02*
X+519632Y+319921D01*
X+651712Y+319921D02*
X+763472Y+319921D01*
X+875232Y+319921D02*
X+956512Y+319921D01*
X+1058112Y+319921D02*
X+1180032Y+319921D01*
X+1281632Y+319921D02*
X+1403552Y+319921D01*
X+158952Y+325001D02*
X+423112Y+325001D01*
X+448512Y+325001D02*
X+524712Y+325001D01*
X+636472Y+325001D02*
X+768552Y+325001D01*
X+870152Y+325001D02*
X+966672Y+325001D01*
X+1047952Y+325001D02*
X+1195272Y+325001D01*
X+1271472Y+325001D02*
X+1413712Y+325001D01*
X+158952Y+330081D02*
X+423112Y+330081D01*
X+448512Y+330081D02*
X+529792Y+330081D01*
X+621232Y+330081D02*
X+773632Y+330081D01*
X+870152Y+330081D02*
X+971752Y+330081D01*
X+1042872Y+330081D02*
X+1205432Y+330081D01*
X+1266392Y+330081D02*
X+1418792Y+330081D01*
X+158952Y+335161D02*
X+423112Y+335161D01*
X+448512Y+335161D02*
X+529792Y+335161D01*
X+616152Y+335161D02*
X+773632Y+335161D01*
X+870152Y+335161D02*
X+981912Y+335161D01*
X+1042872Y+335161D02*
X+1215592Y+335161D01*
X+1266392Y+335161D02*
X+1418792Y+335161D01*
X+158952Y+340241D02*
X+423112Y+340241D01*
X+448512Y+340241D02*
X+529792Y+340241D01*
X+605992Y+340241D02*
X+773632Y+340241D01*
X+819352Y+340241D02*
X+844752Y+340241D01*
X+870152Y+340241D02*
X+986992Y+340241D01*
X+1042872Y+340241D02*
X+1220672Y+340241D01*
X+1261312Y+340241D02*
X+1423872Y+340241D01*
X+158952Y+345321D02*
X+423112Y+345321D01*
X+448512Y+345321D02*
X+529792Y+345321D01*
X+600912Y+345321D02*
X+773632Y+345321D01*
X+809192Y+345321D02*
X+854912Y+345321D01*
X+870152Y+345321D02*
X+986992Y+345321D01*
X+1042872Y+345321D02*
X+1225752Y+345321D01*
X+1261312Y+345321D02*
X+1423872Y+345321D01*
X+158952Y+350401D02*
X+423112Y+350401D01*
X+448512Y+350401D02*
X+529792Y+350401D01*
X+595832Y+350401D02*
X+773632Y+350401D01*
X+804112Y+350401D02*
X+859992Y+350401D01*
X+870152Y+350401D02*
X+992072Y+350401D01*
X+1042872Y+350401D02*
X+1230832Y+350401D01*
X+1261312Y+350401D02*
X+1423872Y+350401D01*
X+158952Y+355481D02*
X+423112Y+355481D01*
X+448512Y+355481D02*
X+529792Y+355481D01*
X+590752Y+355481D02*
X+773632Y+355481D01*
X+799032Y+355481D02*
X+859992Y+355481D01*
X+875232Y+355481D02*
X+997152Y+355481D01*
X+1047952Y+355481D02*
X+1235912Y+355481D01*
X+1261312Y+355481D02*
X+1418792Y+355481D01*
X+158952Y+360561D02*
X+423112Y+360561D01*
X+448512Y+360561D02*
X+529792Y+360561D01*
X+585672Y+360561D02*
X+768552Y+360561D01*
X+799032Y+360561D02*
X+859992Y+360561D01*
X+880312Y+360561D02*
X+1002232Y+360561D01*
X+1053032Y+360561D02*
X+1235912Y+360561D01*
X+1261312Y+360561D02*
X+1418792Y+360561D01*
X+158952Y+365641D02*
X+423112Y+365641D01*
X+448512Y+365641D02*
X+529792Y+365641D01*
X+580592Y+365641D02*
X+758392Y+365641D01*
X+793952Y+365641D02*
X+859992Y+365641D01*
X+905712Y+365641D02*
X+1002232Y+365641D01*
X+1078432Y+365641D02*
X+1240992Y+365641D01*
X+1261312Y+365641D02*
X+1408632Y+365641D01*
X+158952Y+370721D02*
X+423112Y+370721D01*
X+448512Y+370721D02*
X+529792Y+370721D01*
X+575512Y+370721D02*
X+682192Y+370721D01*
X+793952Y+370721D02*
X+859992Y+370721D01*
X+926032Y+370721D02*
X+1007312Y+370721D01*
X+1164792Y+370721D02*
X+1240992Y+370721D01*
X+1261312Y+370721D02*
X+1383232Y+370721D01*
X+158952Y+375801D02*
X+423112Y+375801D01*
X+448512Y+375801D02*
X+529792Y+375801D01*
X+575512Y+375801D02*
X+661872Y+375801D01*
X+788872Y+375801D02*
X+854912Y+375801D01*
X+936192Y+375801D02*
X+1007312Y+375801D01*
X+1169872Y+375801D02*
X+1240992Y+375801D01*
X+1261312Y+375801D02*
X+1317192Y+375801D01*
X+158952Y+380881D02*
X+423112Y+380881D01*
X+448512Y+380881D02*
X+529792Y+380881D01*
X+570432Y+380881D02*
X+651712Y+380881D01*
X+788872Y+380881D02*
X+854912Y+380881D01*
X+941272Y+380881D02*
X+1007312Y+380881D01*
X+1174952Y+380881D02*
X+1240992Y+380881D01*
X+1261312Y+380881D02*
X+1317192Y+380881D01*
X+158952Y+385961D02*
X+423112Y+385961D01*
X+448512Y+385961D02*
X+529792Y+385961D01*
X+570432Y+385961D02*
X+646632Y+385961D01*
X+788872Y+385961D02*
X+849832Y+385961D01*
X+946352Y+385961D02*
X+1012392Y+385961D01*
X+1180032Y+385961D02*
X+1240992Y+385961D01*
X+1261312Y+385961D02*
X+1317192Y+385961D01*
X+158952Y+391041D02*
X+423112Y+391041D01*
X+448512Y+391041D02*
X+529792Y+391041D01*
X+565352Y+391041D02*
X+641552Y+391041D01*
X+783792Y+391041D02*
X+849832Y+391041D01*
X+946352Y+391041D02*
X+1012392Y+391041D01*
X+1180032Y+391041D02*
X+1246072Y+391041D01*
X+1261312Y+391041D02*
X+1317192Y+391041D01*
X+158952Y+396121D02*
X+423112Y+396121D01*
X+448512Y+396121D02*
X+529792Y+396121D01*
X+565352Y+396121D02*
X+636472Y+396121D01*
X+783792Y+396121D02*
X+844752Y+396121D01*
X+951432Y+396121D02*
X+1012392Y+396121D01*
X+1180032Y+396121D02*
X+1246072Y+396121D01*
X+1261312Y+396121D02*
X+1317192Y+396121D01*
X+158952Y+401201D02*
X+423112Y+401201D01*
X+448512Y+401201D02*
X+529792Y+401201D01*
X+560272Y+401201D02*
X+631392Y+401201D01*
X+783792Y+401201D02*
X+844752Y+401201D01*
X+951432Y+401201D02*
X+1012392Y+401201D01*
X+1180032Y+401201D02*
X+1240992Y+401201D01*
X+1261312Y+401201D02*
X+1317192Y+401201D01*
X+158952Y+406281D02*
X+423112Y+406281D01*
X+448512Y+406281D02*
X+529792Y+406281D01*
X+560272Y+406281D02*
X+631392Y+406281D01*
X+783792Y+406281D02*
X+844752Y+406281D01*
X+951432Y+406281D02*
X+1012392Y+406281D01*
X+1180032Y+406281D02*
X+1240992Y+406281D01*
X+1261312Y+406281D02*
X+1317192Y+406281D01*
X+158952Y+411361D02*
X+423112Y+411361D01*
X+448512Y+411361D02*
X+529792Y+411361D01*
X+560272Y+411361D02*
X+626312Y+411361D01*
X+783792Y+411361D02*
X+844752Y+411361D01*
X+956512Y+411361D02*
X+1017472Y+411361D01*
X+1180032Y+411361D02*
X+1240992Y+411361D01*
X+1261312Y+411361D02*
X+1317192Y+411361D01*
X+158952Y+416441D02*
X+423112Y+416441D01*
X+448512Y+416441D02*
X+529792Y+416441D01*
X+560272Y+416441D02*
X+626312Y+416441D01*
X+783792Y+416441D02*
X+844752Y+416441D01*
X+956512Y+416441D02*
X+1017472Y+416441D01*
X+1174952Y+416441D02*
X+1240992Y+416441D01*
X+1261312Y+416441D02*
X+1317192Y+416441D01*
X+158952Y+421521D02*
X+423112Y+421521D01*
X+448512Y+421521D02*
X+529792Y+421521D01*
X+560272Y+421521D02*
X+621232Y+421521D01*
X+783792Y+421521D02*
X+844752Y+421521D01*
X+956512Y+421521D02*
X+1017472Y+421521D01*
X+1169872Y+421521D02*
X+1240992Y+421521D01*
X+1261312Y+421521D02*
X+1317192Y+421521D01*
X+158952Y+426601D02*
X+423112Y+426601D01*
X+448512Y+426601D02*
X+529792Y+426601D01*
X+555192Y+426601D02*
X+621232Y+426601D01*
X+783792Y+426601D02*
X+844752Y+426601D01*
X+956512Y+426601D02*
X+1017472Y+426601D01*
X+1154632Y+426601D02*
X+1235912Y+426601D01*
X+1261312Y+426601D02*
X+1398472Y+426601D01*
X+158952Y+431681D02*
X+423112Y+431681D01*
X+448512Y+431681D02*
X+529792Y+431681D01*
X+555192Y+431681D02*
X+621232Y+431681D01*
X+783792Y+431681D02*
X+844752Y+431681D01*
X+956512Y+431681D02*
X+1017472Y+431681D01*
X+1058112Y+431681D02*
X+1235912Y+431681D01*
X+1261312Y+431681D02*
X+1408632Y+431681D01*
X+158952Y+436761D02*
X+423112Y+436761D01*
X+448512Y+436761D02*
X+529792Y+436761D01*
X+555192Y+436761D02*
X+621232Y+436761D01*
X+783792Y+436761D02*
X+844752Y+436761D01*
X+956512Y+436761D02*
X+1017472Y+436761D01*
X+1047952Y+436761D02*
X+1230832Y+436761D01*
X+1261312Y+436761D02*
X+1413712Y+436761D01*
X+158952Y+441841D02*
X+336752Y+441841D01*
X+362152Y+441841D02*
X+423112Y+441841D01*
X+448512Y+441841D02*
X+529792Y+441841D01*
X+555192Y+441841D02*
X+621232Y+441841D01*
X+783792Y+441841D02*
X+844752Y+441841D01*
X+956512Y+441841D02*
X+1017472Y+441841D01*
X+1042872Y+441841D02*
X+1225752Y+441841D01*
X+1261312Y+441841D02*
X+1413712Y+441841D01*
X+158952Y+446921D02*
X+326592Y+446921D01*
X+372312Y+446921D02*
X+423112Y+446921D01*
X+448512Y+446921D02*
X+529792Y+446921D01*
X+555192Y+446921D02*
X+621232Y+446921D01*
X+783792Y+446921D02*
X+844752Y+446921D01*
X+956512Y+446921D02*
X+1017472Y+446921D01*
X+1042872Y+446921D02*
X+1220672Y+446921D01*
X+1261312Y+446921D02*
X+1413712Y+446921D01*
X+158952Y+452001D02*
X+316432Y+452001D01*
X+382472Y+452001D02*
X+423112Y+452001D01*
X+448512Y+452001D02*
X+529792Y+452001D01*
X+555192Y+452001D02*
X+621232Y+452001D01*
X+783792Y+452001D02*
X+844752Y+452001D01*
X+956512Y+452001D02*
X+1017472Y+452001D01*
X+1042872Y+452001D02*
X+1215592Y+452001D01*
X+1261312Y+452001D02*
X+1413712Y+452001D01*
X+158952Y+457081D02*
X+306272Y+457081D01*
X+387552Y+457081D02*
X+423112Y+457081D01*
X+448512Y+457081D02*
X+529792Y+457081D01*
X+555192Y+457081D02*
X+621232Y+457081D01*
X+783792Y+457081D02*
X+844752Y+457081D01*
X+956512Y+457081D02*
X+1017472Y+457081D01*
X+1042872Y+457081D02*
X+1205432Y+457081D01*
X+1261312Y+457081D02*
X+1413712Y+457081D01*
X+158952Y+462161D02*
X+301192Y+462161D01*
X+397712Y+462161D02*
X+423112Y+462161D01*
X+448512Y+462161D02*
X+529792Y+462161D01*
X+555192Y+462161D02*
X+621232Y+462161D01*
X+783792Y+462161D02*
X+844752Y+462161D01*
X+956512Y+462161D02*
X+1017472Y+462161D01*
X+1042872Y+462161D02*
X+1190192Y+462161D01*
X+1261312Y+462161D02*
X+1413712Y+462161D01*
X+158952Y+467241D02*
X+291032Y+467241D01*
X+336752Y+467241D02*
X+357072Y+467241D01*
X+407872Y+467241D02*
X+418032Y+467241D01*
X+448512Y+467241D02*
X+529792Y+467241D01*
X+555192Y+467241D02*
X+621232Y+467241D01*
X+783792Y+467241D02*
X+844752Y+467241D01*
X+956512Y+467241D02*
X+1017472Y+467241D01*
X+1047952Y+467241D02*
X+1195272Y+467241D01*
X+1261312Y+467241D02*
X+1408632Y+467241D01*
X+158952Y+472321D02*
X+280872Y+472321D01*
X+331672Y+472321D02*
X+367232Y+472321D01*
X+448512Y+472321D02*
X+529792Y+472321D01*
X+560272Y+472321D02*
X+621232Y+472321D01*
X+783792Y+472321D02*
X+844752Y+472321D01*
X+956512Y+472321D02*
X+1017472Y+472321D01*
X+1058112Y+472321D02*
X+1205432Y+472321D01*
X+1261312Y+472321D02*
X+1398472Y+472321D01*
X+158952Y+477401D02*
X+270712Y+477401D01*
X+321512Y+477401D02*
X+377392Y+477401D01*
X+448512Y+477401D02*
X+529792Y+477401D01*
X+560272Y+477401D02*
X+626312Y+477401D01*
X+783792Y+477401D02*
X+844752Y+477401D01*
X+956512Y+477401D02*
X+1017472Y+477401D01*
X+1139392Y+477401D02*
X+1210512Y+477401D01*
X+1261312Y+477401D02*
X+1322272Y+477401D01*
X+158952Y+482481D02*
X+260552Y+482481D01*
X+311352Y+482481D02*
X+387552Y+482481D01*
X+448512Y+482481D02*
X+529792Y+482481D01*
X+560272Y+482481D02*
X+626312Y+482481D01*
X+783792Y+482481D02*
X+844752Y+482481D01*
X+956512Y+482481D02*
X+1017472Y+482481D01*
X+1154632Y+482481D02*
X+1215592Y+482481D01*
X+1261312Y+482481D02*
X+1317192Y+482481D01*
X+158952Y+487561D02*
X+255472Y+487561D01*
X+301192Y+487561D02*
X+392632Y+487561D01*
X+453592Y+487561D02*
X+529792Y+487561D01*
X+560272Y+487561D02*
X+631392Y+487561D01*
X+783792Y+487561D02*
X+844752Y+487561D01*
X+956512Y+487561D02*
X+1017472Y+487561D01*
X+1159712Y+487561D02*
X+1215592Y+487561D01*
X+1261312Y+487561D02*
X+1317192Y+487561D01*
X+158952Y+492641D02*
X+245312Y+492641D01*
X+296112Y+492641D02*
X+402792Y+492641D01*
X+453592Y+492641D02*
X+529792Y+492641D01*
X+560272Y+492641D02*
X+631392Y+492641D01*
X+783792Y+492641D02*
X+844752Y+492641D01*
X+956512Y+492641D02*
X+1017472Y+492641D01*
X+1159712Y+492641D02*
X+1220672Y+492641D01*
X+1261312Y+492641D02*
X+1317192Y+492641D01*
X+158952Y+497721D02*
X+235152Y+497721D01*
X+285952Y+497721D02*
X+412952Y+497721D01*
X+458672Y+497721D02*
X+529792Y+497721D01*
X+565352Y+497721D02*
X+636472Y+497721D01*
X+783792Y+497721D02*
X+844752Y+497721D01*
X+956512Y+497721D02*
X+1017472Y+497721D01*
X+1164792Y+497721D02*
X+1220672Y+497721D01*
X+1261312Y+497721D02*
X+1317192Y+497721D01*
X+158952Y+502801D02*
X+224992Y+502801D01*
X+275792Y+502801D02*
X+418032Y+502801D01*
X+463752Y+502801D02*
X+529792Y+502801D01*
X+565352Y+502801D02*
X+641552Y+502801D01*
X+783792Y+502801D02*
X+844752Y+502801D01*
X+956512Y+502801D02*
X+1017472Y+502801D01*
X+1164792Y+502801D02*
X+1220672Y+502801D01*
X+1261312Y+502801D02*
X+1317192Y+502801D01*
X+158952Y+507881D02*
X+219912Y+507881D01*
X+270712Y+507881D02*
X+418032Y+507881D01*
X+473912Y+507881D02*
X+529792Y+507881D01*
X+570432Y+507881D02*
X+646632Y+507881D01*
X+783792Y+507881D02*
X+844752Y+507881D01*
X+956512Y+507881D02*
X+1017472Y+507881D01*
X+1164792Y+507881D02*
X+1220672Y+507881D01*
X+1261312Y+507881D02*
X+1317192Y+507881D01*
X+158952Y+512961D02*
X+209752Y+512961D01*
X+260552Y+512961D02*
X+423112Y+512961D01*
X+484072Y+512961D02*
X+529792Y+512961D01*
X+570432Y+512961D02*
X+651712Y+512961D01*
X+783792Y+512961D02*
X+844752Y+512961D01*
X+956512Y+512961D02*
X+1017472Y+512961D01*
X+1164792Y+512961D02*
X+1220672Y+512961D01*
X+1261312Y+512961D02*
X+1317192Y+512961D01*
X+158952Y+518041D02*
X+199592Y+518041D01*
X+250392Y+518041D02*
X+423112Y+518041D01*
X+489152Y+518041D02*
X+529792Y+518041D01*
X+575512Y+518041D02*
X+661872Y+518041D01*
X+783792Y+518041D02*
X+844752Y+518041D01*
X+956512Y+518041D02*
X+1017472Y+518041D01*
X+1159712Y+518041D02*
X+1220672Y+518041D01*
X+1261312Y+518041D02*
X+1317192Y+518041D01*
X+158952Y+523121D02*
X+189432Y+523121D01*
X+245312Y+523121D02*
X+423112Y+523121D01*
X+499312Y+523121D02*
X+529792Y+523121D01*
X+575512Y+523121D02*
X+687272Y+523121D01*
X+783792Y+523121D02*
X+844752Y+523121D01*
X+956512Y+523121D02*
X+1017472Y+523121D01*
X+1154632Y+523121D02*
X+1220672Y+523121D01*
X+1261312Y+523121D02*
X+1317192Y+523121D01*
X+158952Y+528201D02*
X+184352Y+528201D01*
X+235152Y+528201D02*
X+423112Y+528201D01*
X+448512Y+528201D02*
X+468832Y+528201D01*
X+509472Y+528201D02*
X+524712Y+528201D01*
X+580592Y+528201D02*
X+727912Y+528201D01*
X+783792Y+528201D02*
X+844752Y+528201D01*
X+956512Y+528201D02*
X+1017472Y+528201D01*
X+1149552Y+528201D02*
X+1220672Y+528201D01*
X+1261312Y+528201D02*
X+1398472Y+528201D01*
X+158952Y+533281D02*
X+174192Y+533281D01*
X+224992Y+533281D02*
X+423112Y+533281D01*
X+448512Y+533281D02*
X+478992Y+533281D01*
X+580592Y+533281D02*
X+738072Y+533281D01*
X+783792Y+533281D02*
X+844752Y+533281D01*
X+956512Y+533281D02*
X+1017472Y+533281D01*
X+1063192Y+533281D02*
X+1220672Y+533281D01*
X+1261312Y+533281D02*
X+1408632Y+533281D01*
X+214832Y+538361D02*
X+423112Y+538361D01*
X+443432Y+538361D02*
X+484072Y+538361D01*
X+585672Y+538361D02*
X+743152Y+538361D01*
X+783792Y+538361D02*
X+844752Y+538361D01*
X+956512Y+538361D02*
X+1017472Y+538361D01*
X+1053032Y+538361D02*
X+1220672Y+538361D01*
X+1261312Y+538361D02*
X+1418792Y+538361D01*
X+209752Y+543441D02*
X+423112Y+543441D01*
X+443432Y+543441D02*
X+494232Y+543441D01*
X+590752Y+543441D02*
X+743152Y+543441D01*
X+783792Y+543441D02*
X+844752Y+543441D01*
X+956512Y+543441D02*
X+1017472Y+543441D01*
X+1047952Y+543441D02*
X+1215592Y+543441D01*
X+1261312Y+543441D02*
X+1418792Y+543441D01*
X+199592Y+548521D02*
X+423112Y+548521D01*
X+443432Y+548521D02*
X+504392Y+548521D01*
X+595832Y+548521D02*
X+748232Y+548521D01*
X+783792Y+548521D02*
X+844752Y+548521D01*
X+956512Y+548521D02*
X+1017472Y+548521D01*
X+1042872Y+548521D02*
X+1215592Y+548521D01*
X+1261312Y+548521D02*
X+1423872Y+548521D01*
X+189432Y+553601D02*
X+423112Y+553601D01*
X+443432Y+553601D02*
X+514552Y+553601D01*
X+605992Y+553601D02*
X+748232Y+553601D01*
X+783792Y+553601D02*
X+839672Y+553601D01*
X+956512Y+553601D02*
X+1017472Y+553601D01*
X+1042872Y+553601D02*
X+1210512Y+553601D01*
X+1261312Y+553601D02*
X+1423872Y+553601D01*
X+184352Y+558681D02*
X+423112Y+558681D01*
X+443432Y+558681D02*
X+519632Y+558681D01*
X+611072Y+558681D02*
X+743152Y+558681D01*
X+783792Y+558681D02*
X+839672Y+558681D01*
X+961592Y+558681D02*
X+1017472Y+558681D01*
X+1042872Y+558681D02*
X+1205432Y+558681D01*
X+1266392Y+558681D02*
X+1423872Y+558681D01*
X+174192Y+563761D02*
X+423112Y+563761D01*
X+443432Y+563761D02*
X+524712Y+563761D01*
X+621232Y+563761D02*
X+743152Y+563761D01*
X+783792Y+563761D02*
X+839672Y+563761D01*
X+961592Y+563761D02*
X+1012392Y+563761D01*
X+1042872Y+563761D02*
X+1200352Y+563761D01*
X+1266392Y+563761D02*
X+1418792Y+563761D01*
X+164032Y+568841D02*
X+423112Y+568841D01*
X+443432Y+568841D02*
X+524712Y+568841D01*
X+631392Y+568841D02*
X+738072Y+568841D01*
X+788872Y+568841D02*
X+834592Y+568841D01*
X+961592Y+568841D02*
X+1012392Y+568841D01*
X+1047952Y+568841D02*
X+1190192Y+568841D01*
X+1271472Y+568841D02*
X+1418792Y+568841D01*
X+164032Y+573921D02*
X+423112Y+573921D01*
X+443432Y+573921D02*
X+524712Y+573921D01*
X+641552Y+573921D02*
X+732992Y+573921D01*
X+793952Y+573921D02*
X+834592Y+573921D01*
X+966672Y+573921D02*
X+1007312Y+573921D01*
X+1053032Y+573921D02*
X+1180032Y+573921D01*
X+1276552Y+573921D02*
X+1413712Y+573921D01*
X+169112Y+579001D02*
X+423112Y+579001D01*
X+443432Y+579001D02*
X+524712Y+579001D01*
X+666952Y+579001D02*
X+717752Y+579001D01*
X+799032Y+579001D02*
X+824432Y+579001D01*
X+976832Y+579001D02*
X+997152Y+579001D01*
X+1063192Y+579001D02*
X+1159712Y+579001D01*
X+1286712Y+579001D02*
X+1398472Y+579001D01*
X+179272Y+584081D02*
X+423112Y+584081D01*
X+443432Y+584081D02*
X+514552Y+584081D01*
X+189432Y+589161D02*
X+423112Y+589161D01*
X+443432Y+589161D02*
X+504392Y+589161D01*
X+204672Y+594241D02*
X+423112Y+594241D01*
X+443432Y+594241D02*
X+494232Y+594241D01*
X+214832Y+599321D02*
X+423112Y+599321D01*
X+448512Y+599321D02*
X+484072Y+599321D01*
X+224992Y+604401D02*
X+423112Y+604401D01*
X+448512Y+604401D02*
X+473912Y+604401D01*
X+235152Y+609481D02*
X+423112Y+609481D01*
X+245312Y+614561D02*
X+423112Y+614561D01*
X+255472Y+619641D02*
X+418032Y+619641D01*
X+270712Y+624721D02*
X+418032Y+624721D01*
X+280872Y+629801D02*
X+407872Y+629801D01*
X+291032Y+634881D02*
X+397712Y+634881D01*
X+301192Y+639961D02*
X+387552Y+639961D01*
X+311352Y+645041D02*
X+377392Y+645041D01*
X+326592Y+650121D02*
X+367232Y+650121D01*
D70*
X+190000Y+844280D02*
X+190000Y+826500D01*
X+204287Y+808720D01*
X+261437Y+808720D01*
X+275725Y+826500D01*
X+275725Y+915400D01*
X+304300Y+844280D02*
X+390025Y+844280D01*
X+390025Y+862060D01*
X+375737Y+879840D01*
X+318587Y+879840D01*
X+304300Y+862060D01*
X+304300Y+826500D01*
X+318587Y+808720D01*
X+375737Y+808720D01*
X+490037Y+879840D02*
X+432887Y+879840D01*
X+418600Y+862060D01*
X+432887Y+844280D01*
X+490037Y+844280D01*
X+504325Y+826500D01*
X+490037Y+808720D01*
X+418600Y+808720D01*
X+604337Y+879840D02*
X+547187Y+879840D01*
X+532900Y+862060D01*
X+547187Y+844280D01*
X+604337Y+844280D01*
X+618625Y+826500D01*
X+604337Y+808720D01*
X+532900Y+808720D01*
X+647200Y+844280D02*
X+732925Y+844280D01*
X+732925Y+862060D01*
X+718637Y+879840D01*
X+661487Y+879840D01*
X+647200Y+862060D01*
X+647200Y+826500D01*
X+661487Y+808720D01*
X+718637Y+808720D01*
X+875800Y+808720D02*
X+875800Y+879840D01*
X+904375Y+915400D01*
X+932950Y+915400D01*
X+961525Y+879840D01*
X+961525Y+808720D01*
X+875800Y+844280D02*
X+961525Y+844280D01*
X+1032962Y+915400D02*
X+1032962Y+808720D01*
X+1104400Y+879840D02*
X+1147262Y+808720D01*
X+1190125Y+879840D01*
X+1218700Y+844280D02*
X+1304425Y+844280D01*
X+1304425Y+862060D01*
X+1290137Y+879840D01*
X+1232987Y+879840D01*
X+1218700Y+862060D01*
X+1218700Y+826500D01*
X+1232987Y+808720D01*
X+1290137Y+808720D01*
X+1404437Y+879840D02*
X+1347287Y+879840D01*
X+1333000Y+862060D01*
X+1347287Y+844280D01*
X+1404437Y+844280D01*
X+1418725Y+826500D01*
X+1404437Y+808720D01*
X+1333000Y+808720D01*
D20*
X+0Y+0D02*
X+0Y+6200000D01*
X+3900000Y+6200000D01*
X+3900000Y+5500000D01*
X+4400000Y+5500000D01*
X+4400000Y+0D01*
D21*
X+0Y-320000D02*
X+4400000Y-320000D01*
X+0Y-320000D02*
X+127000Y-447000D01*
X+0Y-320000D02*
X+127000Y-193000D01*
X+4400000Y-320000D02*
X+4273000Y-193000D01*
X+4400000Y-320000D02*
X+4273000Y-447000D01*
X+2231750Y-320000D02*
X+2231641Y-317366D01*
X+2230751Y-312097D01*
X+2228889Y-306828D01*
X+2225846Y-301559D01*
X+2221191Y-296357D01*
X+2215922Y-292531D01*
X+2210653Y-290091D01*
X+2205384Y-288710D01*
X+2200115Y-288250D01*
X+2200000Y-288250D01*
X+2168250Y-320000D02*
X+2168359Y-317366D01*
X+2169249Y-312097D01*
X+2171111Y-306828D01*
X+2174154Y-301559D01*
X+2178809Y-296357D01*
X+2184078Y-292531D01*
X+2189347Y-290091D01*
X+2194616Y-288710D01*
X+2199885Y-288250D01*
X+2200000Y-288250D01*
X+2168250Y-320000D02*
X+2168359Y-322634D01*
X+2169249Y-327903D01*
X+2171111Y-333172D01*
X+2174154Y-338441D01*
X+2178809Y-343643D01*
X+2184078Y-347469D01*
X+2189347Y-349909D01*
X+2194616Y-351290D01*
X+2199885Y-351750D01*
X+2200000Y-351750D01*
X+2231750Y-320000D02*
X+2231641Y-322634D01*
X+2230751Y-327903D01*
X+2228889Y-333172D01*
X+2225846Y-338441D01*
X+2221191Y-343643D01*
X+2215922Y-347469D01*
X+2210653Y-349909D01*
X+2205384Y-351290D01*
X+2200115Y-351750D01*
X+2200000Y-351750D01*
X+2041250Y-248880D02*
X+1946000Y-248880D01*
X+2009500Y-187920D01*
X+2009500Y-279360D01*
X+2168250Y-248880D02*
X+2073000Y-248880D01*
X+2136500Y-187920D01*
X+2136500Y-279360D01*
X+2200000Y-279360D02*
X+2200000Y-218400D01*
X+2200000Y-233640D02*
X+2215875Y-218400D01*
X+2247625Y-248880D01*
X+2279375Y-218400D01*
X+2295250Y-233640D01*
X+2295250Y-279360D01*
X+2327000Y-279360D02*
X+2327000Y-218400D01*
X+2327000Y-233640D02*
X+2342875Y-218400D01*
X+2374625Y-248880D01*
X+2406375Y-218400D01*
X+2422250Y-233640D01*
X+2422250Y-279360D01*
D20*
X+0Y+0D02*
X+4400000Y+0D01*
D21*
X-300000Y+0D02*
X-300000Y+6200000D01*
X-300000Y+0D02*
X-173000Y+127000D01*
X-300000Y+0D02*
X-427000Y+127000D01*
X-300000Y+6200000D02*
X-427000Y+6073000D01*
X-300000Y+6200000D02*
X-173000Y+6073000D01*
X-268250Y+3100000D02*
X-268359Y+3102634D01*
X-269249Y+3107903D01*
X-271111Y+3113172D01*
X-274154Y+3118441D01*
X-278809Y+3123643D01*
X-284078Y+3127469D01*
X-289347Y+3129909D01*
X-294616Y+3131290D01*
X-299885Y+3131750D01*
X-300000Y+3131750D01*
X-331750Y+3100000D02*
X-331641Y+3102634D01*
X-330751Y+3107903D01*
X-328889Y+3113172D01*
X-325846Y+3118441D01*
X-321191Y+3123643D01*
X-315922Y+3127469D01*
X-310653Y+3129909D01*
X-305384Y+3131290D01*
X-300115Y+3131750D01*
X-300000Y+3131750D01*
X-331750Y+3100000D02*
X-331641Y+3097366D01*
X-330751Y+3092097D01*
X-328889Y+3086828D01*
X-325846Y+3081559D01*
X-321191Y+3076357D01*
X-315922Y+3072531D01*
X-310653Y+3070091D01*
X-305384Y+3068710D01*
X-300115Y+3068250D01*
X-300000Y+3068250D01*
X-268250Y+3100000D02*
X-268359Y+3097366D01*
X-269249Y+3092097D01*
X-271111Y+3086828D01*
X-274154Y+3081559D01*
X-278809Y+3076357D01*
X-284078Y+3072531D01*
X-289347Y+3070091D01*
X-294616Y+3068710D01*
X-299885Y+3068250D01*
X-300000Y+3068250D01*
X-416840Y+2941250D02*
X-432080Y+2925375D01*
X-432080Y+2877750D01*
X-416840Y+2861875D01*
X-355880Y+2861875D01*
X-340640Y+2877750D01*
X-340640Y+2925375D01*
X-355880Y+2941250D01*
X-371120Y+2941250D01*
X-386360Y+2925375D01*
X-386360Y+2861875D01*
X-416840Y+2988875D02*
X-432080Y+3004750D01*
X-432080Y+3052375D01*
X-416840Y+3068250D01*
X-401600Y+3068250D01*
X-386360Y+3052375D01*
X-386360Y+3004750D01*
X-371120Y+2988875D01*
X-340640Y+2988875D01*
X-340640Y+3068250D01*
X-340640Y+3100000D02*
X-401600Y+3100000D01*
X-386360Y+3100000D02*
X-401600Y+3115875D01*
X-371120Y+3147625D01*
X-401600Y+3179375D01*
X-386360Y+3195250D01*
X-340640Y+3195250D01*
X-340640Y+3227000D02*
X-401600Y+3227000D01*
X-386360Y+3227000D02*
X-401600Y+3242875D01*
X-371120Y+3274625D01*
X-401600Y+3306375D01*
X-386360Y+3322250D01*
X-340640Y+3322250D01*
X+4600000Y+5500000D02*
X+4600000Y+0D01*
X+4600000Y+5500000D02*
X+4473000Y+5373000D01*
X+4600000Y+5500000D02*
X+4727000Y+5373000D01*
X+4600000Y+0D02*
X+4727000Y+127000D01*
X+4600000Y+0D02*
X+4473000Y+127000D01*
X+4631750Y+2750000D02*
X+4631641Y+2752634D01*
X+4630751Y+2757903D01*
X+4628889Y+2763172D01*
X+4625846Y+2768441D01*
X+4621191Y+2773643D01*
X+4615922Y+2777469D01*
X+4610653Y+2779909D01*
X+4605384Y+2781290D01*
X+4600115Y+2781750D01*
X+4600000Y+2781750D01*
X+4568250Y+2750000D02*
X+4568359Y+2752634D01*
X+4569249Y+2757903D01*
X+4571111Y+2763172D01*
X+4574154Y+2768441D01*
X+4578809Y+2773643D01*
X+4584078Y+2777469D01*
X+4589347Y+2779909D01*
X+4594616Y+2781290D01*
X+4599885Y+2781750D01*
X+4600000Y+2781750D01*
X+4568250Y+2750000D02*
X+4568359Y+2747366D01*
X+4569249Y+2742097D01*
X+4571111Y+2736828D01*
X+4574154Y+2731559D01*
X+4578809Y+2726357D01*
X+4584078Y+2722531D01*
X+4589347Y+2720091D01*
X+4594616Y+2718710D01*
X+4599885Y+2718250D01*
X+4600000Y+2718250D01*
X+4631750Y+2750000D02*
X+4631641Y+2747366D01*
X+4630751Y+2742097D01*
X+4628889Y+2736828D01*
X+4625846Y+2731559D01*
X+4621191Y+2726357D01*
X+4615922Y+2722531D01*
X+4610653Y+2720091D01*
X+4605384Y+2718710D01*
X+4600115Y+2718250D01*
X+4600000Y+2718250D01*
X+4732080Y+2908750D02*
X+4732080Y+2988125D01*
X+4701600Y+2988125D01*
X+4701600Y+2924625D01*
X+4686360Y+2908750D01*
X+4655880Y+2908750D01*
X+4640640Y+2924625D01*
X+4640640Y+2972250D01*
X+4655880Y+2988125D01*
X+4732080Y+2781750D02*
X+4732080Y+2861125D01*
X+4701600Y+2861125D01*
X+4701600Y+2797625D01*
X+4686360Y+2781750D01*
X+4655880Y+2781750D01*
X+4640640Y+2797625D01*
X+4640640Y+2845250D01*
X+4655880Y+2861125D01*
X+4640640Y+2750000D02*
X+4701600Y+2750000D01*
X+4686360Y+2750000D02*
X+4701600Y+2734125D01*
X+4671120Y+2702375D01*
X+4701600Y+2670625D01*
X+4686360Y+2654750D01*
X+4640640Y+2654750D01*
X+4640640Y+2623000D02*
X+4701600Y+2623000D01*
X+4686360Y+2623000D02*
X+4701600Y+2607125D01*
X+4671120Y+2575375D01*
X+4701600Y+2543625D01*
X+4686360Y+2527750D01*
X+4640640Y+2527750D01*
M02*
