G04 PROTEUS GERBER X2 FILE*
%TF.GenerationSoftware,Labcenter,Proteus,8.12-SP0-Build30713*%
%TF.CreationDate,2023-07-17T11:58:22+00:00*%
%TF.FileFunction,AssemblyDrawing,Top*%
%TF.FilePolarity,Positive*%
%TF.Part,Single*%
%TF.SameCoordinates,{929d0d33-b1dc-492e-9cfe-804fc5f4831e}*%
%FSLAX45Y45*%
%MOMM*%
G01*
%TA.AperFunction,Material*%
%ADD32C,0.050000*%
%ADD33C,1.303400*%
%TA.AperFunction,Profile*%
%ADD20C,0.203200*%
%TA.AperFunction,NonMaterial*%
%ADD21C,0.203200*%
%TA.AperFunction,Material*%
%ADD23C,0.203200*%
%ADD34C,0.711200*%
%ADD35C,0.110230*%
%ADD36C,0.177800*%
%ADD37C,0.914400*%
%ADD38C,0.141350*%
%ADD39C,0.145790*%
%ADD40C,0.117850*%
%ADD41C,0.147320*%
%ADD42C,0.600000*%
%ADD43C,0.217160*%
%TD.AperFunction*%
D32*
X+1585000Y+5499000D02*
X+1585000Y-51000D01*
X+4365000Y-51000D01*
X+4365000Y+5499000D01*
X+1585000Y+5499000D01*
D33*
X+2583978Y+1550936D02*
X+3235681Y+1550936D01*
X+3366021Y+1697569D01*
X+3366021Y+2284101D01*
X+3235681Y+2430734D01*
X+2583978Y+2430734D01*
X+2714319Y+2870633D02*
X+2583978Y+3017266D01*
X+2583978Y+3457165D01*
X+2714319Y+3603798D01*
X+2844659Y+3603798D01*
X+2975000Y+3457165D01*
X+3105340Y+3603798D01*
X+3235681Y+3603798D01*
X+3366021Y+3457165D01*
X+3366021Y+3017266D01*
X+3235681Y+2870633D01*
X+2975000Y+3163899D02*
X+2975000Y+3457165D01*
D20*
X+0Y+0D02*
X+0Y+6200000D01*
X+3900000Y+6200000D01*
X+3900000Y+5500000D01*
X+4400000Y+5500000D01*
X+4400000Y+0D01*
D21*
X+0Y-320000D02*
X+4400000Y-320000D01*
X+0Y-320000D02*
X+127000Y-447000D01*
X+0Y-320000D02*
X+127000Y-193000D01*
X+4400000Y-320000D02*
X+4273000Y-193000D01*
X+4400000Y-320000D02*
X+4273000Y-447000D01*
X+2231750Y-320000D02*
X+2231641Y-317366D01*
X+2230751Y-312097D01*
X+2228889Y-306828D01*
X+2225846Y-301559D01*
X+2221191Y-296357D01*
X+2215922Y-292531D01*
X+2210653Y-290091D01*
X+2205384Y-288710D01*
X+2200115Y-288250D01*
X+2200000Y-288250D01*
X+2168250Y-320000D02*
X+2168359Y-317366D01*
X+2169249Y-312097D01*
X+2171111Y-306828D01*
X+2174154Y-301559D01*
X+2178809Y-296357D01*
X+2184078Y-292531D01*
X+2189347Y-290091D01*
X+2194616Y-288710D01*
X+2199885Y-288250D01*
X+2200000Y-288250D01*
X+2168250Y-320000D02*
X+2168359Y-322634D01*
X+2169249Y-327903D01*
X+2171111Y-333172D01*
X+2174154Y-338441D01*
X+2178809Y-343643D01*
X+2184078Y-347469D01*
X+2189347Y-349909D01*
X+2194616Y-351290D01*
X+2199885Y-351750D01*
X+2200000Y-351750D01*
X+2231750Y-320000D02*
X+2231641Y-322634D01*
X+2230751Y-327903D01*
X+2228889Y-333172D01*
X+2225846Y-338441D01*
X+2221191Y-343643D01*
X+2215922Y-347469D01*
X+2210653Y-349909D01*
X+2205384Y-351290D01*
X+2200115Y-351750D01*
X+2200000Y-351750D01*
X+2041250Y-248880D02*
X+1946000Y-248880D01*
X+2009500Y-187920D01*
X+2009500Y-279360D01*
X+2168250Y-248880D02*
X+2073000Y-248880D01*
X+2136500Y-187920D01*
X+2136500Y-279360D01*
X+2200000Y-279360D02*
X+2200000Y-218400D01*
X+2200000Y-233640D02*
X+2215875Y-218400D01*
X+2247625Y-248880D01*
X+2279375Y-218400D01*
X+2295250Y-233640D01*
X+2295250Y-279360D01*
X+2327000Y-279360D02*
X+2327000Y-218400D01*
X+2327000Y-233640D02*
X+2342875Y-218400D01*
X+2374625Y-248880D01*
X+2406375Y-218400D01*
X+2422250Y-233640D01*
X+2422250Y-279360D01*
D20*
X+0Y+0D02*
X+4400000Y+0D01*
D21*
X-300000Y+0D02*
X-300000Y+6200000D01*
X-300000Y+0D02*
X-173000Y+127000D01*
X-300000Y+0D02*
X-427000Y+127000D01*
X-300000Y+6200000D02*
X-427000Y+6073000D01*
X-300000Y+6200000D02*
X-173000Y+6073000D01*
X-268250Y+3100000D02*
X-268359Y+3102634D01*
X-269249Y+3107903D01*
X-271111Y+3113172D01*
X-274154Y+3118441D01*
X-278809Y+3123643D01*
X-284078Y+3127469D01*
X-289347Y+3129909D01*
X-294616Y+3131290D01*
X-299885Y+3131750D01*
X-300000Y+3131750D01*
X-331750Y+3100000D02*
X-331641Y+3102634D01*
X-330751Y+3107903D01*
X-328889Y+3113172D01*
X-325846Y+3118441D01*
X-321191Y+3123643D01*
X-315922Y+3127469D01*
X-310653Y+3129909D01*
X-305384Y+3131290D01*
X-300115Y+3131750D01*
X-300000Y+3131750D01*
X-331750Y+3100000D02*
X-331641Y+3097366D01*
X-330751Y+3092097D01*
X-328889Y+3086828D01*
X-325846Y+3081559D01*
X-321191Y+3076357D01*
X-315922Y+3072531D01*
X-310653Y+3070091D01*
X-305384Y+3068710D01*
X-300115Y+3068250D01*
X-300000Y+3068250D01*
X-268250Y+3100000D02*
X-268359Y+3097366D01*
X-269249Y+3092097D01*
X-271111Y+3086828D01*
X-274154Y+3081559D01*
X-278809Y+3076357D01*
X-284078Y+3072531D01*
X-289347Y+3070091D01*
X-294616Y+3068710D01*
X-299885Y+3068250D01*
X-300000Y+3068250D01*
X-416840Y+2941250D02*
X-432080Y+2925375D01*
X-432080Y+2877750D01*
X-416840Y+2861875D01*
X-355880Y+2861875D01*
X-340640Y+2877750D01*
X-340640Y+2925375D01*
X-355880Y+2941250D01*
X-371120Y+2941250D01*
X-386360Y+2925375D01*
X-386360Y+2861875D01*
X-416840Y+2988875D02*
X-432080Y+3004750D01*
X-432080Y+3052375D01*
X-416840Y+3068250D01*
X-401600Y+3068250D01*
X-386360Y+3052375D01*
X-386360Y+3004750D01*
X-371120Y+2988875D01*
X-340640Y+2988875D01*
X-340640Y+3068250D01*
X-340640Y+3100000D02*
X-401600Y+3100000D01*
X-386360Y+3100000D02*
X-401600Y+3115875D01*
X-371120Y+3147625D01*
X-401600Y+3179375D01*
X-386360Y+3195250D01*
X-340640Y+3195250D01*
X-340640Y+3227000D02*
X-401600Y+3227000D01*
X-386360Y+3227000D02*
X-401600Y+3242875D01*
X-371120Y+3274625D01*
X-401600Y+3306375D01*
X-386360Y+3322250D01*
X-340640Y+3322250D01*
X+4600000Y+5500000D02*
X+4600000Y+0D01*
X+4600000Y+5500000D02*
X+4473000Y+5373000D01*
X+4600000Y+5500000D02*
X+4727000Y+5373000D01*
X+4600000Y+0D02*
X+4727000Y+127000D01*
X+4600000Y+0D02*
X+4473000Y+127000D01*
X+4631750Y+2750000D02*
X+4631641Y+2752634D01*
X+4630751Y+2757903D01*
X+4628889Y+2763172D01*
X+4625846Y+2768441D01*
X+4621191Y+2773643D01*
X+4615922Y+2777469D01*
X+4610653Y+2779909D01*
X+4605384Y+2781290D01*
X+4600115Y+2781750D01*
X+4600000Y+2781750D01*
X+4568250Y+2750000D02*
X+4568359Y+2752634D01*
X+4569249Y+2757903D01*
X+4571111Y+2763172D01*
X+4574154Y+2768441D01*
X+4578809Y+2773643D01*
X+4584078Y+2777469D01*
X+4589347Y+2779909D01*
X+4594616Y+2781290D01*
X+4599885Y+2781750D01*
X+4600000Y+2781750D01*
X+4568250Y+2750000D02*
X+4568359Y+2747366D01*
X+4569249Y+2742097D01*
X+4571111Y+2736828D01*
X+4574154Y+2731559D01*
X+4578809Y+2726357D01*
X+4584078Y+2722531D01*
X+4589347Y+2720091D01*
X+4594616Y+2718710D01*
X+4599885Y+2718250D01*
X+4600000Y+2718250D01*
X+4631750Y+2750000D02*
X+4631641Y+2747366D01*
X+4630751Y+2742097D01*
X+4628889Y+2736828D01*
X+4625846Y+2731559D01*
X+4621191Y+2726357D01*
X+4615922Y+2722531D01*
X+4610653Y+2720091D01*
X+4605384Y+2718710D01*
X+4600115Y+2718250D01*
X+4600000Y+2718250D01*
X+4732080Y+2908750D02*
X+4732080Y+2988125D01*
X+4701600Y+2988125D01*
X+4701600Y+2924625D01*
X+4686360Y+2908750D01*
X+4655880Y+2908750D01*
X+4640640Y+2924625D01*
X+4640640Y+2972250D01*
X+4655880Y+2988125D01*
X+4732080Y+2781750D02*
X+4732080Y+2861125D01*
X+4701600Y+2861125D01*
X+4701600Y+2797625D01*
X+4686360Y+2781750D01*
X+4655880Y+2781750D01*
X+4640640Y+2797625D01*
X+4640640Y+2845250D01*
X+4655880Y+2861125D01*
X+4640640Y+2750000D02*
X+4701600Y+2750000D01*
X+4686360Y+2750000D02*
X+4701600Y+2734125D01*
X+4671120Y+2702375D01*
X+4701600Y+2670625D01*
X+4686360Y+2654750D01*
X+4640640Y+2654750D01*
X+4640640Y+2623000D02*
X+4701600Y+2623000D01*
X+4686360Y+2623000D02*
X+4701600Y+2607125D01*
X+4671120Y+2575375D01*
X+4701600Y+2543625D01*
X+4686360Y+2527750D01*
X+4640640Y+2527750D01*
D23*
X+81100Y+3791100D02*
X+258900Y+3791100D01*
X+258900Y+4984900D01*
X+81100Y+4984900D01*
X+81100Y+3791100D01*
D34*
X+170000Y+3880000D02*
X+170000Y+3880000D01*
D35*
X+203071Y+4351018D02*
X+136930Y+4351018D01*
X+136930Y+4413025D01*
X+147953Y+4425427D01*
X+158977Y+4425427D01*
X+170000Y+4413025D01*
X+170000Y+4351018D01*
X+170000Y+4413025D02*
X+181024Y+4425427D01*
X+203071Y+4425427D01*
X+170000Y+4475033D02*
X+158977Y+4462631D01*
X+147953Y+4462631D01*
X+136930Y+4475033D01*
X+136930Y+4512237D01*
X+147953Y+4524639D01*
X+158977Y+4524639D01*
X+170000Y+4512237D01*
X+170000Y+4475033D01*
X+181024Y+4462631D01*
X+192048Y+4462631D01*
X+203071Y+4475033D01*
X+203071Y+4512237D01*
X+192048Y+4524639D01*
X+181024Y+4524639D01*
X+170000Y+4512237D01*
D23*
X+421100Y+3791100D02*
X+598900Y+3791100D01*
X+598900Y+4984900D01*
X+421100Y+4984900D01*
X+421100Y+3791100D01*
D34*
X+510000Y+3880000D02*
X+510000Y+3880000D01*
D35*
X+543071Y+4351018D02*
X+476930Y+4351018D01*
X+476930Y+4413025D01*
X+487953Y+4425427D01*
X+498977Y+4425427D01*
X+510000Y+4413025D01*
X+510000Y+4351018D01*
X+510000Y+4413025D02*
X+521024Y+4425427D01*
X+543071Y+4425427D01*
X+476930Y+4462631D02*
X+476930Y+4524639D01*
X+487953Y+4524639D01*
X+543071Y+4462631D01*
D23*
X+781100Y+3791100D02*
X+958900Y+3791100D01*
X+958900Y+4984900D01*
X+781100Y+4984900D01*
X+781100Y+3791100D01*
D34*
X+870000Y+3880000D02*
X+870000Y+3880000D01*
D35*
X+903071Y+4351018D02*
X+836930Y+4351018D01*
X+836930Y+4413025D01*
X+847953Y+4425427D01*
X+858977Y+4425427D01*
X+870000Y+4413025D01*
X+870000Y+4351018D01*
X+870000Y+4413025D02*
X+881024Y+4425427D01*
X+903071Y+4425427D01*
X+847953Y+4524639D02*
X+836930Y+4512237D01*
X+836930Y+4475033D01*
X+847953Y+4462631D01*
X+892048Y+4462631D01*
X+903071Y+4475033D01*
X+903071Y+4512237D01*
X+892048Y+4524639D01*
X+881024Y+4524639D01*
X+870000Y+4512237D01*
X+870000Y+4462631D01*
D23*
X+1141100Y+3791100D02*
X+1318900Y+3791100D01*
X+1318900Y+4984900D01*
X+1141100Y+4984900D01*
X+1141100Y+3791100D01*
D34*
X+1230000Y+3880000D02*
X+1230000Y+3880000D01*
D35*
X+1263071Y+4351018D02*
X+1196930Y+4351018D01*
X+1196930Y+4413025D01*
X+1207953Y+4425427D01*
X+1218977Y+4425427D01*
X+1230000Y+4413025D01*
X+1230000Y+4351018D01*
X+1230000Y+4413025D02*
X+1241024Y+4425427D01*
X+1263071Y+4425427D01*
X+1196930Y+4524639D02*
X+1196930Y+4462631D01*
X+1218977Y+4462631D01*
X+1218977Y+4512237D01*
X+1230000Y+4524639D01*
X+1252048Y+4524639D01*
X+1263071Y+4512237D01*
X+1263071Y+4475033D01*
X+1252048Y+4462631D01*
D23*
X+172840Y+5302840D02*
X+447160Y+5302840D01*
X+447160Y+6085160D01*
X+172840Y+6085160D01*
X+172840Y+5302840D01*
D34*
X+310000Y+5440000D02*
X+310000Y+5440000D01*
D36*
X+345560Y+5740355D02*
X+363340Y+5720352D01*
X+363340Y+5660345D01*
X+327780Y+5620340D01*
X+292220Y+5620340D01*
X+256660Y+5660345D01*
X+256660Y+5720352D01*
X+274440Y+5740355D01*
X+310000Y+5820365D02*
X+292220Y+5800362D01*
X+274440Y+5800362D01*
X+256660Y+5820365D01*
X+256660Y+5880372D01*
X+274440Y+5900375D01*
X+292220Y+5900375D01*
X+310000Y+5880372D01*
X+310000Y+5820365D01*
X+327780Y+5800362D01*
X+345560Y+5800362D01*
X+363340Y+5820365D01*
X+363340Y+5880372D01*
X+345560Y+5900375D01*
X+327780Y+5900375D01*
X+310000Y+5880372D01*
D23*
X+562840Y+5292840D02*
X+837160Y+5292840D01*
X+837160Y+6075160D01*
X+562840Y+6075160D01*
X+562840Y+5292840D01*
D34*
X+700000Y+5430000D02*
X+700000Y+5430000D01*
D36*
X+735560Y+5730355D02*
X+753340Y+5710352D01*
X+753340Y+5650345D01*
X+717780Y+5610340D01*
X+682220Y+5610340D01*
X+646660Y+5650345D01*
X+646660Y+5710352D01*
X+664440Y+5730355D01*
X+646660Y+5790362D02*
X+646660Y+5890375D01*
X+664440Y+5890375D01*
X+753340Y+5790362D01*
D23*
X+922840Y+5292840D02*
X+1197160Y+5292840D01*
X+1197160Y+6075160D01*
X+922840Y+6075160D01*
X+922840Y+5292840D01*
D34*
X+1060000Y+5430000D02*
X+1060000Y+5430000D01*
D36*
X+1095560Y+5730355D02*
X+1113340Y+5710352D01*
X+1113340Y+5650345D01*
X+1077780Y+5610340D01*
X+1042220Y+5610340D01*
X+1006660Y+5650345D01*
X+1006660Y+5710352D01*
X+1024440Y+5730355D01*
X+1024440Y+5890375D02*
X+1006660Y+5870372D01*
X+1006660Y+5810365D01*
X+1024440Y+5790362D01*
X+1095560Y+5790362D01*
X+1113340Y+5810365D01*
X+1113340Y+5870372D01*
X+1095560Y+5890375D01*
X+1077780Y+5890375D01*
X+1060000Y+5870372D01*
X+1060000Y+5790362D01*
D23*
X+1272840Y+5292840D02*
X+1547160Y+5292840D01*
X+1547160Y+6075160D01*
X+1272840Y+6075160D01*
X+1272840Y+5292840D01*
D34*
X+1410000Y+5430000D02*
X+1410000Y+5430000D01*
D36*
X+1445560Y+5730355D02*
X+1463340Y+5710352D01*
X+1463340Y+5650345D01*
X+1427780Y+5610340D01*
X+1392220Y+5610340D01*
X+1356660Y+5650345D01*
X+1356660Y+5710352D01*
X+1374440Y+5730355D01*
X+1356660Y+5890375D02*
X+1356660Y+5790362D01*
X+1392220Y+5790362D01*
X+1392220Y+5870372D01*
X+1410000Y+5890375D01*
X+1445560Y+5890375D01*
X+1463340Y+5870372D01*
X+1463340Y+5810365D01*
X+1445560Y+5790362D01*
D23*
X+2192840Y+1014840D02*
X+2467160Y+1014840D01*
X+2467160Y+1797160D01*
X+2192840Y+1797160D01*
X+2192840Y+1014840D01*
D34*
X+2330000Y+1660000D02*
X+2330000Y+1660000D01*
D36*
X+2365560Y+1279635D02*
X+2383340Y+1259632D01*
X+2383340Y+1199625D01*
X+2347780Y+1159620D01*
X+2312220Y+1159620D01*
X+2276660Y+1199625D01*
X+2276660Y+1259632D01*
X+2294440Y+1279635D01*
X+2312220Y+1359645D02*
X+2276660Y+1399650D01*
X+2383340Y+1399650D01*
D23*
X+3791100Y+855100D02*
X+3968900Y+855100D01*
X+3968900Y+2048900D01*
X+3791100Y+2048900D01*
X+3791100Y+855100D01*
D34*
X+3880000Y+1960000D02*
X+3880000Y+1960000D01*
D35*
X+3913071Y+1290558D02*
X+3846930Y+1290558D01*
X+3846930Y+1352565D01*
X+3857953Y+1364967D01*
X+3868977Y+1364967D01*
X+3880000Y+1352565D01*
X+3880000Y+1290558D01*
X+3880000Y+1352565D02*
X+3891024Y+1364967D01*
X+3913071Y+1364967D01*
X+3857953Y+1402171D02*
X+3846930Y+1414573D01*
X+3846930Y+1451777D01*
X+3857953Y+1464179D01*
X+3868977Y+1464179D01*
X+3880000Y+1451777D01*
X+3891024Y+1464179D01*
X+3902048Y+1464179D01*
X+3913071Y+1451777D01*
X+3913071Y+1414573D01*
X+3902048Y+1402171D01*
X+3880000Y+1426974D02*
X+3880000Y+1451777D01*
D23*
X+3332840Y+1014840D02*
X+3607160Y+1014840D01*
X+3607160Y+1797160D01*
X+3332840Y+1797160D01*
X+3332840Y+1014840D01*
D34*
X+3470000Y+1660000D02*
X+3470000Y+1660000D01*
D36*
X+3505560Y+1279635D02*
X+3523340Y+1259632D01*
X+3523340Y+1199625D01*
X+3487780Y+1159620D01*
X+3452220Y+1159620D01*
X+3416660Y+1199625D01*
X+3416660Y+1259632D01*
X+3434440Y+1279635D01*
X+3434440Y+1339642D02*
X+3416660Y+1359645D01*
X+3416660Y+1419652D01*
X+3434440Y+1439655D01*
X+3452220Y+1439655D01*
X+3470000Y+1419652D01*
X+3487780Y+1439655D01*
X+3505560Y+1439655D01*
X+3523340Y+1419652D01*
X+3523340Y+1359645D01*
X+3505560Y+1339642D01*
X+3470000Y+1379647D02*
X+3470000Y+1419652D01*
D23*
X+2961100Y+855100D02*
X+3138900Y+855100D01*
X+3138900Y+2048900D01*
X+2961100Y+2048900D01*
X+2961100Y+855100D01*
D34*
X+3050000Y+1960000D02*
X+3050000Y+1960000D01*
D35*
X+3083071Y+1290558D02*
X+3016930Y+1290558D01*
X+3016930Y+1352565D01*
X+3027953Y+1364967D01*
X+3038977Y+1364967D01*
X+3050000Y+1352565D01*
X+3050000Y+1290558D01*
X+3050000Y+1352565D02*
X+3061024Y+1364967D01*
X+3083071Y+1364967D01*
X+3061024Y+1464179D02*
X+3061024Y+1389770D01*
X+3016930Y+1439376D01*
X+3083071Y+1439376D01*
D23*
X+2572840Y+1014840D02*
X+2847160Y+1014840D01*
X+2847160Y+1797160D01*
X+2572840Y+1797160D01*
X+2572840Y+1014840D01*
D34*
X+2710000Y+1660000D02*
X+2710000Y+1660000D01*
D36*
X+2745560Y+1279635D02*
X+2763340Y+1259632D01*
X+2763340Y+1199625D01*
X+2727780Y+1159620D01*
X+2692220Y+1159620D01*
X+2656660Y+1199625D01*
X+2656660Y+1259632D01*
X+2674440Y+1279635D01*
X+2727780Y+1439655D02*
X+2727780Y+1319640D01*
X+2656660Y+1399650D01*
X+2763340Y+1399650D01*
D32*
X+3475000Y+6020000D02*
X+3474914Y+6022076D01*
X+3474212Y+6026229D01*
X+3472742Y+6030382D01*
X+3470340Y+6034535D01*
X+3466667Y+6038634D01*
X+3462514Y+6041643D01*
X+3458361Y+6043560D01*
X+3454208Y+6044643D01*
X+3450055Y+6045000D01*
X+3450000Y+6045000D01*
X+3425000Y+6020000D02*
X+3425086Y+6022076D01*
X+3425788Y+6026229D01*
X+3427258Y+6030382D01*
X+3429660Y+6034535D01*
X+3433333Y+6038634D01*
X+3437486Y+6041643D01*
X+3441639Y+6043560D01*
X+3445792Y+6044643D01*
X+3449945Y+6045000D01*
X+3450000Y+6045000D01*
X+3425000Y+6020000D02*
X+3425086Y+6017924D01*
X+3425788Y+6013771D01*
X+3427258Y+6009618D01*
X+3429660Y+6005465D01*
X+3433333Y+6001366D01*
X+3437486Y+5998357D01*
X+3441639Y+5996440D01*
X+3445792Y+5995357D01*
X+3449945Y+5995000D01*
X+3450000Y+5995000D01*
X+3475000Y+6020000D02*
X+3474914Y+6017924D01*
X+3474212Y+6013771D01*
X+3472742Y+6009618D01*
X+3470340Y+6005465D01*
X+3466667Y+6001366D01*
X+3462514Y+5998357D01*
X+3458361Y+5996440D01*
X+3454208Y+5995357D01*
X+3450055Y+5995000D01*
X+3450000Y+5995000D01*
X+3485000Y+6020000D02*
X+3415000Y+6020000D01*
X+3450000Y+6055000D02*
X+3450000Y+5985000D01*
X+2925000Y+6545000D02*
X+2925000Y+6020000D01*
X+2927652Y+5965438D01*
X+2935446Y+5912655D01*
X+2948143Y+5861890D01*
X+2965503Y+5813384D01*
X+2987285Y+5767378D01*
X+3013248Y+5724111D01*
X+3043152Y+5683824D01*
X+3076758Y+5646758D01*
X+3113824Y+5613152D01*
X+3154111Y+5583248D01*
X+3197378Y+5557285D01*
X+3243384Y+5535503D01*
X+3291890Y+5518143D01*
X+3342655Y+5505446D01*
X+3395438Y+5497652D01*
X+3450000Y+5495000D01*
X+3504562Y+5497652D01*
X+3557345Y+5505446D01*
X+3608110Y+5518143D01*
X+3656616Y+5535503D01*
X+3702622Y+5557285D01*
X+3745889Y+5583248D01*
X+3786176Y+5613152D01*
X+3823242Y+5646758D01*
X+3856848Y+5683824D01*
X+3886752Y+5724111D01*
X+3912715Y+5767378D01*
X+3934497Y+5813384D01*
X+3951857Y+5861890D01*
X+3964554Y+5912655D01*
X+3972348Y+5965438D01*
X+3975000Y+6020000D01*
X+3972348Y+6074562D01*
X+3964554Y+6127345D01*
X+3951857Y+6178110D01*
X+3934497Y+6226616D01*
X+3912715Y+6272622D01*
X+3886752Y+6315889D01*
X+3856848Y+6356176D01*
X+3823242Y+6393242D01*
X+3786176Y+6426848D01*
X+3745889Y+6456752D01*
X+3702622Y+6482715D01*
X+3656616Y+6504497D01*
X+3608110Y+6521857D01*
X+3557345Y+6534554D01*
X+3504562Y+6542348D01*
X+3450000Y+6545000D01*
X+2925000Y+6545000D01*
D37*
X+3700000Y+6020000D02*
X+3700000Y+6020000D01*
D38*
X+3316661Y+5670156D02*
X+3330796Y+5654254D01*
X+3330796Y+5606548D01*
X+3302526Y+5574744D01*
X+3274255Y+5574744D01*
X+3245985Y+5606548D01*
X+3245985Y+5654254D01*
X+3260120Y+5670156D01*
X+3344931Y+5701960D02*
X+3344931Y+5797372D01*
X+3330796Y+5924588D02*
X+3330796Y+5829176D01*
X+3245985Y+5829176D01*
X+3245985Y+5924588D01*
X+3288390Y+5829176D02*
X+3288390Y+5892784D01*
X+3245985Y+5956392D02*
X+3330796Y+5956392D01*
X+3330796Y+6051804D01*
X+3330796Y+6179020D02*
X+3330796Y+6083608D01*
X+3245985Y+6083608D01*
X+3245985Y+6179020D01*
X+3288390Y+6083608D02*
X+3288390Y+6147216D01*
X+3316661Y+6306236D02*
X+3330796Y+6290334D01*
X+3330796Y+6242628D01*
X+3302526Y+6210824D01*
X+3274255Y+6210824D01*
X+3245985Y+6242628D01*
X+3245985Y+6290334D01*
X+3260120Y+6306236D01*
X+3245985Y+6338040D02*
X+3245985Y+6433452D01*
X+3245985Y+6385746D02*
X+3330796Y+6385746D01*
D23*
X+2275700Y+3995700D02*
X+2504300Y+3995700D01*
X+2504300Y+5324300D01*
X+2275700Y+5324300D01*
X+2275700Y+3995700D01*
D37*
X+2390000Y+5210000D02*
X+2390000Y+5210000D01*
D39*
X+2433739Y+4448774D02*
X+2346262Y+4448774D01*
X+2346262Y+4514382D01*
X+2375421Y+4547186D01*
X+2404580Y+4547186D01*
X+2433739Y+4514382D01*
X+2433739Y+4448774D01*
X+2375421Y+4612794D02*
X+2346262Y+4645598D01*
X+2433739Y+4645598D01*
D23*
X+2625700Y+4115700D02*
X+3954300Y+4115700D01*
X+3954300Y+4344300D01*
X+2625700Y+4344300D01*
X+2625700Y+4115700D01*
D37*
X+2740000Y+4230000D02*
X+2740000Y+4230000D01*
D39*
X+3238794Y+4186261D02*
X+3238794Y+4273738D01*
X+3304402Y+4273738D01*
X+3337206Y+4244579D01*
X+3337206Y+4215420D01*
X+3304402Y+4186261D01*
X+3238794Y+4186261D01*
X+3386412Y+4259159D02*
X+3402814Y+4273738D01*
X+3452020Y+4273738D01*
X+3468422Y+4259159D01*
X+3468422Y+4244579D01*
X+3452020Y+4230000D01*
X+3402814Y+4230000D01*
X+3386412Y+4215420D01*
X+3386412Y+4186261D01*
X+3468422Y+4186261D01*
D23*
X+3702840Y+3394840D02*
X+3977160Y+3394840D01*
X+3977160Y+4177160D01*
X+3702840Y+4177160D01*
X+3702840Y+3394840D01*
D34*
X+3840000Y+4040000D02*
X+3840000Y+4040000D01*
D40*
X+3863572Y+3514017D02*
X+3875357Y+3500758D01*
X+3875357Y+3460982D01*
X+3851786Y+3434465D01*
X+3828215Y+3434465D01*
X+3804644Y+3460982D01*
X+3804644Y+3500758D01*
X+3816429Y+3514017D01*
X+3887143Y+3540535D02*
X+3887143Y+3620087D01*
X+3828215Y+3646605D02*
X+3804644Y+3673122D01*
X+3804644Y+3699640D01*
X+3828215Y+3726157D01*
X+3851786Y+3726157D01*
X+3875357Y+3699640D01*
X+3875357Y+3673122D01*
X+3851786Y+3646605D01*
X+3828215Y+3646605D01*
X+3804644Y+3752675D02*
X+3863572Y+3752675D01*
X+3875357Y+3765933D01*
X+3875357Y+3818968D01*
X+3863572Y+3832227D01*
X+3804644Y+3832227D01*
X+3804644Y+3858745D02*
X+3804644Y+3938297D01*
X+3804644Y+3898521D02*
X+3875357Y+3898521D01*
D23*
X+2642840Y+4414840D02*
X+2917160Y+4414840D01*
X+2917160Y+5197160D01*
X+2642840Y+5197160D01*
X+2642840Y+4414840D01*
D34*
X+2780000Y+5060000D02*
X+2780000Y+5060000D01*
D41*
X+2809464Y+4553905D02*
X+2824196Y+4537331D01*
X+2824196Y+4487611D01*
X+2794732Y+4454464D01*
X+2765268Y+4454464D01*
X+2735804Y+4487611D01*
X+2735804Y+4537331D01*
X+2750536Y+4553905D01*
X+2838928Y+4587052D02*
X+2838928Y+4686493D01*
X+2735804Y+4736213D02*
X+2735804Y+4802507D01*
X+2735804Y+4769360D02*
X+2824196Y+4769360D01*
X+2824196Y+4736213D02*
X+2824196Y+4802507D01*
X+2824196Y+4852228D02*
X+2735804Y+4852228D01*
X+2824196Y+4951669D01*
X+2735804Y+4951669D01*
D32*
X+1315000Y+2375000D02*
X+665000Y+2375000D01*
X+665000Y+1525000D01*
X+1315000Y+1525000D01*
X+1315000Y+2375000D01*
D42*
X+1215000Y+2275000D02*
X+1215000Y+2275000D01*
D43*
X+924849Y+1688298D02*
X+1033434Y+1688298D01*
X+1055151Y+1712729D01*
X+1055151Y+1810455D01*
X+1033434Y+1834887D01*
X+924849Y+1834887D01*
X+1011717Y+2030339D02*
X+1011717Y+1883750D01*
X+924849Y+1981476D01*
X+1055151Y+1981476D01*
D23*
X+301100Y+1335100D02*
X+478900Y+1335100D01*
X+478900Y+2528900D01*
X+301100Y+2528900D01*
X+301100Y+1335100D01*
D34*
X+390000Y+2440000D02*
X+390000Y+2440000D01*
D35*
X+423071Y+1572134D02*
X+356930Y+1572134D01*
X+356930Y+1634141D01*
X+367953Y+1646543D01*
X+378977Y+1646543D01*
X+390000Y+1634141D01*
X+390000Y+1572134D01*
X+390000Y+1634141D02*
X+401024Y+1646543D01*
X+423071Y+1646543D01*
X+434095Y+1671346D02*
X+434095Y+1745755D01*
X+423071Y+1770558D02*
X+356930Y+1770558D01*
X+356930Y+1832565D01*
X+367953Y+1844967D01*
X+378977Y+1844967D01*
X+390000Y+1832565D01*
X+390000Y+1770558D01*
X+356930Y+1869770D02*
X+412048Y+1869770D01*
X+423071Y+1882171D01*
X+423071Y+1931777D01*
X+412048Y+1944179D01*
X+356930Y+1944179D01*
X+412048Y+1968982D02*
X+423071Y+1981383D01*
X+423071Y+2030989D01*
X+412048Y+2043391D01*
X+401024Y+2043391D01*
X+390000Y+2030989D01*
X+390000Y+1981383D01*
X+378977Y+1968982D01*
X+367953Y+1968982D01*
X+356930Y+1981383D01*
X+356930Y+2030989D01*
X+367953Y+2043391D01*
X+423071Y+2068194D02*
X+356930Y+2068194D01*
X+356930Y+2142603D02*
X+423071Y+2142603D01*
X+390000Y+2068194D02*
X+390000Y+2142603D01*
M02*
